<svg version="1" xmlns="http://www.w3.org/2000/svg" width="1040" height="1040" viewBox="0 0 780.000000 780.000000"><path d="M384.6.7c-.1.1-5.1.3-11.1.4-6.1.1-14.6.5-19 1-4.4.4-10.7 1.1-14 1.4-21.6 2.1-50.4 8.5-74.3 16.4-21.9 7.2-27.7 9.6-48.2 19.8-28.7 14.2-56 32.4-80.5 53.7-8.6 7.5-33.3 31.9-40.5 40.1-2.5 2.8-5.9 6.7-7.7 8.7-13.2 14.9-30.7 40.8-45.5 67.3-11.7 20.9-29 66.6-32.3 85.4-.3 1.9-.8 3.7-1 4.1-.2.4-.7 2.2-1 4.1-.3 1.9-1 5.2-1.5 7.4-1.3 5.7-4.2 26.3-5.4 38-1.8 16.5-2.6 60.9-1.2 69 .2 1.6.8 7.3 1.1 12.5.4 5.2.9 10.4 1.1 11.4.2 1.1.8 5.6 1.4 10 7.4 54.6 31 113.9 63.4 159.2 26.6 37.3 52.4 63.7 94.6 96.7 11.3 8.9 41.4 26.9 58.5 35.1 32.3 15.5 71.8 27.9 103 32.1 2.2.3 4.9.7 6 1 1.1.2 4.5.7 7.5 1 3 .3 6.9.8 8.5 1 18.7 2.3 72.7 2.3 86.8 0 1.2-.2 4.7-.6 7.7-1 3-.3 6.6-.7 8-1 1.4-.2 8.1-1.3 15-2.5 73.2-12.4 145-50.6 200.4-106.6 50.9-51.5 81.2-101.7 100.5-166.9 4.5-15 10.4-45.7 11.6-59.5.4-4.1.8-8.1 1.1-8.8.6-2.1 1.8-27.7 1.8-41.2 0-12.1-1-35.4-2-43.5-8.1-71.5-31.4-131.3-72.5-186.2-5.4-7.2-10.4-13.7-11.1-14.5-.7-.7-3.8-4.2-6.8-7.8-7.7-9.2-34.6-36.3-43.8-44-45-38.1-86.9-61.5-138.5-77-21.8-6.7-49.6-12.2-67.7-13.6-3.6-.3-7.1-.7-7.9-1-2-.6-43.9-2.3-44.5-1.7z"/></svg>