<?xml version="1.0" standalone="no"?>
<!DOCTYPE svg PUBLIC "-//W3C//DTD SVG 1.1//EN" "http://www.w3.org/Graphics/SVG/1.1/DTD/svg11.dtd" >
<svg>
<metadata>
Created by FontForge 20120731 at Sat Oct 20 14:13:50 2018
 By www-data
(n~) Gruppa Provincia, Nizhny Novgorod
</metadata>
<defs>
<font id="Slavianskiy-Regular" horiz-adv-x="3174" >
  <font-face 
    font-family="Slavianskiy"
    font-weight="400"
    font-stretch="normal"
    units-per-em="4096"
    panose-1="4 11 114 0 0 0 0 0 0 0"
    ascent="3276"
    descent="-820"
    x-height="1905"
    cap-height="2867"
    bbox="-462 -1311 4743 3695"
    underline-thickness="50"
    underline-position="-75"
    unicode-range="U+0001-2219"
  />
<missing-glyph horiz-adv-x="3072" 
d="M512 0v2560h2048v-2560h-2048zM2494 66v2428h-1916v-2428h1916z" />
    <glyph glyph-name=".notdef" horiz-adv-x="3072" 
d="M512 0v2560h2048v-2560h-2048zM2494 66v2428h-1916v-2428h1916z" />
    <glyph glyph-name=".null" horiz-adv-x="0" 
 />
    <glyph glyph-name="nonmarkingreturn" horiz-adv-x="0" 
 />
    <glyph glyph-name="SOH" horiz-adv-x="0" 
d="M1802 3457q0 147 19 186t75 39q54 -4 140 -4q131 0 192 4h49q54 -8 54 -61q-4 -62 -4 -168q0 -119 4 -184q0 -58 -54 -70h-49q-130 8 -192 8q-21 0 -66 -2t-74 -2q-43 0 -60.5 11.5t-25.5 62.5t-8 180zM754 3457q0 147 19 186t75 39q53 -4 139 -4q131 0 193 4h49
q53 -8 53 -61q-4 -62 -4 -168q0 -119 4 -184q0 -58 -53 -70h-49q-132 8 -193 8q-22 0 -67 -2t-72 -2q-43 0 -60.5 12t-25.5 62.5t-8 179.5z" />
    <glyph glyph-name="STX" horiz-adv-x="0" 
d="M545 2662h139q99 0 162 2t59 2q53 0 53 -61q0 -35 -4 -98t-4 -99q0 -56 4 -105t4 -83q0 -56 -53 -66h-45q-103 9 -176 9q-22 0 -62 -2t-77 -2q-56 0 -75 31t-19 169q0 49 -2.5 96.5t-2.5 67.5q0 56 17 103q11 26 24 31t58 5zM1298 2662h140q97 0 158 2t59 2q53 0 53 -61
q0 -35 -4 -98t-4 -99q0 -56 4 -105t4 -83q0 -56 -53 -66h-45q-104 9 -172 9q-22 0 -63 -2t-77 -2q-56 0 -75 30.5t-19 169.5q0 36 -2 90t-2 74q0 60 17 103q11 26 23.5 31t57.5 5z" />
    <glyph glyph-name="ETX" horiz-adv-x="0" 
d="M2073 3654l180 -66q-97 -254 -281 -428t-383 -174q-151 0 -273 92t-199 243.5t-105 328.5l159 45q130 -336 390 -336q193 0 321 89t191 206z" />
    <glyph glyph-name="EOT" horiz-adv-x="0" 
d="M1544 2621l90 -57q-125 -280 -264 -388t-248 -108q-90 0 -188.5 144.5t-151.5 380.5l-24 110l110 29q105 -295 308 -295q240 0 331 131z" />
    <glyph glyph-name="DLE" horiz-adv-x="729" 
d="M-262 1827q0 193 82 360t189.5 268t170.5 101q67 0 176 -67t194 -199.5t85 -319.5q0 -148 -75 -319t-180 -288.5t-187 -117.5t-191 90.5t-186.5 227t-77.5 264.5zM-8 2281q-78 -97 -78 -196q0 -100 51.5 -227t159.5 -218.5t268 -91.5q41 77 41 181q0 128 -54 251.5
t-156 205.5t-232 95zM-201 983h803v-246h-803v246z" />
    <glyph glyph-name="DC4" horiz-adv-x="725" 
d="M-66 1094q0 370 15 545t46.5 222.5t98.5 47.5q20 0 53 -2t66 -2q66 0 188 8h45q54 -8 54 -66q0 -41 -21 -168.5t-35 -261t-14 -307.5q0 -554 66 -991q0 -73 -38.5 -96t-170.5 -23h-193q-56 0 -81.5 18t-38.5 78t-19 207q-21 481 -21 791z" />
    <glyph glyph-name="space" unicode=" " horiz-adv-x="1438" 
 />
    <glyph glyph-name="exclam" unicode="!" horiz-adv-x="1135" 
d="M684 979h-238q-26 387 -63 664t-117 614q-61 262 -61 487q0 160 63 279.5t150 180.5t147 61q67 0 153.5 -65t149 -185t62.5 -271q0 -231 -94 -590q-61 -240 -95 -470t-57 -705zM324 258q9 178 24 214t70 36q32 0 75 -2t64 -2q58 0 172 8h45q53 -9 53 -61q0 -34 -2 -95
t-2 -102q0 -38 2 -99t2 -94q0 -52 -53 -61h-45q-114 8 -172 8q-86 0 -139 -4q-56 0 -77.5 26.5t-21.5 141.5q0 12 2.5 36.5t2.5 49.5z" />
    <glyph glyph-name="numbersign" unicode="#" horiz-adv-x="2654" 
d="M840 2032l102 798h393l-110 -798h377l110 798h385l-115 -798h275v-377h-320l-65 -488h270v-368h-327l-103 -799h-393l115 799h-377l-115 -799h-381l103 799h-263v368h320l61 488h-270v377h328zM1569 1655h-402l-61 -488h389z" />
    <glyph glyph-name="dollar" unicode="$" horiz-adv-x="2605" 
d="M1462 -115v-471h-164v508q-58 22 -110 37q-53 18 -146 51t-147 46.5t-96 13.5q-181 0 -181 -283q0 -48 6.5 -93t6.5 -59q0 -24 -58 -24q-6 0 -76 2t-145 2q-65 -9 -134.5 -39.5t-82.5 -30.5q-34 0 -62 75.5t-28 178.5q0 147 58.5 264.5t173 186.5t272.5 69
q197 0 627 -151q30 -8 62.5 -20.5t59.5 -20.5v1167q-51 18 -127 25q-221 25 -323 43.5t-234.5 85.5t-221.5 210.5t-89 373.5q0 289 145 486t373 295.5t477 111.5v360h164v-365q283 -21 491 -145.5t315.5 -300t107.5 -344.5q0 -86 -54 -86l-553 4q-53 0 -53 82
q0 541 -254 623v-1315q35 -5 81.5 -11t70.5 -10q317 -47 499.5 -169.5t251 -269.5t68.5 -290q0 -175 -55.5 -357t-223.5 -320t-475 -138q-112 0 -217 12zM1462 123q250 63 250 647q0 344 -250 471v-1118zM1298 2761q-248 -69 -262 -541q-2 -53 -7 -127t-5 -106
q0 -407 274 -508v1282z" />
    <glyph glyph-name="percent" unicode="%" horiz-adv-x="2818" 
d="M786 1278q-84 0 -249 132.5t-291.5 343t-126.5 441.5q0 233 111.5 385.5t269.5 286.5q51 46 73 62q131 123 193 123q102 0 243 -163t244 -383.5t103 -367.5q0 -182 -100 -384t-237.5 -339t-232.5 -137zM963 1573q63 0 133.5 91.5t70.5 178.5q0 143 -123.5 352.5
t-279.5 371t-227 161.5q-43 0 -101.5 -49t-99.5 -128t-41 -163q0 -149 129 -340.5t293.5 -333t245.5 -141.5zM242 -123l2048 3113h286l-2048 -3113h-286zM2175 -33q-86 0 -250 132t-291 342.5t-127 443.5q0 234 113 386.5t268 284.5q50 45 74 62q130 123 192 123
q102 0 243 -163t244 -383.5t103 -367.5q0 -182 -100 -384t-237.5 -339t-231.5 -137zM2351 262q39 0 88 43t83 107.5t34 119.5q0 142 -123 351t-280 371.5t-228 162.5q-43 0 -101.5 -49t-99.5 -128t-41 -163q0 -147 128 -338.5t293.5 -334t246.5 -142.5z" />
    <glyph glyph-name="ampersand" unicode="&#x26;" horiz-adv-x="3613" 
d="M856 1647q-197 -160 -209 -365q4 -147 107 -287q98 -143 245 -250q279 -221 529 -233q262 12 401 262q-246 168 -401 283q-156 110 -352 278q-201 168 -320 312zM1671 2839q-106 0 -180 -99q-82 -110 -90 -274q0 -308 270 -467q258 246 258 520q0 139 -65 229
q-66 91 -193 91zM3502 2609l-102 -229q-49 -118 -49 -180l-13 -136h-119q-117 87 -181.5 113.5t-149.5 26.5q-110 0 -185 -39.5t-124.5 -116.5t-92.5 -201q-8 -23 -37 -100.5t-45.5 -132t-27.5 -123.5q171 -143 311 -356q122 -195 135 -480q0 -236 -80.5 -398.5
t-234.5 -293.5q-275 -221 -664 -221q-90 0 -188 8v74q291 0 422 119q147 139 147 344q0 299 -242 458q-139 -401 -405 -598q-270 -196 -578 -196q-356 0 -614 258q-274 262 -274 606q4 205 110 389q107 185 271 316q159 131 323 176q-127 226 -127 426q4 245 143 446
q140 197 365 303q164 74 328 74q61 0 123 -8q208 -29 331 -176q119 -148 119 -336q0 -164 -94 -287q-98 -127 -291 -176q365 -270 488 -352q24 116 188 577q69 193 151.5 311t217 178t344.5 60q109 0 255 -40.5t146 -86.5z" />
    <glyph glyph-name="quotesingle" unicode="'" horiz-adv-x="1020" 
d="M283 1700l-78 86q254 223 254 393q0 123 -17 180q-113 0 -144.5 21.5t-31.5 81.5q0 90 4 151q10 177 26 213.5t69 36.5q22 0 69 -2t70 -2q11 0 38 2t40 2q45 4 90 4h41q53 -8 53 -61q0 -19 -12 -258q-15 -575 -471 -848z" />
    <glyph glyph-name="parenleft" unicode="(" horiz-adv-x="2265" 
d="M1700 -725l-94 -135q-307 223 -551.5 535.5t-391.5 707.5t-159 829v148q19 684 333 1206.5t769 865.5l94 -135q-116 -134 -208 -301t-161.5 -402.5t-108 -557.5t-38.5 -750q0 -427 38.5 -747.5t108.5 -558.5t161 -403t208 -302z" />
    <glyph glyph-name="parenright" unicode=")" horiz-adv-x="2265" 
d="M598 -860l-94 135q117 135 209 301.5t160.5 399.5t107.5 558t39 752q0 428 -39 754t-107 557t-161 399.5t-209 300.5l94 135q211 -159 399.5 -361.5t344 -461.5t252 -575.5t106.5 -673.5v-148q-12 -436 -159 -829.5t-391.5 -706.5t-551.5 -536z" />
    <glyph glyph-name="asterisk" unicode="*" horiz-adv-x="2269" 
d="M1102 2355q-3 50 -12.5 73t-65.5 144q-86 181 -86 242q0 109 73.5 167t155.5 58q51 0 105 -24.5t89.5 -75.5t35.5 -125q0 -61 -86 -242q-25 -54 -43 -91.5t-26 -63.5t-9 -62q46 -11 78 -49q60 28 114 90q105 113 178.5 171.5t157.5 58.5q93 0 147 -83t54 -163
q0 -99 -63 -168.5t-175 -69.5q-90 0 -185 20.5t-130 20.5q-17 0 -57 -8q0 -61 -21 -90q43 -52 217 -143q110 -59 159.5 -97.5t49.5 -115.5q0 -114 -66.5 -202.5t-166.5 -88.5q-89 0 -139 50.5t-70.5 125.5t-36.5 188q-18 145 -49 201q-33 -8 -94 -8q-26 -52 -45 -180
q-23 -177 -68 -281t-182 -104q-94 0 -164 87t-70 203q0 93 39.5 119.5t178 88t208.5 145.5q-31 44 -37 90q-76 0 -182.5 -18.5t-194.5 -18.5q-105 0 -169 63t-64 174q0 103 62.5 174.5t134.5 71.5q127 0 258 -143q122 -134 196 -176q33 47 66 65z" />
    <glyph glyph-name="plus" unicode="+" horiz-adv-x="1475" 
d="M614 1008v487h238v-487h479v-238h-479v-463h-238v463h-471v238h471z" />
    <glyph glyph-name="comma" unicode="," horiz-adv-x="1020" 
d="M283 -655l-78 86q254 223 254 393q0 123 -17 180q-113 0 -144.5 21.5t-31.5 80.5q0 91 4 152q10 177 26 213.5t69 36.5q22 0 69 -2t70 -2q11 0 38 2t40 2q45 4 90 4h41q53 -8 53 -61q0 -19 -12 -258q-15 -575 -471 -848z" />
    <glyph glyph-name="hyphen" unicode="-" horiz-adv-x="1680" 
d="M276 998h1188v-238h-1188v238z" />
    <glyph glyph-name="period" unicode="." horiz-adv-x="1020" 
d="M258 258q0 122 10 174t28.5 64t59.5 12q54 -4 140 -4q56 0 172 8h41q53 -8 53 -61q0 -38 -2 -102t-2 -95q0 -28 2 -91t2 -102q0 -53 -53 -61h-41q-116 8 -172 8q-86 0 -140 -4q-73 0 -77 25q-21 37 -21 229z" />
    <glyph glyph-name="slash" unicode="/" horiz-adv-x="1556" 
d="M483 0h-319l819 2867h320z" />
    <glyph glyph-name="zero" unicode="0" horiz-adv-x="2265" 
d="M1208 -57q-94 0 -265.5 124.5t-349.5 342.5t-295.5 495.5t-117.5 569.5q0 274 102 497t215 349.5t273 275.5q67 62 111 102q114 110 176 157.5t119 47.5q119 0 275.5 -159.5t303 -410t238.5 -511.5t92 -447q0 -231 -91 -483.5t-234 -468.5t-294 -348.5t-258 -132.5z
M1479 438q61 0 136.5 71.5t127 177.5t51.5 202q0 179 -114.5 430.5t-282.5 489.5t-329 394t-241 156q-68 0 -159 -80.5t-154 -211.5t-63 -269q0 -190 118 -422t297.5 -448.5t351.5 -353t261 -136.5z" />
    <glyph glyph-name="one" unicode="1" horiz-adv-x="1810" 
d="M1520 0h-1205v127h308v2003q0 148 -30 213t-138 65q-72 0 -209 -36l-25 147q287 55 515 145t481 261v-2798h303v-127z" />
    <glyph glyph-name="two" unicode="2" horiz-adv-x="2265" 
d="M1917 623l94 -82l-278 -586q-158 14 -332 41q-95 15 -305 40t-330 25q-298 0 -455 -106l-110 119q40 45 192 205q134 133 188 196t189 234q253 315 394.5 550t185 366.5t43.5 209.5q0 240 -113 376t-322 136q-159 0 -260 -72t-256 -243l-245 237q340 635 958 635
q185 0 354.5 -78.5t274 -226t104.5 -338.5q0 -136 -52 -299t-175.5 -382t-339.5 -508.5t-530 -649.5q142 74 319 74q54 0 242 -25q169 -25 303 -25q82 0 139 43.5t123 133.5z" />
    <glyph glyph-name="three" unicode="3" horiz-adv-x="2265" 
d="M348 2105l-209 144q204 380 501.5 517.5t563.5 137.5q184 0 338.5 -61t246 -176t91.5 -271q0 -309 -414 -688l17 -29q310 -32 433.5 -193t123.5 -339q0 -244 -199 -525.5t-565.5 -505.5t-837.5 -309l-90 218q404 106 637.5 254.5t324.5 307t91 318.5q0 165 -90.5 306
t-323.5 141q-100 0 -167 -20t-206 -79l-82 152q324 116 539 350.5t215 439.5q0 89 -79 184t-277 95q-173 0 -334.5 -105.5t-247.5 -263.5z" />
    <glyph glyph-name="four" unicode="4" horiz-adv-x="2494" 
d="M1389 127v676q-238 8 -353 8q-590 0 -889 -135l-69 278q107 143 221 308q140 198 259 356.5t273 335t354.5 367.5t452.5 386q172 130 246 218l193 -86q-89 -182 -120.5 -333t-31.5 -368v-942q251 0 467 107l-139 -549q-55 14 -148 28q-55 7 -65 9q-23 4 -115 12v-676h287
v-127h-1151v127h328zM1389 1184v1040q-167 -133 -361 -360q-427 -501 -536 -713q232 11 401 20q266 13 496 13z" />
    <glyph glyph-name="five" unicode="5" horiz-adv-x="2265" 
d="M1815 2925l106 -29q-81 -164 -209 -520q-229 -21 -393 -21q-204 0 -651 70q-62 -105 -62 -164q0 -172 98.5 -230.5t307.5 -88.5q193 -28 373.5 -87t331.5 -213t151 -421q0 -225 -104.5 -454.5t-293.5 -425t-441.5 -327t-536.5 -166.5l-70 197q257 49 465 178t328 309.5
t120 372.5q0 144 -68.5 241.5t-171.5 155.5t-268 123q-201 79 -296.5 127.5t-165.5 139.5t-70 233q0 151 77 341.5t271 559.5q149 -11 287.5 -25.5t191.5 -19.5q297 -33 336 -33q121 0 208 30t149 147z" />
    <glyph glyph-name="six" unicode="6" horiz-adv-x="2269" 
d="M1538 2924l119 -106q-103 -102 -229 -221q-214 -204 -375 -382t-280 -395.5t-119 -433.5q0 -240 107.5 -409.5t242.5 -269t481 -321.5q154 131 226.5 226.5t72.5 223.5q0 109 -71.5 235t-184.5 235t-234.5 176t-222.5 67q-98 0 -139 -7l-82 62q69 102 247.5 251.5
t272.5 149.5q107 0 283.5 -136t309 -341t132.5 -404q0 -159 -112 -353.5t-279.5 -370t-326 -286t-240.5 -110.5q-141 0 -379 177t-417 436t-179 496q0 189 82 389t252 424.5t428.5 471.5t613.5 526z" />
    <glyph glyph-name="seven" unicode="7" horiz-adv-x="2073" 
d="M1925 2925l148 -123q-91 -124 -183.5 -288t-229 -456t-325.5 -727q-40 -89 -107 -241t-128 -319t-105.5 -357t-44.5 -353q0 -10 -2 -56t-2 -79q0 -155 25 -286q-131 50 -237 67t-279 31q65 347 242.5 812.5t389 908t400.5 786.5h-78h-664q-115 0 -171.5 -6t-95.5 -33.5
t-56 -87.5l-197 69q58 169 131 430q57 194 82 258q222 -43 500 -49h324q196 5 317 16.5t198.5 31.5t147.5 51z" />
    <glyph glyph-name="eight" unicode="8" horiz-adv-x="2269" 
d="M631 1495q-377 246 -377 537q0 204 158.5 407.5t376.5 334t370 130.5q123 0 324 -118t350 -294t149 -346q0 -174 -108.5 -298.5t-333.5 -295.5q319 -191 444 -346t125 -428q0 -176 -198 -370.5t-454.5 -329.5t-379.5 -135q-129 0 -352.5 143t-394 357.5t-170.5 420.5
q0 166 95 318t376 313zM1409 1647q85 33 153 104.5t68 173.5q0 147 -155 295.5t-356.5 248t-299.5 99.5q-73 0 -151 -74.5t-78 -162.5q0 -198 214 -349t605 -335zM1462 295q98 44 172 129.5t74 181.5q0 133 -82 239t-205.5 189t-318.5 195q-285 168 -357 168q-73 0 -147 -83
t-74 -184q0 -176 133.5 -307t309.5 -237q85 -56 103 -68.5t73 -50.5q183 -123 319 -172z" />
    <glyph glyph-name="nine" unicode="9" horiz-adv-x="2265" 
d="M717 -160l-131 156q250 208 476 460.5t378.5 528t152.5 510.5q0 187 -64 333.5t-171 256t-225.5 193t-362.5 245.5q-150 -133 -224.5 -244t-74.5 -235q0 -153 120 -331t290 -298.5t303 -120.5q103 0 139 13l82 -66q-89 -133 -252 -275.5t-264 -142.5q-108 0 -284.5 142
t-308.5 356t-132 424q0 203 108 389t221.5 298t251.5 230q156 135 231 188.5t146 53.5q79 0 240.5 -94.5t330.5 -255t284.5 -369t115.5 -428.5q0 -253 -120 -505.5t-308.5 -480t-384 -414t-563.5 -517.5z" />
    <glyph glyph-name="colon" unicode=":" horiz-adv-x="1135" 
d="M315 1692q0 168 22 209t77 41q38 0 77.5 -2.5t61.5 -2.5q40 0 168 9h45q53 -9 53 -62q0 -39 -2 -102t-2 -94q0 -30 2 -92t2 -101q0 -53 -53 -61h-45q-114 8 -168 8q-86 0 -139 -4q-74 0 -78 24q-21 58 -21 230zM315 258q0 118 11 171t30.5 66t57.5 13q27 0 72 -2t67 -2
q54 0 168 8h45q53 -8 53 -61q0 -38 -2 -102t-2 -95q0 -28 2 -91t2 -102q0 -53 -53 -61h-45q-114 8 -168 8q-86 0 -139 -4q-74 0 -78 25q-21 57 -21 229z" />
    <glyph glyph-name="semicolon" unicode=";" horiz-adv-x="1130" 
d="M319 1692q6 116 17 170.5t28.5 67t53.5 12.5q43 0 80.5 -2.5t58.5 -2.5q44 0 172 9h45q49 -9 49 -62q0 -39 -2 -102t-2 -94q0 -30 2 -92t2 -101q0 -53 -49 -61h-45q-114 8 -172 8q-86 0 -139 -4q-36 0 -56.5 14t-31.5 68t-11 172zM336 -655l-78 86q254 223 254 393
q0 123 -16 180q-115 0 -143.5 24.5t-33.5 106.5v123q10 173 28.5 211.5t70.5 38.5q27 0 72 -2t67 -2q62 0 168 8h41q53 -8 53 -61q0 -19 -12 -258q-3 -129 -29.5 -264.5t-129.5 -297t-312 -286.5z" />
    <glyph glyph-name="less" unicode="&#x3c;" horiz-adv-x="2335" 
d="M2265 369l-2183 893v163l2183 902v-279l-1687 -705l1687 -692v-282z" />
    <glyph glyph-name="equal" unicode="=" horiz-adv-x="2335" 
d="M82 1806h2187v-258h-2187v258zM82 1155h2187v-258h-2187v258z" />
    <glyph glyph-name="greater" unicode="&#x3e;" horiz-adv-x="2335" 
d="M82 2327l2183 -889v-164l-2183 -905v278l1692 705l-1692 696v279z" />
    <glyph glyph-name="question" unicode="?" horiz-adv-x="2154" 
d="M1004 799h-189q0 330 225 692q41 60 92.5 135.5t85.5 144.5t55 161t21 206q0 223 -83.5 404t-206.5 282t-234 101q-103 0 -213.5 -150t-155.5 -362h-221q35 240 181 459t327.5 353t306.5 134q110 0 268 -97.5t308 -255.5t248 -341t98 -343q0 -268 -106 -535t-488 -534
q-115 -81 -168.5 -124.5t-101.5 -128.5t-49 -201zM664 201q6 173 23 211.5t71 38.5h139q115 0 172 4h45q53 -10 53 -62q0 -34 -4 -98t-4 -98q0 -57 4 -106t4 -83q0 -56 -53 -65h-45q-114 8 -172 8q-86 0 -139 -4q-55 0 -74.5 45t-19.5 209z" />
    <glyph glyph-name="at" unicode="@" horiz-adv-x="3756" 
d="M2310 1851l488 21l-369 -1258q-62 -208 -62 -311q0 -65 50 -110q45 -50 114 -50q140 0 357 160q221 160 364 455q139 295 139 626q0 553 -352 910q-356 352 -925 352q-492 0 -893 -229q-406 -230 -639 -672q-238 -438 -238 -942q0 -692 442 -1135q443 -442 1123 -442
q561 0 1007 303q447 303 631 803h123q-238 -590 -696 -901q-463 -316 -1069 -316q-770 0 -1270 500q-500 496 -500 1257q0 525 246 971q250 447 696 688q451 242 996 242q438 0 774 -176q327 -176 495 -496q164 -319 164 -676q0 -413 -176 -757q-180 -340 -446 -504
q-271 -164 -578 -164q-197 0 -303 98q-102 99 -102 250q0 111 49 283q-168 -275 -258 -381q-127 -144 -250 -209q-82 -41 -185 -41q-139 0 -237 115q-98 110 -98 327q0 226 65 443q66 213 176 401q115 189 262 340q148 152 328 250q94 49 205 49q110 0 184 -70
q74 -69 99 -241zM2007 1782q-78 0 -152 -82q-98 -115 -213 -381q-204 -479 -204 -770q0 -86 41 -135q32 -49 77 -49q37 0 111 57q102 78 217 262q115 188 193 418q73 225 73 418q0 135 -53 209q-37 53 -90 53z" />
    <glyph glyph-name="A" unicode="A" horiz-adv-x="2830" 
d="M1130 2695h-315v172h1274v-172h-324l754 -2523h283v-172h-1229v172h311l-307 1061q-42 -204 -134.5 -433.5t-221.5 -424t-287.5 -313.5t-327.5 -119q-190 0 -324.5 122.5t-134.5 368.5q0 576 693 1573q233 334 303 565q0 37 -13 123zM590 852q6 -120 78.5 -197t154.5 -77
q155 0 292 183t228 430.5t115 430.5l-184 651q-230 -318 -393 -618q-49 -86 -94 -164t-92 -183.5t-76 -219.5t-29 -236z" />
    <glyph glyph-name="B" unicode="B" horiz-adv-x="2662" 
d="M455 172v1298q0 488 90.5 802t331.5 483.5t679 169.5q200 0 359 -53t269.5 -146.5t167 -212.5t56.5 -248q0 -304 -191.5 -443t-447.5 -139q-176 0 -372 132l-180 -226q144 -116 279 -185.5t277.5 -101.5t307.5 -32h37q128 0 190.5 -29.5t81 -89t18.5 -168.5v-651
q0 -22 -2 -46t-2 -65q-2 -84 -17 -127t-81 -68.5t-217 -25.5h-1974v172h340zM1090 172h503q102 0 141.5 52t39.5 222v463q0 92 -28 134t-149 108q-215 118 -311.5 183t-195.5 177v-1339zM1090 1655l237 323q126 -69 189 -69q87 0 172.5 96.5t85.5 325.5q0 217 -92 319.5
t-232 102.5q-217 0 -288 -224t-77 -596q0 -54 2.5 -135t2.5 -143z" />
    <glyph glyph-name="C" unicode="C" horiz-adv-x="2839" 
d="M2724 1851h-1073v172h176q0 411 -128.5 570.5t-314.5 159.5q-126 0 -237 -79.5t-182.5 -275.5t-71.5 -526q0 -243 35 -463t112 -545q90 -357 90 -594q0 -27 -5 -59t-13.5 -64t-13.5 -49q-5 -20 -9.5 -33.5t-7.5 -23.5q39 -25 99 -25q148 0 301 145.5t251.5 380
t98.5 482.5q0 66 -4 98h-176v172h1073v-172h-168q-12 -256 -138 -477.5t-331 -388t-447.5 -256.5t-472.5 -90q-174 0 -299 49v57q0 107 -15 186t-81.5 203.5t-210.5 315.5q-169 216 -255 380.5t-110 285.5t-24 268q0 385 169.5 674t457 442.5t626.5 153.5q574 0 825 -284.5
t306 -617.5h168v-172z" />
    <glyph glyph-name="D" unicode="D" horiz-adv-x="2830" 
d="M950 655q17 -189 79 -289t184 -140.5t343 -45.5q109 0 231 33.5t195 114.5q123 135 123 356q0 327 -237 709q-132 218 -347.5 425.5t-570.5 491.5v-1655zM975 2572q59 -73 196.5 -165.5t406.5 -260t372 -245.5q319 -243 530 -629.5t211 -726.5q0 -37 -8 -111
q-26 -214 -151.5 -324t-307.5 -110h-967h-1228v172h282v2523h-282v172h1274v-172h-316q-29 -35 -29 -78q0 -27 17 -45z" />
    <glyph glyph-name="E" unicode="E" horiz-adv-x="2961" 
d="M1483 1434h151q-36 119 -112 182t-146 63q-127 0 -255 -48.5t-208 -139.5q44 -277 103 -467q65 -217 92 -341.5t27 -322.5q0 -111 -41 -217q57 -28 151 -28q355 0 533.5 186t228.5 428h-205v168h1073v-168l-151 -4q-121 -216 -310 -396t-418.5 -283t-467.5 -103
q-164 0 -354 18.5t-318 58.5q8 74 8 107q0 147 -63.5 270t-186.5 271q-189 231 -283 381t-126.5 272t-32.5 285q0 477 213.5 774t532.5 421t655 124q205 0 424.5 -53t415 -196t294.5 -395h197v-172h-1016v172h127q-31 182 -160 327t-380 145q-205 0 -336 -131.5t-190.5 -338
t-59.5 -428.5q0 -106 12 -204q296 258 684 258q156 0 308 -55.5t268 -162.5t170 -257h168v-172h-1016v172z" />
    <glyph glyph-name="F" unicode="F" horiz-adv-x="2961" 
d="M500 340q0 131 -42 284t-126 389t-122 365t-38 228q0 477 213.5 774t532.5 421t655 124q205 0 424.5 -53t415 -196t294.5 -395h197v-172h-1016v172h127q-31 182 -160 327t-380 145q-205 0 -336 -131.5t-190.5 -338t-59.5 -428.5q0 -106 12 -204q296 258 684 258
q156 0 308 -55.5t268 -162.5t170 -257h168v-172h-1016v172h151q-36 119 -112 182t-146 63q-127 0 -255 -48.5t-208 -139.5q44 -277 103 -467q65 -217 92 -341.5t27 -322.5v-188h340v-172h-1315v172h340v168z" />
    <glyph glyph-name="G" unicode="G" horiz-adv-x="2961" 
d="M913 1491q44 -277 103 -467q65 -217 92 -341.5t27 -322.5q0 -111 -41 -217q57 -28 151 -28q199 0 379 105t268 276q51 99 71 212t28.5 253t15.5 178h-614v168h1511v-168l-160 12q25 -90 25 -209q0 -246 -95 -505.5t-200 -321.5q-159 -89 -432 -130.5t-514 -41.5
q-164 0 -354 18.5t-318 58.5q8 74 8 107q0 147 -63.5 270t-186.5 271q-189 231 -283 381t-126.5 272t-32.5 285q0 477 213.5 774t532.5 421t655 124q205 0 424.5 -53t415 -196t294.5 -395h197v-172h-1016v172h127q-31 182 -160 327t-380 145q-205 0 -336 -131.5t-190.5 -338
t-59.5 -428.5q0 -234 24 -364z" />
    <glyph glyph-name="H" unicode="H" horiz-adv-x="2986" 
d="M1855 2695h-233v172h1204v-172h-336v-2523h340v-172h-1200v172h225v971q0 36 -2 46t-2 52q-3 127 -49 161.5t-164 67.5q-122 37 -262 105.5t-241 144.5v-1548h229v-172h-1204v172h340v2523h-340v172h1204v-172h-229v-729q178 -170 343 -251t377 -93v1073z" />
    <glyph glyph-name="I" unicode="I" horiz-adv-x="1700" 
d="M532 172v2523h-339v172h1314v-172h-340v-2523h340v-172h-1314v172h339z" />
    <glyph glyph-name="J" unicode="J" horiz-adv-x="2552" 
d="M1663 1069q-12 200 -47 459.5t-80 372.5q-119 300 -119 606v188h-340v172h1315v-172h-340v-168q0 -124 43 -275t126 -369.5t121 -339t38 -224.5q0 -484 -167 -779.5t-435.5 -417.5t-593.5 -122q-177 0 -354.5 67t-330.5 212.5t-245 363.5h-197v172h1016v-172h-127
q0 -151 96 -302t240 -169q149 0 228.5 65.5t115.5 188.5q45 162 45 405q0 82 -8 238z" />
    <glyph glyph-name="K" unicode="K" horiz-adv-x="2945" 
d="M1135 1602h151l57 114q41 80 66 148q32 66 47.5 96.5t38.5 79.5q71 144 155.5 312t177 295t211.5 202.5t271 75.5q192 0 361 -74q-76 -199 -85 -230.5t-18 -134.5q-12 -103 -12 -196h-82q-73 26 -131 53q-100 49 -221 49q-120 0 -212.5 -82t-185 -242.5t-270.5 -511.5
q329 -75 572.5 -210t403 -419t167.5 -755h246v-172h-1114v172h159q8 156 8 221q0 229 -36.5 402t-123.5 307t-236.5 224t-364.5 132v-1286h254v-172h-1229v172h340v2523h-340v172h1257v-172h-282v-1093z" />
    <glyph glyph-name="L" unicode="L" horiz-adv-x="2867" 
d="M1167 2695v-2523q183 2 298 2.5t194 5.5q143 10 228.5 44t142 118t96.5 244q4 16 4 123q0 131 -4 188q158 -39 401 -49q107 0 148 4q16 -49 16 -139q0 -119 -20 -201q-57 -257 -262 -370t-541 -138q-103 -8 -316 -8q-81 0 -245 2t-246 2h-868v172h339v2523h-339v172h1314
v-172h-340z" />
    <glyph glyph-name="M" unicode="M" horiz-adv-x="4420" 
d="M1778 172l-447 2081q-156 -241 -259 -454.5t-155.5 -424.5t-52.5 -432q0 -132 27.5 -376t30.5 -304v-205q-7 -64 -58 -86q-37 -16 -90 -16q-49 0 -147 16q-37 4 -107 4q-86 0 -131 -4q-66 -8 -86 -8q-75 0 -109 59t-34 236q0 301 81 542t204 430t358 503q230 311 330 492
t100 368q0 36 -8 102h-303v172h1171v-172h-229l520 -2404l455 2404h-181v172h1102v-172h-266l549 -2523h282v-172h-1097v172h180l-463 2155l-401 -2155h217v-172h-1196v172h213z" />
    <glyph glyph-name="N" unicode="N" 
d="M2040 0l-905 2413v-2241h282v-172h-1257v172h340v2523h-340v172h975l905 -2429v2257h-283v172h1258v-172h-340v-2523h340v-172h-975z" />
    <glyph glyph-name="O" unicode="O" horiz-adv-x="2609" 
d="M1061 2437q-145 -20 -258.5 -113t-175.5 -225.5t-62 -263.5q0 -97 40 -201.5t118 -220.5t187 -238t274 -286q200 -197 260.5 -280t71.5 -191q178 68 332 228.5t180 336.5v139q0 105 -73.5 221t-195 248t-276.5 301q-110 122 -186.5 206.5t-120.5 139.5t-69.5 99.5
t-45.5 99.5zM971 2732q91 86 198 166t162 80q39 0 65 -25.5t107 -113.5q136 -140 389 -361q264 -230 406.5 -459t142.5 -565q0 -286 -104.5 -502t-232 -350.5t-519.5 -511.5q-116 -116 -171.5 -158.5t-102.5 -42.5q-43 0 -118.5 54.5t-299.5 244.5q-219 190 -305 269.5
t-190.5 219t-167 315.5t-62.5 397q0 234 81 437t202.5 363.5t281 314t238.5 228.5z" />
    <glyph glyph-name="P" unicode="P" horiz-adv-x="2716" 
d="M1135 1094v-922h340v-172h-1315v172h340v1499q0 320 12 623q121 294 389.5 462.5t597.5 168.5q325 0 559 -108t355.5 -296t121.5 -416q0 -222 -90 -404t-248.5 -286t-353.5 -104q-100 0 -159 22.5t-177 83.5q-63 32 -90 45zM1135 1339l262 332q38 -30 83.5 -49.5
t67.5 -19.5q97 0 182 107.5t85 404.5q0 296 -72.5 467.5t-272.5 171.5q-150 0 -223.5 -107t-92.5 -263t-19 -392v-99v-553z" />
    <glyph glyph-name="Q" unicode="Q" horiz-adv-x="2355" 
d="M737 2408q-81 -95 -120 -229.5t-39 -265.5q0 -303 128.5 -605.5t338.5 -496t438 -193.5q55 0 114 13q70 198 70 397q0 230 -55 473t-168.5 449t-291.5 332t-415 126zM1712 -385q12 61 12 192q0 254 -159 254q-52 0 -222 -61q-104 -74 -155 -74q-280 67 -514.5 322
t-370 564t-135.5 515q0 287 103 585t264.5 545t331 392t292.5 145t298 -96.5t343 -273.5t277.5 -422.5t109.5 -530.5q0 -178 -45 -390.5t-164 -466t-323 -507.5q120 53 217 53q166 0 296 -142.5t130 -369.5q0 -124 -35 -203t-88 -79q-42 0 -176 41q-49 12 -119 12
q-28 0 -85 -2t-83 -2z" />
    <glyph glyph-name="R" unicode="R" horiz-adv-x="2949" 
d="M160 2867h1843q237 0 359.5 -18.5t197 -98t74.5 -251.5q0 -211 -122 -409t-395 -347.5t-704 -206.5v-61q324 -13 608.5 -151.5t469 -427.5t200.5 -724h188v-172h-1056v172h159v86q0 427 -121.5 688t-312.5 370t-413 109v-1253h200v-172h-1175v172h340v2523h-340v172z
M1135 1729q169 3 313 64.5t249 164.5t160.5 229t55.5 258q0 250 -311 250h-467v-966z" />
    <glyph glyph-name="S" unicode="S" horiz-adv-x="2605" 
d="M2322 2044l-553 4q-53 0 -53 82q0 374 -103.5 506.5t-232.5 132.5q-330 0 -344 -549q-2 -53 -7 -127t-5 -106q0 -187 50 -298t134 -163.5t206.5 -74.5t199.5 -34q317 -47 499.5 -169.5t251 -269.5t68.5 -290q0 -175 -55.5 -357t-223.5 -320t-475 -138q-255 0 -491 86
q-53 18 -146 51t-147 46.5t-96 13.5q-181 0 -181 -283q0 -48 6.5 -93t6.5 -59q0 -24 -58 -24q-6 0 -76 2t-145 2q-65 -9 -134.5 -39.5t-82.5 -30.5q-34 0 -62 75.5t-28 178.5q0 147 58.5 264.5t173 186.5t272.5 69q197 0 627 -151q146 -53 217 -53q319 0 319 655
q0 229 -115 372.5t-426 176.5q-221 25 -323 43.5t-234.5 85.5t-221.5 210.5t-89 373.5q0 301 157 503.5t400.5 296t499.5 93.5q239 0 430 -72.5t320.5 -190.5t197.5 -260t68 -272q0 -86 -54 -86z" />
    <glyph glyph-name="T" unicode="T" 
d="M1270 172v2523h-176h-95q-116 0 -184.5 -34.5t-131 -163t-130.5 -400.5q-33 -124 -52.5 -164.5t-82.5 -40.5q-72 0 -93.5 51t-25.5 138q-6 169 -74 356q-16 47 -69.5 167.5t-53.5 164.5q0 60 46 108t135 48q28 0 112 -19t179.5 -31t256.5 -12q33 0 78 2t70 2h1216
q27 0 72 -2t76 -2q161 0 257.5 12t180 31t111.5 19q89 0 134.5 -47.5t45.5 -108.5q0 -47 -51 -160t-72 -172q-71 -191 -78 -356q0 -189 -114 -189q-49 0 -74.5 32.5t-37.5 76t-60 231.5q-58 212 -125 310.5t-151.5 125.5t-227.5 27h-176v-2523h340v-172h-1315v172h340z" />
    <glyph glyph-name="U" unicode="U" horiz-adv-x="3363" 
d="M1278 795q0 -175 70 -323t181.5 -234.5t223.5 -90.5q133 0 243 76t175 222.5t65 349.5v1917h-290v172h1257v-172h-233v-1905q0 -175 -114 -336t-300 -284t-399 -192t-400 -69q-186 0 -398.5 69t-399.5 192.5t-300.5 284t-113.5 335.5v1888h-242v172h1258v-172h-283v-1900
z" />
    <glyph glyph-name="V" unicode="V" horiz-adv-x="3072" 
d="M1085 2695l549 -2224q156 480 234 795q86 344 172 678.5t172 545t207 325t297 114.5q69 0 241 -50q115 -32 115 -65q0 -9 -17 -40t-34.5 -98.5t-30.5 -205.5q-4 -82 -4 -217h-66q-101 53 -139.5 69.5t-101.5 16.5q-186 0 -274.5 -139t-172.5 -471q-57 -225 -245 -852
q-17 -62 -41.5 -140t-49.5 -164q-25 -85 -33.5 -112.5t-23 -78t-34.5 -119t-27 -91.5h192v-172h-856l-688 2695h-340v172h1286v-172h-287z" />
    <glyph glyph-name="W" unicode="W" horiz-adv-x="4080" 
d="M2114 840q-269 -410 -430 -612.5t-357 -342.5q-359 258 -596.5 584t-362.5 655t-170.5 608.5t-45.5 495.5q0 141 16 376t53 259h86h139h111q119 0 193 4q52 0 69 -11t17 -63q0 -28 -10.5 -122t-10.5 -213q0 -204 21.5 -429.5t93.5 -499.5t223 -551.5t395 -502.5
q120 116 242 283q142 191 205 319q-147 293 -214.5 602.5t-76.5 692.5v192q2 71 6 129.5t6 95.5q0 48 17 61t98 13h135h86h41q94 0 148 4q77 0 106 -15.5t29 -86.5q0 -92 -9 -180v-144q8 -328 59 -615.5t146 -537.5t227.5 -442t301.5 -322q126 187 201.5 330t119 304.5
t43.5 344.5q0 189 -43 386t-186 544q-94 226 -94 328q0 66 31 84t100 18h491q98 0 133 -26t35 -121q0 -54 -4 -86q-7 -73 -13 -231.5t-10 -233t-19.5 -209.5t-43.5 -277q-53 -279 -141.5 -516.5t-212 -449.5t-270 -400.5t-363.5 -427.5q-469 421 -741 955z" />
    <glyph glyph-name="X" unicode="X" horiz-adv-x="2949" 
d="M1040 2695l430 -696q27 72 99 221q40 80 69 156q91 200 170.5 313t207 174.5t335.5 61.5q109 0 255.5 -41.5t146.5 -85.5q0 -30 -33 -86q-12 -27 -37 -78l-33 -66q-49 -126 -49 -180v-33q0 -57 -12 -102h-119q-118 86 -182 112.5t-150 26.5q-153 0 -225 -76.5
t-176 -279.5q-12 -26 -25 -51t-29 -56q-54 -104 -73 -151l934 -1606h348v-172h-1462v172h389l-635 1081l-238 -454q-61 -115 -122.5 -289t-61.5 -244q0 -98 184 -98q70 0 107 4v-172h-996v172q185 0 303.5 78.5t197 209.5t192.5 380q39 90 57 123l246 507l-717 1225h-270
v172h1277v-172h-303z" />
    <glyph glyph-name="Y" unicode="Y" horiz-adv-x="3514" 
d="M2073 172h225v-172h-1090v172h230v1311q-305 73 -533 225.5t-368 397.5t-177 589h-249v172h1163v-172h-193q0 -403 110.5 -640.5t263 -329t298.5 -91.5q188 0 345 120t248 331t91 471q0 65 -8 139h-188v172h1163v-172h-250q-110 -986 -1081 -1212v-1311z" />
    <glyph glyph-name="Z" unicode="Z" horiz-adv-x="2494" 
d="M131 139l1471 2556q-103 -4 -185 -4q-57 -4 -143 -4q-270 -4 -400.5 -45.5t-179.5 -116t-88 -219.5q-55 -209 -87 -291t-109 -82q-95 0 -115 172q-26 263 -123 484q-57 120 -57 188q0 115 164 115q60 0 164 -12.5t147 -12.5h1720l-8 -114l-1524 -2581h160q56 0 181 -4
t290 -4q430 -5 741.5 -115.5t311.5 -499.5q0 -148 -80 -284.5t-252.5 -225t-429.5 -88.5q-140 0 -316 37l41 107h37q184 0 260 118.5t76 262.5q0 244 -137.5 358t-344.5 140t-566 26h-619v139z" />
    <glyph glyph-name="bracketleft" unicode="[" horiz-adv-x="2269" 
d="M647 3207h1258v-172h-623v-3678h623v-172h-1258v4022z" />
    <glyph glyph-name="backslash" unicode="\" horiz-adv-x="1556" 
d="M1303 0h-320l-819 2867h319z" />
    <glyph glyph-name="bracketright" unicode="]" horiz-adv-x="2269" 
d="M1622 3207v-4022h-1257v172h622v3678h-622v172h1257z" />
    <glyph glyph-name="asciicircum" unicode="^" horiz-adv-x="1475" 
d="M143 2376l594 491l594 -491v-299l-594 491l-594 -491v299z" />
    <glyph glyph-name="underscore" unicode="_" 
d="M74 -205h3027v-278h-3027v278z" />
    <glyph glyph-name="grave" unicode="`" horiz-adv-x="1364" 
d="M74 2806h606l229 -697h-168z" />
    <glyph glyph-name="a" unicode="a" horiz-adv-x="2121" 
d="M1110 1102q-29 152 -115 397q-237 -257 -323 -451.5t-86 -297.5q0 -105 59.5 -192t181.5 -87q108 0 188 54.5t120.5 133t40.5 144.5q0 36 -26 131.5t-40 167.5zM1405 66q-66 286 -156 552q-202 -663 -647 -663q-161 0 -259 86.5t-138.5 208t-40.5 237.5q0 108 53 229.5
t137.5 242.5t141.5 187.5t180 205.5q55 64 125.5 136.5t95.5 105.5t25 65q0 50 -29 139q-12 41 -12 82q0 25 82 25h417q41 0 50 -25q2 -21 3.5 -46.5t7 -59.5t17.5 -86q100 -404 180.5 -675t159 -501t115.5 -337.5t37 -137.5q0 -37 -82 -37h-418q-31 0 -45 66z" />
    <glyph glyph-name="b" unicode="b" horiz-adv-x="1929" 
d="M602 1688q81 146 235 251t306 105q162 0 293 -105.5t205.5 -294.5t74.5 -427q0 -250 -75 -481.5t-193 -411.5t-243.5 -282.5t-221.5 -102.5q-111 0 -299 152t-329.5 420.5t-141.5 606.5q0 134 7.5 246t29 328.5t37.5 392.5q20 266 20 545q0 258 -4 336v24q11 41 94 41
q258 0 258 -549q0 -376 -37 -655q-13 -116 -16 -139zM717 324q147 71 272 249t201.5 389t87.5 365v152q-13 178 -80 246.5t-141 68.5q-99 0 -221 -105t-206.5 -298t-84.5 -433q0 -205 38 -347.5t134 -286.5z" />
    <glyph glyph-name="c" unicode="c" horiz-adv-x="1704" 
d="M1397 672l135 -107q-138 -290 -334 -497t-321 -207q-94 0 -215 106.5t-234.5 283.5t-184.5 373t-71 363q0 232 118 479.5t279 414.5t267 167q33 0 143 -41.5t228.5 -100t203 -123.5t84.5 -116q0 -39 -115 -160q-74 -77 -97.5 -112t-46 -74t-36.5 -39q-20 0 -86 90
q-81 107 -186.5 187t-296.5 120q-70 -143 -70 -356q0 -188 84.5 -389.5t225 -358t292.5 -215.5q95 96 176 226q7 11 22 35t36 51z" />
    <glyph glyph-name="d" unicode="d" horiz-adv-x="1998" 
d="M651 1327q6 -116 49.5 -262t120.5 -297.5t178 -270t213 -173.5q97 144 134.5 286.5t37.5 347.5q0 187 -50.5 343t-131 266.5t-169 168.5t-161.5 58q-36 0 -89 -61t-92.5 -167.5t-39.5 -238.5zM1626 3519q8 -59 8 -88q0 -24 -6 -129t-6 -193q0 -329 20 -642
q24 -292 40.5 -489.5t25 -344t8.5 -305.5q0 -398 -141.5 -714.5t-329.5 -495.5t-299 -179q-95 0 -221 120.5t-243.5 332t-193 486t-75.5 566.5q0 281 74.5 503.5t205.5 346.5t293 124q151 0 306.5 -124t234.5 -295q-3 27 -16 164q-37 328 -37 771q0 647 258 647
q25 0 56.5 -20t37.5 -42z" />
    <glyph glyph-name="e" unicode="e" horiz-adv-x="2338" 
d="M2190 1720l107 -127q-221 -143 -381 -143q-171 0 -356 213q-70 79 -111.5 115.5t-101.5 36.5q-189 0 -248 -240t-68 -600q98 76 269 154.5t276 78.5q79 0 147 -24q79 -29 161.5 -80t121.5 -51q84 0 156 65l82 -110q-101 -116 -226 -209q-66 -49 -105.5 -69.5
t-107.5 -20.5q-89 0 -192 69q-104 71 -166 99t-137 28q-140 0 -275 -119q0 -318 153.5 -527.5t416.5 -209.5q232 0 528 213l78 -86q-292 -315 -737 -315q-213 0 -438 81.5t-393 299t-185 589.5v140q12 208 107 437t290 391.5t479 162.5q288 0 615 -205q96 -69 151 -69
q53 0 90 32z" />
    <glyph glyph-name="f" unicode="f" horiz-adv-x="1843" 
d="M1749 1765q-38 -75 -135 -141.5t-193 -83.5q-40 0 -67 24t-82.5 88t-109 101.5t-130.5 48.5q-41 -248 -41 -729q0 -374 13.5 -489.5t41 -238.5t27.5 -284q0 -94 -352 -94q-49 0 -61.5 23t-12.5 71q0 627 12 816q41 613 78 909q-76 -31 -130.5 -70t-125.5 -103.5
t-80 -72.5q-21 -16 -49 -16q-66 0 -150.5 85.5t-127.5 155.5q0 68 112.5 139t202.5 78l381 33q5 128 29 226q33 139 139.5 325t276.5 325.5t378 139.5q193 0 193 -82q0 -25 -10 -52.5t-34 -73t-30 -58.5q-24 -62 -24 -185q0 -106 -9 -163l-94 -4q-31 106 -155 106
q-249 0 -361 -504h430q83 0 172.5 -65.5t89.5 -139.5q0 -19 -12 -45z" />
    <glyph glyph-name="g" unicode="g" horiz-adv-x="1929" 
d="M1217 1659q-152 -75 -275.5 -252t-199.5 -387.5t-87 -364.5v-151q14 -178 81 -247t141 -69q100 0 221.5 105.5t206 297.5t84.5 433q0 206 -37.5 348.5t-134.5 286.5zM1294 -197q0 211 21 353q13 120 16 139q-79 -145 -233.5 -250.5t-306.5 -105.5q-163 0 -294 105.5
t-205.5 294.5t-74.5 427q0 247 76 481t192 412.5t243 281.5t222 103q111 0 299 -152t329.5 -421.5t141.5 -606.5q0 -115 -26.5 -331.5t-36.5 -317t-10 -317.5q0 -183 -30 -350t-158.5 -308t-389.5 -141q-54 0 -142 20t-116 25q-73 12 -143 12q-169 0 -268 -59.5t-195 -173.5
q-14 -19 -48 -55.5t-51 -55.5l-81 90q110 231 213.5 349t180.5 147t163 29q49 0 85 -9.5t102 -36t71 -28.5q93 -37 155 -37q158 0 228.5 152.5t70.5 334.5z" />
    <glyph glyph-name="h" unicode="h" horiz-adv-x="1995" 
d="M238 1204q14 166 65 1155q18 371 28 481t36.5 150.5t95.5 40.5q20 0 61 -2t62 -2q16 0 74 2t114 2q38 -6 66 -24.5t28 -36.5q0 -24 -28 -226q-15 -100 -41 -312t-48.5 -449t-29.5 -435q562 -28 835 -250q205 -161 264.5 -507t59.5 -631q0 -86 -40 -123t-193 -37h-234
q-61 0 -74 29t-16 151q-6 161 -22 363.5t-46.5 386t-78.5 250.5q-153 204 -459 204q-12 -139 -12 -1011q0 -41 10 -127t10 -127q0 -72 -34 -95.5t-179 -23.5h-156q-64 0 -90 22.5t-34 79t-15 201.5q-4 78 -4 262q0 351 25 639z" />
    <glyph glyph-name="i" unicode="i" horiz-adv-x="1073" 
d="M631 0h-193q-54 0 -79 17.5t-37.5 79t-18.5 206.5q-20 465 -20 791q0 380 16 552t47 217.5t92 45.5q40 0 78 -2t62 -2q53 0 167 8h46q53 -8 53 -66q0 -36 -19 -123t-33 -224.5t-14 -389.5q0 -365 13 -542t49 -449q0 -73 -38.5 -96t-170.5 -23zM438 2662h140q96 0 154 2
t59 2q53 0 53 -61q-4 -70 -4 -197q0 -122 4 -188q0 -57 -53 -66h-46q-103 9 -167 9q-86 0 -140 -4q-47 0 -65 11.5t-25.5 64t-7.5 178.5q0 168 23.5 208.5t74.5 40.5z" />
    <glyph glyph-name="j" unicode="j" horiz-adv-x="1278" 
d="M643 2662h139q96 0 155 2t58 2q54 0 54 -61q-5 -70 -5 -197q0 -122 5 -188q0 -57 -54 -66h-45q-103 9 -168 9q-86 0 -139 -4q-47 0 -65 11.5t-25.5 64t-7.5 178.5q0 168 23.5 208.5t74.5 40.5zM971 999q-23 -399 -62 -805t-78 -559q-33 -139 -139.5 -325t-276 -325.5
t-378.5 -139.5q-193 0 -193 82q0 25 10 52.5t34 73t30 58.5q25 66 25 184q0 107 8 164l94 4q32 -106 156 -106q103 0 200.5 110.5t167.5 432t70 903.5q0 374 -13.5 489.5t-41 238.5t-27.5 284q0 94 352 94q50 0 62 -23t12 -71q0 -627 -12 -816z" />
    <glyph glyph-name="k" unicode="k" horiz-adv-x="1929" 
d="M225 1741q12 138 37 618q18 371 28 481t36.5 150.5t95.5 40.5q20 0 61 -2t62 -2q127 0 188 4h45q49 -8 49 -61q0 -24 -28 -226q-64 -421 -86 -1003v-709h32q512 918 918 918q71 0 123.5 -20t52.5 -46q0 -36 -31.5 -86.5t-55 -118t-32.5 -217.5q0 -25 -2 -49t-2 -37
l-106 -4q-55 127 -189 127q-102 0 -237 -113t-230 -272q-50 -76 -86 -123q288 -81 484 -212.5t304 -274t151.5 -264.5t43.5 -199q0 -53 -151 -53q-29 2 -78 7t-70 5q-86 0 -135 -8q-66 -8 -74 -8q-40 0 -56.5 33.5t-33.5 142.5q-27 172 -99.5 320.5t-186.5 256t-254 152.5
q0 -467 41 -770v-45q0 -74 -189 -74h-192q-62 0 -90.5 28t-43 129.5t-18.5 313t-4 619.5q0 475 8 651z" />
    <glyph glyph-name="l" unicode="l" horiz-adv-x="1851" 
d="M512 0h-287l-41 2159q0 176 -4 364q-12 196 -18 229.5t-10 147.5q0 88 28 113.5t82 25.5q21 0 61 -2t58 -2q172 0 233 4q50 -10 50 -24q0 -4 -8 -80.5t-13 -210.5q-2 -84 -10 -262t-10 -254l-50 -2024q556 0 598 271q0 131 -81 172l16 94q12 -1 54.5 -5.5t56 -6
t57.5 -9.5q65 -8 184 -8q30 4 95 26.5t102 22.5q57 -19 57 -123q0 -17 -8 -81q-12 -91 -34 -206t-117 -183.5t-343.5 -108t-697.5 -39.5z" />
    <glyph glyph-name="m" unicode="m" horiz-adv-x="3236" 
d="M1761 1769q60 64 159.5 110t152.5 46q274 0 425 -89t263 -247q110 -155 171 -452.5t82 -569t21 -407.5q0 -86 -40 -123t-193 -37h-234q-44 0 -62 12.5t-23 45.5t-5 122q0 950 -98 1307q-23 72 -132 118t-225 46q-109 0 -151 -41q-78 -79 -78 -365q0 -165 33 -484.5
t33 -387.5q0 -41 10 -127t10 -127q0 -77 -36.5 -98t-196.5 -21h-234q-61 0 -74 29t-16 151v381q0 809 -66 926q-75 135 -278 135q-32 0 -100.5 -5t-112.5 -7q-82 -5 -82 -488q0 -134 4.5 -275t10.5 -280t6 -194q0 -41 10 -127t10 -127q0 -72 -34 -95.5t-179 -23.5h-156
q-64 0 -90 22.5t-34 79t-15 201.5q-4 53 -4 184q0 133 25 758q13 339 24.5 465.5t38.5 166.5t96 40q20 0 61 -2t62 -2q53 0 83 -26t118 -118q205 185 491 185q160 0 306.5 -53.5t242.5 -131.5z" />
    <glyph glyph-name="n" unicode="n" horiz-adv-x="1995" 
d="M803 1790q354 147 569 147q158 0 242 -77q109 -102 169.5 -338.5t80.5 -508.5t20 -538q0 -95 -2 -205l-2 -110q0 -86 -40 -123t-193 -37h-234q-61 0 -74 29t-16 151q0 35 2 235t2 339q0 609 -70 708q-65 89 -183 118.5t-308 29.5q-10 -121 -35.5 -595t-25.5 -642
q0 -41 10 -127t10 -127q0 -72 -34 -95.5t-179 -23.5h-156q-64 0 -90 22.5t-34 79t-15 201.5q-4 53 -4 184q0 133 25 758q14 328 25.5 459.5t38 172t95.5 40.5q20 0 61 -2t62 -2q16 0 75 2t114 2q34 -5 64 -53.5t30 -73.5z" />
    <glyph glyph-name="o" unicode="o" horiz-adv-x="1815" 
d="M160 831q0 319 134 599.5t314 449t285 168.5q77 0 205 -61t256 -181.5t214.5 -307.5t86.5 -429q0 -184 -73 -394.5t-191 -398t-247.5 -301.5t-230.5 -114q-134 0 -315 152t-309.5 379.5t-128.5 438.5zM578 1589q-127 -160 -127 -327t85.5 -377t266.5 -363t446 -153
q70 132 70 299q0 221 -91.5 424t-260 338.5t-389.5 158.5z" />
    <glyph glyph-name="p" unicode="p" horiz-adv-x="1929" 
d="M602 295q3 -19 16 -139q37 -282 37 -656q0 -309 -68 -429t-190 -120q-82 0 -94 41v25q4 78 4 336q0 278 -20 545q-15 165 -37 387t-29.5 333t-7.5 246q0 337 141.5 606.5t329.5 421.5t299 152q96 0 222.5 -103t243 -282.5t192 -411.5t75.5 -481q0 -238 -74.5 -427
t-205.5 -294.5t-293 -105.5q-152 0 -306 105t-235 251zM717 1659q-95 -144 -133.5 -286.5t-38.5 -348.5q0 -241 85 -433.5t206.5 -297.5t220.5 -105q74 0 141 69t80 247v151q-11 154 -87.5 365t-200 388.5t-273.5 250.5z" />
    <glyph glyph-name="q" unicode="q" horiz-adv-x="1929" 
d="M1323 295q-79 -145 -234.5 -250.5t-306.5 -105.5q-162 0 -293 105.5t-205.5 294.5t-74.5 427q0 247 76 481t192 412.5t243 281.5t222 103q111 0 299 -152t329.5 -421.5t141.5 -606.5q0 -134 -7.5 -245.5t-29.5 -333.5t-37 -387q-20 -267 -20 -545q0 -258 4 -336v-25
q-12 -41 -94 -41q-121 0 -189.5 121.5t-68.5 427.5q0 374 37 656q13 120 16 139zM1208 1659q-113 -56 -213 -174t-174.5 -266.5t-119 -296t-54.5 -267.5v-151q14 -178 81 -247t140 -69q72 0 161.5 59t169.5 169.5t130.5 266t50.5 341.5q0 206 -37.5 348.5t-134.5 286.5z" />
    <glyph glyph-name="r" unicode="r" horiz-adv-x="1860" 
d="M594 1384l29 -553q14 -272 20 -516q5 -137 13 -212t8 -78q0 -15 -50 -25q-61 4 -233 4q-18 0 -58 -2t-61 -2q-54 0 -82 25.5t-28 113.5q4 114 9.5 147t18.5 230q2 95 2 208.5t2 156.5l41 1044q3 40 55.5 65t120.5 25q144 0 144 -73l8 -295q232 156 449.5 233.5
t377.5 77.5q37 0 95 -8q95 -20 153 -56.5t89 -81.5t53 -102t53 -137q37 -82 37 -139t-33 -74q-17 -8 -58 -8q-17 0 -67 6t-80 6q-81 -9 -176 -53q-48 -22 -100.5 -40.5t-59.5 -21.5l-37 90q54 47 54 111q0 39 -17 74q-47 110 -209 110q-157 0 -321.5 -84t-161.5 -166z" />
    <glyph glyph-name="s" unicode="s" horiz-adv-x="2384" 
d="M156 -369l-107 90q142 234 270.5 350t224 145.5t201.5 29.5q63 0 108 -9.5t123.5 -35t92.5 -29.5q122 -37 197 -37q194 0 283 153.5t89 334.5q0 136 -102.5 227.5t-282.5 91.5q-56 0 -192 -29q-278 -53 -447 -53q-174 0 -332.5 113.5t-158.5 378.5q0 244 150.5 377.5
t342 177t363.5 43.5q217 0 414.5 -67t319.5 -156t122 -142q0 -36 -178.5 -118.5t-251.5 -82.5q-14 0 -57 103q-48 122 -112 202t-187 80q-171 0 -270 -93t-99 -238q0 -154 117.5 -253.5t312.5 -99.5q67 0 270 45q38 10 106.5 29t113.5 28t92 9q285 0 402.5 -179.5
t117.5 -365.5q0 -141 -70.5 -309.5t-261 -296t-524.5 -127.5q-67 0 -174 19.5t-150 25.5q-85 12 -176 12q-211 0 -333 -59.5t-244 -173.5q-15 -13 -41 -37t-42.5 -38.5t-39.5 -35.5z" />
    <glyph glyph-name="t" unicode="t" horiz-adv-x="2499" 
d="M967 1860q-190 0 -326.5 -66.5t-136.5 -290.5q0 -90 49 -233l-213 -37q-55 210 -209 442q-98 154 -98 230q0 50 37.5 100.5t81.5 50.5q10 0 241 -37q164 -20 565 -20l33 311q12 113 21.5 337.5t40.5 308t127 83.5h311q98 0 98 -61q-1 -110 -18.5 -246t-55 -404
t-40.5 -329h532q63 0 133 6t105 6q37 0 59.5 -24t22.5 -62q0 -57 -70 -176q-107 -192 -189 -467l-176 16q29 93 29 209q0 147 -115 250t-348 103q-12 -346 -22.5 -712.5t-10.5 -496.5q0 -377 13 -512q39 -28 110 -28q108 0 197 75.5t86 223.5q-6 133 -82 172l16 94
q11 -1 52.5 -5.5t56.5 -6t59 -9.5q66 -8 185 -8q20 6 61 19.5t76 21.5t59 8q66 -18 66 -221q-31 -200 -145 -324.5t-388 -175.5q-97 -20 -286 -20q-168 0 -390 12q-104 5 -152.5 30t-68.5 92.5t-20 213.5q0 296 8.5 794t28.5 763z" />
    <glyph glyph-name="u" unicode="u" horiz-adv-x="2187" 
d="M1159 -33q-281 15 -431.5 83t-293.5 200q-134 126 -181.5 474.5t-47.5 745.5q0 84 2 178t2 97q0 86 40 123t193 37h234q44 0 61.5 -13t22 -47t6.5 -121q2 -51 3 -422.5t13.5 -617t48.5 -315.5q50 -95 149 -162.5t208 -67.5q21 0 69 8q153 37 263 185q36 53 36 360
q0 169 -12 477t-12 363q0 48 -10.5 130.5t-10.5 123.5q0 49 11.5 72.5t57.5 35t144 11.5h189q62 0 89 -23t35 -79t15 -201q4 -78 4 -271q0 -369 -24 -663q-12 -147 -26 -329.5t-25.5 -243t-34.5 -80t-74 -19.5q-21 0 -62 2t-61 2q-16 0 -74 -2t-114 -2q-23 4 -31.5 23
t-15 57t-7.5 43q-56 -45 -175 -98.5t-173 -53.5z" />
    <glyph glyph-name="v" unicode="v" horiz-adv-x="2052" 
d="M532 1905q81 0 99 -6.5t33 -43.5q37 -114 131 -696q101 -616 127 -872q8 -64 11.5 -95t8.5 -57h127q57 656 148 1024q194 795 638 795q197 0 197 -86q0 -79 -11 -100t-37.5 -43.5t-40 -69t-13.5 -156.5v-164h-103q-31 103 -155 103q-118 0 -192.5 -95t-104.5 -198.5
t-60 -255.5q-80 -474 -86 -606q-11 -218 -28 -263q-13 -24 -62 -24h-635q-52 0 -65 13t-13 65v90q-6 164 -45.5 427t-103.5 551.5t-133 487.5q-62 171 -62 234q0 32 33 49q8 0 46 -2t48 -2q17 0 147 -2t156 -2z" />
    <glyph glyph-name="w" unicode="w" horiz-adv-x="2830" 
d="M385 1905q94 0 147 4q39 0 50.5 -7t11.5 -42q0 -20 -8 -76t-8 -150q0 -839 507 -1319q164 148 299 402q-128 245 -164 482.5t-36 467.5q0 127 4 188q3 38 16 46t70 8q65 -4 192 -4q18 0 53 2t66 2q61 0 75.5 -13t14.5 -57q0 -34 -4 -105t-4 -112q0 -173 35.5 -401.5
t145.5 -472.5t315 -400q123 123 190.5 302.5t67.5 344.5q0 129 -25.5 232.5t-97.5 271.5q-29 65 -74 188.5t-45 147.5q0 44 40 57t148 13h82h230q38 0 51.5 -31t13.5 -125q-1 -13 -3 -73t-9 -165q-25 -297 -66.5 -505.5t-201.5 -496t-482 -587.5q-178 158 -292 300t-224 339
q-79 -167 -252 -363t-313 -276q-327 234 -509 523t-244 551t-62 487q0 196 29 368q6 41 21.5 49.5t60.5 8.5q36 -4 188 -4z" />
    <glyph glyph-name="x" unicode="x" horiz-adv-x="1925" 
d="M168 1905h266q24 0 57 6t46 6q28 0 53 -25q17 -19 82 -184q135 -344 237 -573q45 -103 74 -168q115 400 207 610t186 291.5t221 81.5q88 0 185.5 -45.5t97.5 -85.5q0 -60 -27 -89.5t-44 -67.5t-27 -187q0 -99 4 -168l-78 -50q-105 115 -213 115q-83 0 -144.5 -59
t-122 -196t-138.5 -372q74 -187 155 -364q116 -263 200.5 -440t127.5 -269q166 -338 254 -479q53 -79 53 -139q0 -58 -53 -58h-381q-64 0 -96.5 50.5t-75.5 154.5q-31 89 -144 320q-23 54 -80 177t-108 241q-83 188 -123 282q-126 -438 -222.5 -693t-166.5 -368
t-116.5 -138.5t-104.5 -25.5q-152 0 -152 95q0 40 90 176q145 197 315 574.5t238 650.5q-62 147 -122 278q-66 130 -115 250q-40 85 -86.5 184t-48.5 103q-42 88 -111 237q-39 85 -75 154t-44 86.5t-8 38.5q0 57 16 69.5t62 12.5z" />
    <glyph glyph-name="y" unicode="y" horiz-adv-x="2073" 
d="M659 1741q25 -121 99 -508q23 -115 61 -353t66.5 -445.5t32.5 -295.5h163q53 591 160 1020q46 193 107 355t193.5 299t338.5 137q193 0 193 -82q0 -26 -10 -53.5t-34 -73t-30 -58.5q-25 -65 -25 -184q0 -106 -8 -164l-94 -4q-32 107 -156 107q-103 0 -200.5 -110
t-167.5 -432t-70 -904q0 -374 13.5 -489t41 -238.5t27.5 -284.5q0 -94 -352 -94q-49 0 -61.5 23t-12.5 71q0 186 12 326.5t30 259t36 229.5q23 147 28 205h-237q-152 0 -243 -6t-97 -6q-27 0 -34 17t-7 69q-8 206 -50.5 508.5t-108 600t-140.5 500.5q-45 127 -45 181
q0 30 29.5 37.5t117.5 7.5q58 -4 181 -4h102q85 0 110.5 -27.5t40.5 -136.5z" />
    <glyph glyph-name="z" unicode="z" horiz-adv-x="2154" 
d="M827 1204h-241q-56 211 -172 389q-103 160 -103 226q0 106 127 106q116 0 219 -10t285 -10h696q45 0 70 4h61q135 0 211 -26.5t76 -104.5q0 -106 -180 -275q-75 -69 -147 -135t-185 -164q-478 -411 -679 -613t-201 -333q0 -57 53 -75.5t172 -18.5q180 8 254 8
q252 0 444.5 -27t339 -135.5t146.5 -328.5q0 -263 -240.5 -462.5t-529.5 -295.5l-58 106q124 86 189 184t85.5 173.5t20.5 113.5q0 307 -182 404.5t-383 103.5h-291q-238 -8 -348 -8q-149 0 -209.5 67t-60.5 191q0 90 54.5 147.5t203.5 184.5q217 182 453 345.5t512 344
t390.5 274t114.5 158.5q0 57 -86 57h-33q-12 -4 -37 -4h-348q-284 0 -406 -47.5t-122 -206.5q0 -137 65 -307z" />
    <glyph glyph-name="braceleft" unicode="{" horiz-adv-x="1360" 
d="M111 991q163 49 241 155.5t78 307.5v873q0 323 168 442q164 119 610 119v-95q-258 -90 -258 -487v-803q0 -155 -37 -254q-36 -98 -94 -147q-57 -49 -106 -66q-49 -20 -99 -37v-8q336 -86 336 -471v-778q0 -193 45 -332q41 -143 213 -209v-98q-340 0 -508 66
q-168 61 -217 192q-53 131 -53 397v746q0 225 -70 336q-69 106 -249 151z" />
    <glyph glyph-name="bar" unicode="|" horiz-adv-x="913" 
d="M233 2945h439v-2994h-439v2994z" />
    <glyph glyph-name="braceright" unicode="}" horiz-adv-x="1360" 
d="M1249 999q-180 -53 -250 -159q-69 -107 -69 -328v-745q0 -267 -49 -398q-54 -131 -222 -192q-167 -66 -507 -66v98q172 62 217 197q41 135 41 344v778q0 234 90 332t245 139v9q-40 12 -127 49q-90 37 -147 139q-61 102 -61 315v799q0 402 -258 492v94q446 0 614 -119
q164 -119 164 -442v-873q0 -200 78 -303q77 -106 241 -160z" />
    <glyph glyph-name="asciitilde" unicode="~" horiz-adv-x="2458" 
d="M257 1531q192 361 503 361q119 0 222 -37q98 -41 258 -119q155 -82 233 -107q74 -28 168 -28q176 0 360 299l152 -369q-123 -176 -242 -270q-118 -98 -270 -98q-160 0 -442.5 139t-450.5 139q-209 0 -344 -278z" />
    <glyph glyph-name="quotesinglbase" unicode="&#x201a;" horiz-adv-x="3191" 
d="M1655 172h368q137 0 222.5 39t85.5 190v488q0 36 -2 46t-2 52q-3 104 -34 142.5t-179 82.5q-263 82 -459 246v-1286zM1655 2458h475q81 0 225 28q102 25 119 25q61 0 98 -47t37 -117q0 -160 -13.5 -205.5t-45.5 -58.5t-53 -56t-35 -188q-14 -140 -33 -203t-94 -63
q-62 0 -84 37t-47 131q-66 240 -178 392.5t-371 152.5v-603q167 -145 421.5 -234t471.5 -89q52 0 168 8q160 0 205 -66t45 -200v-815q0 -130 -31 -193t-80 -78.5t-135 -15.5h-2040v172h340v2114q-259 0 -371 -152.5t-178 -392.5q-24 -91 -46 -129.5t-85 -38.5
q-75 0 -94 60.5t-33 205.5q-13 146 -34.5 188.5t-53 55.5t-45.5 61t-14 203q0 70 37 117t98 47q16 0 118 -25q143 -28 226 -28l479 -9l-4 246h-475v172h1450v-172h-340v-237z" />
    <glyph glyph-name="florin" unicode="&#x192;" horiz-adv-x="2789" 
d="M1995 139q4 41 4 135q0 110 -37.5 231.5t-159.5 228.5t-348 134q-8 -65 -8 -217q0 -323 12 -512h537zM1458 1860q0 -136 -2 -406t-2 -405q495 -11 795 -242q199 -154 261 -334t62 -313q0 -106 -53 -137t-180 -31q-18 0 -67 2t-72 2l-1029 4q-110 5 -156 22t-65.5 77.5
t-19.5 203.5q0 296 8.5 794t28.5 763q-190 0 -326.5 -66.5t-136.5 -290.5q0 -90 49 -233l-213 -37q-55 210 -209 442q-98 154 -98 230q0 50 37.5 100.5t81.5 50.5q10 0 241 -37q164 -20 565 -20l33 311q12 113 21.5 337.5t40.5 308t127 83.5h311q98 0 98 -61
q-1 -110 -18.5 -246t-55 -404t-40.5 -329h532q63 0 133 6t105 6q37 0 59.5 -24t22.5 -62q0 -57 -70 -176q-107 -192 -189 -467l-176 16q29 93 29 209q0 147 -115 250t-348 103z" />
    <glyph glyph-name="quotedblbase" unicode="&#x201e;" horiz-adv-x="1774" 
d="M283 -655l-78 86q254 225 254 393q0 123 -17 180q-114 0 -143 21q-33 20 -33 81q0 91 4 152q9 176 25 213t70 37h69q45 -4 70 -4q12 0 37 4h41q45 4 90 4h41q53 -6 53 -61q0 -19 -12 -258q-17 -574 -471 -848zM1036 -655l-78 86q254 225 254 393q0 123 -16 180
q-115 0 -143 21q-33 20 -33 81q0 91 4 152q8 176 24.5 213t69.5 37h70q45 -4 69 -4q13 0 37 4h41q45 4 90 4h41q54 -6 54 -61q0 -28 -13 -258q-16 -574 -471 -848z" />
    <glyph glyph-name="quoteleft" unicode="&#x2018;" horiz-adv-x="1020" 
d="M733 3027l78 -86q-254 -246 -254 -397q0 -123 16 -181q115 0 144 -20q33 -21 33 -82q0 -86 -5 -147q-4 -115 -12 -168.5t-24 -69.5q-21 -16 -58 -16h-69q-50 4 -70 4h-78q-16 0 -90 -9h-41q-53 9 -53 66q0 315 28.5 495.5t131.5 327.5q102 144 323 283z" />
    <glyph glyph-name="quoteright" unicode="&#x2019;" horiz-adv-x="1020" 
d="M283 1855l-78 87q254 244 254 397q0 123 -17 180q-113 0 -144.5 21.5t-31.5 80.5q0 86 4 148q4 115 13 169t26 69.5t56 15.5q25 0 71 -2t68 -2h78q16 0 90 8h41q53 -8 53 -66q0 -316 -29 -496.5t-131.5 -325t-322.5 -284.5z" />
    <glyph glyph-name="quotedblleft" unicode="&#x201c;" horiz-adv-x="1876" 
d="M733 3027l78 -86q-254 -246 -254 -397q0 -123 16 -181q115 0 144 -20q33 -21 33 -82q0 -86 -5 -147q-4 -115 -12 -168.5t-24 -69.5q-21 -16 -58 -16h-69q-50 4 -70 4h-78q-16 0 -90 -9h-41q-53 9 -53 66q0 315 28.5 495.5t131.5 327.5q102 144 323 283zM1552 3027l78 -86
q-254 -246 -254 -397q0 -123 17 -181q114 0 143 -20q33 -21 33 -82q0 -86 -4 -147q-4 -115 -13 -168q-8 -54 -24 -70q-21 -16 -58 -16h-69q-49 4 -70 4h-78q-16 0 -90 -9h-41q-53 9 -53 66q0 315 28.5 495.5t131.5 327.5q102 144 323 283z" />
    <glyph glyph-name="quotedblright" unicode="&#x201d;" horiz-adv-x="1876" 
d="M283 1855l-78 87q254 244 254 397q0 123 -17 180q-113 0 -144.5 21.5t-31.5 80.5q0 86 4 148q4 115 13 169t26 69.5t56 15.5q25 0 71 -2t68 -2h78q16 0 90 8h41q53 -8 53 -66q0 -316 -29 -496.5t-131.5 -325t-322.5 -284.5zM1102 1855l-78 87q254 244 254 397
q0 123 -16 180q-114 0 -145.5 21.5t-31.5 80.5q0 86 5 148q5 123 13 173t25 65.5t56 15.5q25 0 71 -2t68 -2h78q16 0 90 8h41q53 -8 53 -66q0 -316 -29 -496.5t-131.5 -325t-322.5 -284.5z" />
    <glyph glyph-name="bullet" unicode="&#x2022;" horiz-adv-x="2154" 
d="M623 995q0 133 66.5 237t171 161t216.5 57q111 0 216 -56.5t172 -161t67 -237.5q0 -130 -66 -233.5t-171 -160t-218 -56.5t-218 56.5t-170.5 160t-65.5 233.5z" />
    <glyph glyph-name="endash" unicode="&#x2014;" horiz-adv-x="4305" 
d="M389 991h3527v-225h-3527v225z" />
    <glyph glyph-name="trademark" unicode="&#x2122;" horiz-adv-x="4342" 
d="M2724 1249l-266 1250q-144 -225 -211.5 -408t-67.5 -379q0 -79 14.5 -214.5t18.5 -194.5v-123q-7 -38 -33 -50q-30 -12 -57 -12q-9 0 -26 2t-33 5.5t-27 4.5h-66h-78q-20 -4 -53 -4q-44 0 -65 35.5t-21 141.5q0 182 49 325t122.5 255.5t217.5 303.5q137 183 197.5 293.5
t60.5 222.5q0 20 -8 62h-180v102h704v-102h-139l311 -1442l275 1442h-111v102h664v-102h-160l328 -1516h172v-102h-660v102h107l-279 1295l-237 -1295h127v-102h-717v102h127zM598 2765q-102 0 -154 -62t-112 -299q-21 -74 -32.5 -98.5t-49.5 -24.5q-70 0 -70 115
q-7 115 -45 213q-12 34 -33.5 81.5t-31 73.5t-9.5 46q0 35 27 62.5t80 27.5q12 0 104.5 -18.5t227.5 -18.5q20 0 46 2t40 2h733q14 0 40 -2t46 -2q101 0 154.5 7t104.5 18.5t73 11.5q52 0 79 -27.5t27 -62.5q0 -20 -9.5 -46t-30.5 -73.5t-34 -81.5q-45 -122 -45 -213
q0 -115 -69 -115q-40 0 -51 25.5t-52 179.5q-50 182 -113 230.5t-190 48.5h-106v-1516h205v-102h-791v102h205v1516h-164z" />
    <glyph glyph-name="oe" unicode="&#x153;" horiz-adv-x="2249" 
d="M1126 2232q86 0 148 -61q61 -57 61 -143q0 -82 -61 -144q-62 -61 -148 -61q-82 0 -143 61q-57 62 -57 144q0 86 57 143q61 61 143 61zM33 1487h2187v-262h-2187v262zM1126 909q86 0 147.5 -61.5t61.5 -147.5t-61 -143q-62 -61 -148 -61t-143 61q-61 57 -61 143t57 148
q61 61 147 61z" />
    <glyph glyph-name="Ydieresis" unicode="&#x178;" horiz-adv-x="2089" 
d="M1368 1851l164 287h258l-246 -426q195 -154 302.5 -311t107.5 -381q0 -199 -82 -349.5t-183 -244.5t-419 -365q-106 -87 -144 -113t-77 -26q-35 0 -100 40t-236 169q-4 4 -22 19t-32 26l-143 -246h-254l221 381q-348 289 -348 660q0 305 190 531.5t453 410.5
q84 59 140 106q64 66 147 66q22 0 41.5 -12.5t49.5 -41t48 -44.5q72 -67 164 -136zM926 639q8 -4 20 -16q158 -135 207.5 -194.5t58.5 -137.5q145 49 267.5 162t142.5 235v98q-16 93 -102.5 196t-249.5 259zM1106 1401q-143 139 -187 189t-71 118q-115 -14 -206 -79
t-141 -158t-50 -185q0 -202 307 -495z" />
    <glyph glyph-name="sterling" unicode="&#xa3;" horiz-adv-x="2802" 
d="M532 1376h-274v238h238q-67 148 -181 262q-90 98 -90 246q0 196 156 327q160 136 401 201q246 53 500 53q238 0 430 -41q193 -49 320 -131q131 -69 196 -164q70 -98 70 -176q0 -61 -53 -61l-553 4q-54 0 -54 57q0 242 -102 324q-106 94 -233 94q-332 0 -345 -364
q0 -291 37 -353q124 -155 148 -278h303v-238h-287q4 -82 4 -196l4 -1008q260 3 417.5 6.5t249.5 33t150 114.5t101 260q4 16 4 123q0 131 -4 188q158 -39 401 -49q107 0 148 4q16 -49 16 -139q0 -119 -20 -201q-48 -217 -200 -331t-366.5 -149.5t-519.5 -35.5q-80 0 -241 2
t-242 2h-868v172h339v1204z" />
    <glyph glyph-name="sterling" unicode="&#x408;" horiz-adv-x="2802" 
d="M532 1376h-274v238h238q-67 148 -181 262q-90 98 -90 246q0 196 156 327q160 136 401 201q246 53 500 53q238 0 430 -41q193 -49 320 -131q131 -69 196 -164q70 -98 70 -176q0 -61 -53 -61l-553 4q-54 0 -54 57q0 242 -102 324q-106 94 -233 94q-332 0 -345 -364
q0 -291 37 -353q124 -155 148 -278h303v-238h-287q4 -82 4 -196l4 -1008q260 3 417.5 6.5t249.5 33t150 114.5t101 260q4 16 4 123q0 131 -4 188q158 -39 401 -49q107 0 148 4q16 -49 16 -139q0 -119 -20 -201q-48 -217 -200 -331t-366.5 -149.5t-519.5 -35.5q-80 0 -241 2
t-242 2h-868v172h339v1204z" />
    <glyph glyph-name="currency" unicode="&#xa4;" horiz-adv-x="2281" 
d="M328 2040l-226 241l193 193l225 -242q148 111 283 168q135 58 356 58q336 0 594 -226l221 242l201 -201l-221 -233q205 -258 205 -586q0 -229 -54 -360q-53 -131 -151 -263l221 -237l-201 -193l-221 230q-258 -205 -561 -205h-41q-344 0 -631 205l-217 -238l-201 205
l226 233q-201 234 -201 623q0 164 53 328q49 160 148 258zM1815 1454q-9 283 -197 488q-193 200 -500 200q-266 0 -459 -196q-196 -201 -196 -521q0 -315 213 -495q213 -185 450 -185h41q152 0 291 78q156 86 258 254q99 164 99 365v12z" />
    <glyph glyph-name="yen" unicode="&#xa5;" horiz-adv-x="3240" 
d="M1851 1622l-237 651q-203 -399 -561 -651h798zM1901 1409h-271v-1409h-409v1409h-308q-323 -342 -323 -631q8 -105 75.5 -152.5t157.5 -47.5l-217 -635q-190 0 -324.5 122.5t-134.5 368.5q0 227 108.5 501.5t290 540t392.5 466.5q206 199 308 340.5t102 289.5
q0 50 -13 123h-315v172h1274v-172h-324l959 -2523h282v-172h-1229v172h312z" />
    <glyph glyph-name="yen" unicode="&#x490;" horiz-adv-x="3240" 
d="M1851 1622l-237 651q-203 -399 -561 -651h798zM1901 1409h-271v-1409h-409v1409h-308q-323 -342 -323 -631q8 -105 75.5 -152.5t157.5 -47.5l-217 -635q-190 0 -324.5 122.5t-134.5 368.5q0 227 108.5 501.5t290 540t392.5 466.5q206 199 308 340.5t102 289.5
q0 50 -13 123h-315v172h1274v-172h-324l959 -2523h282v-172h-1229v172h312z" />
    <glyph glyph-name="section" unicode="&#xa7;" horiz-adv-x="2802" 
d="M872 1888q-143 59 -229 152q-90 98 -90 246q0 196 156 327q159 135 401 201q246 53 500 53q237 0 430 -41q192 -49 319 -131q131 -69 197 -164q70 -98 70 -176q0 -61 -54 -61l-553 4q-53 0 -53 57q0 242 -102 324q-107 94 -234 94q-332 0 -344 -365q-4 -32 -8 -81.5
t-4 -73.5q0 -119 49 -197q49 -69 135 -98q82 -33 205 -53q123 -17 201 -21q315 -37 499 -110q185 -82 250 -181q70 -90 70 -188q0 -111 -53 -234q-58 -118 -226 -208q-183 -103 -467 -103q136 -53 222 -143q90 -94 90 -242q0 -201 -156 -332q-160 -131 -401 -196
q-246 -58 -500 -58q-238 0 -430 45q-193 46 -320 127q-131 74 -196 172q-70 91 -70 173q0 61 53 61l553 -4q54 0 54 -57q0 -246 102 -328q106 -94 233 -94q332 0 345 364q4 37 8 86t4 70q0 123 -49 196q-49 70 -136 99q-81 41 -204 61q-123 12 -201 17q-315 32 -500 106
q-184 86 -250 180q-69 94 -69 189q0 118 53 233q57 123 225 209q168 94 475 94zM1962 1462q-37 79 -94.5 111t-166.5 56.5t-161 45.5q-54 24 -189 41t-192 17q-319 0 -319 -430q37 -82 98 -120t191 -67.5t133 -30.5q183 -57 380 -57q320 0 320 434z" />
    <glyph glyph-name="copyright" unicode="&#xa9;" horiz-adv-x="3281" 
d="M2167 1130l135 -106q-88 -187 -211.5 -351.5t-243 -259t-200.5 -94.5q-126 0 -294.5 186t-289.5 452t-121 489q0 232 118 479.5t279 414.5t267 167q42 0 211.5 -69.5t308.5 -157.5t139 -154q0 -39 -115 -160q-74 -77 -97.5 -112t-46 -74t-36.5 -39q-21 0 -86 90
q-84 110 -190 189t-293 118q-70 -143 -70 -356q0 -188 84.5 -389.5t225 -358t292.5 -215.5q94 93 176 225q42 67 58 86zM1659 -41q-731 13 -1131 467q-401 455 -401 1053q0 237 98 495q94 254 287 475q188 217 471 348.5t635 131.5q418 0 770 -213t557 -557
q201 -344 201 -709q-25 -717 -467 -1110q-430 -381 -1020 -381zM1638 217q263 8 525 127t446 397q184 275 201 709q0 307 -160 586q-164 278 -438 450q-275 168 -602 168q-459 0 -799 -336q-340 -334 -340 -884q8 -512 336 -865q322 -352 831 -352z" />
    <glyph glyph-name="ordfeminine" unicode="&#xaa;" horiz-adv-x="2040" 
d="M541 950h671q-113 392 -217 549q-352 -317 -454 -549zM1245 836h-164v-836h-262v811h-319q-17 -70 -17 -98q0 -98 60 -170t162 -72l-226 -516q-161 0 -259 86.5t-138.5 208t-40.5 237.5q0 144 77.5 304t197.5 298t237 222q369 269 369 348q0 50 -29 139q-12 41 -12 82
q0 25 82 25h417q41 0 50 -25q2 -21 3.5 -46.5t7 -59.5t17.5 -86q97 -392 201.5 -687.5t185.5 -471.5t154.5 -321t73.5 -171q0 -37 -82 -37h-418q-31 0 -45 66q-7 26 -49 140.5t-130.5 350.5t-103.5 279z" />
    <glyph glyph-name="ordfeminine" unicode="&#x404;" horiz-adv-x="2040" 
d="M541 950h671q-113 392 -217 549q-352 -317 -454 -549zM1245 836h-164v-836h-262v811h-319q-17 -70 -17 -98q0 -98 60 -170t162 -72l-226 -516q-161 0 -259 86.5t-138.5 208t-40.5 237.5q0 144 77.5 304t197.5 298t237 222q369 269 369 348q0 50 -29 139q-12 41 -12 82
q0 25 82 25h417q41 0 50 -25q2 -21 3.5 -46.5t7 -59.5t17.5 -86q97 -392 201.5 -687.5t185.5 -471.5t154.5 -321t73.5 -171q0 -37 -82 -37h-418q-31 0 -45 66q-7 26 -49 140.5t-130.5 350.5t-103.5 279z" />
    <glyph glyph-name="guillemotleft" unicode="&#xab;" horiz-adv-x="2048" 
d="M1819 16l-836 922l848 917h143l-471 -917l471 -922h-155zM918 16l-844 922l844 917h159l-479 -909l479 -930h-159z" />
    <glyph glyph-name="logicalnot" unicode="&#xac;" horiz-adv-x="4276" 
d="M2810 1311q-43 80 -114 166.5t-192 216.5t-182 198q-213 237 -264.5 295t-93 120t-63.5 130q-147 -20 -259.5 -112.5t-174.5 -225.5t-62 -264q0 -228 233 -524h1172zM2867 1139h-1085q131 -140 241 -250q200 -197 260 -279t72 -192q178 68 332 228.5t180 336.5v156z
M1028 1139q-264 0 -411.5 -166.5t-206.5 -378.5q-24 -91 -46 -129.5t-85 -38.5q-75 0 -94 60.5t-33 205.5q-13 148 -34 189t-53.5 54t-46.5 61.5t-14 203.5q0 70 37 117t98 47q17 0 119 -25q143 -28 225 -28l525 -8q0 233 81 449t206 398t243.5 309t271.5 273
q86 82 196.5 164t164.5 82q26 0 50 -16.5t59 -55t63 -67.5q136 -140 389 -361q264 -230 406.5 -459t142.5 -565q0 -53 -8 -143h520q81 0 225 28q102 25 119 25q61 0 98 -47t37 -117q0 -160 -13.5 -205.5t-46 -59t-52.5 -54.5t-35 -189q-14 -140 -33 -203t-94 -63
q-62 0 -84 37t-47 131q-27 98 -114.5 211t-222 203t-290.5 118q-37 -140 -113 -268.5t-176 -242.5t-221 -231t-305 -294q-116 -116 -171.5 -158.5t-103.5 -42.5q-42 0 -119.5 55.5t-297.5 243.5q-212 180 -329 292.5t-225.5 282t-150.5 376.5z" />
    <glyph glyph-name="softhyphen" unicode="&#xad;" horiz-adv-x="2859" 
d="M1065 930q93 -237 277 -399t456 -162q70 135 70 299q0 120 -33 262h-770zM1790 1069q-93 214 -265.5 355.5t-398.5 164.5q-58 -74 -92.5 -165.5t-34.5 -161.5q0 -77 25 -193h766zM709 901q-142 -40 -188 -127.5t-46 -204.5q0 -86 49 -233l-213 -37q-81 257 -237 487
q-70 106 -70 185q0 59 37.5 105t81.5 46q31 0 108 -13t134 -19q165 -21 364 -21q46 268 179 492t287.5 355.5t246.5 131.5q77 0 205 -61t256 -181.5t214.5 -307.5t86.5 -429q211 8 290 21q55 6 133 19t109 13q44 0 81.5 -45t37.5 -106q0 -79 -70 -185q-156 -230 -237 -487
l-213 37q49 147 49 233q0 243 -197 320q-43 -234 -169 -474.5t-281 -397t-275 -156.5q-134 0 -314.5 169t-309.5 414.5t-129 456.5z" />
    <glyph glyph-name="registered" unicode="&#xae;" horiz-adv-x="3281" 
d="M967 2187h921q174 0 245 -29.5t71 -154.5q0 -166 -148 -302.5t-463 -176.5v-33q257 -10 442.5 -170t196.5 -481h95v-86h-529v86h78v45q0 312 -122.5 446.5t-299.5 134.5v-626h98v-86h-585v86h168v1261h-168v86zM1454 1618q169 3 279 112t110 248q0 123 -155 123h-234
v-483zM1618 -41q-692 12 -1090 467q-401 455 -401 1053q0 237 98 495q94 254 287 475q188 217 471 348.5t635 131.5q418 0 770 -213t557 -557q201 -344 201 -709q0 -235 -54.5 -439t-160 -372t-252.5 -299q-210 -187 -486 -284t-575 -97zM1630 217q260 6 533 127
q262 119 446 397q86 129 140 333.5t61 375.5q0 309 -160 586q-164 278 -438 450q-275 168 -602 168q-459 0 -799 -336q-340 -334 -340 -884q8 -512 336 -865q319 -352 823 -352z" />
    <glyph glyph-name="macron" unicode="&#xaf;" 
d="M74 2867h3027v-278h-3027v278z" />
    <glyph glyph-name="macron" unicode="&#x407;" 
d="M74 2867h3027v-278h-3027v278z" />
    <glyph glyph-name="degree" unicode="&#xb0;" horiz-adv-x="1245" 
d="M94 2298q0 193 82 360t189.5 268t171.5 101q66 0 175.5 -67t194 -199.5t84.5 -319.5q0 -148 -74.5 -319t-180 -288.5t-187.5 -117.5t-191.5 91.5t-186.5 227t-77 263.5zM348 2753q-78 -99 -78 -197q0 -101 51.5 -227.5t159.5 -218t269 -91.5q41 79 41 181
q0 128 -54 251.5t-154.5 205t-234.5 96.5z" />
    <glyph glyph-name="plusminus" unicode="&#xb1;" horiz-adv-x="2945" 
d="M1921 0h-344q-122 -74 -156 -74q-141 0 -237 74h-160q-172 0 -263 -41.5t-144 -147t-109 -327.5q-47 -183 -70 -237t-90 -54q-74 0 -94.5 55t-20.5 138q0 217 -139 499q-61 129 -61 185q0 67 48 109t132 42q31 0 85 -12.5t103 -20.5q180 -16 205 -16h369
q-293 277 -433.5 566t-140.5 589q0 287 102.5 583.5t265 545t332 393.5t292.5 145t298 -96.5t343 -273.5t277.5 -422.5t109.5 -530.5q0 -317 -144.5 -709.5t-511.5 -789.5h574q97 0 139.5 6t73.5 18.5t65.5 18.5t114.5 6q87 0 133.5 -42.5t46.5 -108.5q0 -122 -21 -180
t-67.5 -126t-73.5 -146.5t-34 -231.5q-6 -89 -24.5 -141t-94.5 -52q-49 0 -69 26t-38 85q-88 339 -136.5 463.5t-140.5 178.5t-292 54zM971 2408q-80 -94 -120 -229t-40 -266q0 -303 128.5 -605.5t338.5 -496t438 -193.5q55 0 115 13q70 198 70 397q0 232 -54 471.5
t-169.5 449t-292.5 334.5t-414 125z" />
    <glyph glyph-name="acute" unicode="&#xb4;" horiz-adv-x="2748" 
d="M1720 139h353q149 0 264 6.5t215 6.5q95 0 145.5 -17t50.5 -78q0 -91 -118 -250q-103 -145 -159 -244t-161 -333l-213 29q115 275 115 422q0 114 -62 216.5t-241 102.5h-324q-128 -139 -221 -139q-149 0 -295 139h-258q-93 0 -181.5 -77t-88.5 -238q0 -150 110 -422
l-213 -29q-147 351 -332 594q-106 162 -106 238q0 86 197 86q39 0 85.5 -2.5t73.5 -2.5q100 -8 156 -8h401q-180 174 -251.5 371t-71.5 367q0 272 131 545t312.5 449.5t305.5 176.5q65 0 193.5 -62t265 -183.5t230.5 -308t94 -425.5q0 -165 -89 -423t-313 -507zM1032 1589
q-102 -138 -102 -327q0 -217 94.5 -434.5t271.5 -356.5t404 -139q45 172 45 311q0 221 -87 430.5t-249.5 351t-376.5 164.5z" />
    <glyph glyph-name="acute" unicode="&#x491;" horiz-adv-x="2748" 
d="M1720 139h353q149 0 264 6.5t215 6.5q95 0 145.5 -17t50.5 -78q0 -91 -118 -250q-103 -145 -159 -244t-161 -333l-213 29q115 275 115 422q0 114 -62 216.5t-241 102.5h-324q-128 -139 -221 -139q-149 0 -295 139h-258q-93 0 -181.5 -77t-88.5 -238q0 -150 110 -422
l-213 -29q-147 351 -332 594q-106 162 -106 238q0 86 197 86q39 0 85.5 -2.5t73.5 -2.5q100 -8 156 -8h401q-180 174 -251.5 371t-71.5 367q0 272 131 545t312.5 449.5t305.5 176.5q65 0 193.5 -62t265 -183.5t230.5 -308t94 -425.5q0 -165 -89 -423t-313 -507zM1032 1589
q-102 -138 -102 -327q0 -217 94.5 -434.5t271.5 -356.5t404 -139q45 172 45 311q0 221 -87 430.5t-249.5 351t-376.5 164.5z" />
    <glyph glyph-name="mu" unicode="&#xb5;" horiz-adv-x="2359" 
d="M303 1872h557v-1389q0 -159 45 -213q41 -53 123 -53q180 0 332 242v1413h553v-1254v-106q4 -160 45 -213q37 -53 94 -53q45 0 82 49q53 70 70 237h86q-9 -278 -156 -434q-147 -155 -360 -155q-144 0 -246 77q-103 74 -156 238q-147 -168 -287 -242q-139 -73 -294 -73
q-78 0 -140 24q-57 21 -155 90q0 -123 12 -192q8 -74 57 -242q45 -172 45 -241q0 -123 -65.5 -193t-171.5 -70q-99 0 -156 62q-57 57 -57 172q0 86 45 274q65 250 82 398q16 143 16 491v1356z" />
    <glyph glyph-name="paragraph" unicode="&#xb6;" horiz-adv-x="2441" 
d="M1413 2560v-3445h-201v1741q-372 16 -602 127q-229 107 -352 328t-123 495q0 205 53 336q50 135 160 254q107 123 221 189q115 65 262 90q193 37 644 37h880v-86h-90q-119 0 -176 -37q-61 -37 -90 -107q-25 -49 -25 -262v-3105h-196v3445h-365z" />
    <glyph glyph-name="periodcentered" unicode="&#x2219;" horiz-adv-x="942" 
d="M471 1692q139 0 238 -99q98 -98 98 -237t-98 -238q-99 -98 -238 -98t-238 98q-98 99 -98 238t98 237q99 99 238 99z" />
    <glyph glyph-name="ordmasculine" unicode="&#xba;" horiz-adv-x="4469" 
d="M2228 852q6 -120 78.5 -197t155.5 -77q155 0 292 183t228 430.5t115 430.5l-185 651q-230 -318 -393 -618q-49 -86 -94 -164t-92 -183.5t-76 -219.5t-29 -236zM2245 1638q28 48 113 175.5t120 193.5q41 79 121 207t120.5 203.5t61.5 154.5q0 55 -12 123h-315v172h1273
v-172h-323l753 -2523h283v-172h-1229v172h312l-308 1061q-42 -204 -134.5 -433.5t-222 -425t-287 -313.5t-326.5 -118q-191 0 -325 122t-134 369q0 404 360 1032h-1016v-1294h340v-172h-1314v172h340v2523h-340v172h1314v-172h-340v-1057h1115z" />
    <glyph glyph-name="ordmasculine" unicode="&#x454;" horiz-adv-x="4469" 
d="M2228 852q6 -120 78.5 -197t155.5 -77q155 0 292 183t228 430.5t115 430.5l-185 651q-230 -318 -393 -618q-49 -86 -94 -164t-92 -183.5t-76 -219.5t-29 -236zM2245 1638q28 48 113 175.5t120 193.5q41 79 121 207t120.5 203.5t61.5 154.5q0 55 -12 123h-315v172h1273
v-172h-323l753 -2523h283v-172h-1229v172h312l-308 1061q-42 -204 -134.5 -433.5t-222 -425t-287 -313.5t-326.5 -118q-191 0 -325 122t-134 369q0 404 360 1032h-1016v-1294h340v-172h-1314v172h340v2523h-340v172h1314v-172h-340v-1057h1115z" />
    <glyph glyph-name="guillemotright" unicode="&#xbb;" horiz-adv-x="2048" 
d="M229 1855l836 -921l-844 -918h-143l467 918l-467 921h151zM1130 1855l848 -921l-848 -918h-155l475 906l-475 933h155z" />
    <glyph glyph-name="onequarter" unicode="&#xbc;" horiz-adv-x="2941" 
d="M2011 1102q-27 145 -115 397q-237 -257 -323 -451.5t-86 -297.5q0 -105 59.5 -192t182.5 -87q160 0 254 111t94 221q0 36 -26 131.5t-40 167.5zM1229 909h-524q0 -222 28.5 -455t28.5 -335q0 -71 -33 -95t-184 -24h-193q-51 0 -78 36t-41.5 145t-19 311t-4.5 598
q0 369 11 539t39.5 225t92.5 55q20 0 61 -2t62 -2q17 0 93 4t137 4q53 -12 53 -70q0 -70 -16.5 -172.5t-26.5 -219.5t-10 -374h651q56 84 221 275q55 64 125.5 136.5t95.5 105.5t25 65q0 50 -29 139q-12 41 -12 82q0 25 82 25h417q41 0 50 -25q2 -21 3.5 -46.5t7 -59.5
t17.5 -86q100 -404 180.5 -675t159 -501t115.5 -337.5t37 -137.5q0 -37 -82 -37h-418q-31 0 -45 66q-66 286 -156 552q-202 -663 -647 -663q-161 0 -259 86.5t-138.5 208t-40.5 237.5q0 192 164 422z" />
    <glyph glyph-name="onequarter" unicode="&#x458;" horiz-adv-x="2941" 
d="M2011 1102q-27 145 -115 397q-237 -257 -323 -451.5t-86 -297.5q0 -105 59.5 -192t182.5 -87q160 0 254 111t94 221q0 36 -26 131.5t-40 167.5zM1229 909h-524q0 -222 28.5 -455t28.5 -335q0 -71 -33 -95t-184 -24h-193q-51 0 -78 36t-41.5 145t-19 311t-4.5 598
q0 369 11 539t39.5 225t92.5 55q20 0 61 -2t62 -2q17 0 93 4t137 4q53 -12 53 -70q0 -70 -16.5 -172.5t-26.5 -219.5t-10 -374h651q56 84 221 275q55 64 125.5 136.5t95.5 105.5t25 65q0 50 -29 139q-12 41 -12 82q0 25 82 25h417q41 0 50 -25q2 -21 3.5 -46.5t7 -59.5
t17.5 -86q100 -404 180.5 -675t159 -501t115.5 -337.5t37 -137.5q0 -37 -82 -37h-418q-31 0 -45 66q-66 286 -156 552q-202 -663 -647 -663q-161 0 -259 86.5t-138.5 208t-40.5 237.5q0 192 164 422z" />
    <glyph glyph-name="onehalf" unicode="&#xbd;" horiz-adv-x="3113" 
d="M1253 831h-331q-50 0 -62 25q-15 40 -29 262q-7 154 -86 606q-40 221 -113.5 385t-242.5 164q-123 0 -156 -102h-102v164q0 116 -13 160t-40.5 67.5t-38 45t-10.5 95.5q0 86 196 86q445 0 639 -794q91 -370 148 -1024h241v1724h-340v172h1315v-172h-340v-1724h213
q57 654 148 1024q194 794 639 794q196 0 196 -86q0 -78 -11 -99t-37.5 -43.5t-40 -69t-13.5 -156.5v-164h-103q-15 48 -58 75t-97 27q-118 0 -193 -95.5t-105 -200t-59 -253.5q-79 -465 -86 -606q-11 -217 -28 -262q-12 -25 -62 -25h-303v-659h340v-172h-1315v172h340v659z
" />
    <glyph glyph-name="onehalf" unicode="&#x405;" horiz-adv-x="3113" 
d="M1253 831h-331q-50 0 -62 25q-15 40 -29 262q-7 154 -86 606q-40 221 -113.5 385t-242.5 164q-123 0 -156 -102h-102v164q0 116 -13 160t-40.5 67.5t-38 45t-10.5 95.5q0 86 196 86q445 0 639 -794q91 -370 148 -1024h241v1724h-340v172h1315v-172h-340v-1724h213
q57 654 148 1024q194 794 639 794q196 0 196 -86q0 -78 -11 -99t-37.5 -43.5t-40 -69t-13.5 -156.5v-164h-103q-15 48 -58 75t-97 27q-118 0 -193 -95.5t-105 -200t-59 -253.5q-79 -465 -86 -606q-11 -217 -28 -262q-12 -25 -62 -25h-303v-659h340v-172h-1315v172h340v659z
" />
    <glyph glyph-name="threequarters" unicode="&#xbe;" horiz-adv-x="2564" 
d="M1327 135h152q55 651 147 1024q194 795 639 795q197 0 197 -86q0 -79 -11 -100t-38 -43.5t-40.5 -69t-13.5 -156.5v-164h-102q-33 103 -156 103q-118 0 -192 -95t-104 -198.5t-60 -255.5q-79 -455 -86 -606q-11 -217 -29 -263q-12 -24 -61 -24h-258q0 -1200 8 -1307
q-133 6 -173 87.5t-44 248.5q-1 44 -17 435t-16 536h-545q-52 0 -65 13t-13 65v90q-6 164 -45.5 427t-103.5 551.5t-133 487.5q-62 171 -62 234q0 32 33 49q8 0 46 -2t48 -2q17 0 147 -2t156 -2q81 0 99 -6.5t33 -43.5q37 -114 131 -696q101 -616 127 -872q8 -64 11.5 -95
t8.5 -57h127q-1 106 -1 218t2.5 403t2.5 403q7 639 -16 971q-9 132 -37.5 267.5t-28.5 158.5q0 34 23.5 45.5t91.5 11.5h352q131 0 131 -61q-86 -201 -180 -1012q-86 -751 -86 -1204q0 -135 4 -201z" />
    <glyph glyph-name="threequarters" unicode="&#x455;" horiz-adv-x="2564" 
d="M1327 135h152q55 651 147 1024q194 795 639 795q197 0 197 -86q0 -79 -11 -100t-38 -43.5t-40.5 -69t-13.5 -156.5v-164h-102q-33 103 -156 103q-118 0 -192 -95t-104 -198.5t-60 -255.5q-79 -455 -86 -606q-11 -217 -29 -263q-12 -24 -61 -24h-258q0 -1200 8 -1307
q-133 6 -173 87.5t-44 248.5q-1 44 -17 435t-16 536h-545q-52 0 -65 13t-13 65v90q-6 164 -45.5 427t-103.5 551.5t-133 487.5q-62 171 -62 234q0 32 33 49q8 0 46 -2t48 -2q17 0 147 -2t156 -2q81 0 99 -6.5t33 -43.5q37 -114 131 -696q101 -616 127 -872q8 -64 11.5 -95
t8.5 -57h127q-1 106 -1 218t2.5 403t2.5 403q7 639 -16 971q-9 132 -37.5 267.5t-28.5 158.5q0 34 23.5 45.5t91.5 11.5h352q131 0 131 -61q-86 -201 -180 -1012q-86 -751 -86 -1204q0 -135 4 -201z" />
    <glyph glyph-name="questiondown" unicode="&#xbf;" horiz-adv-x="1364" 
d="M1290 2806l-663 -697h-172l233 697h602z" />
    <glyph glyph-name="questiondown" unicode="&#x457;" horiz-adv-x="1364" 
d="M1290 2806l-663 -697h-172l233 697h602z" />
    <glyph glyph-name="Aacute" unicode="&#xc1;" horiz-adv-x="2613" 
d="M160 2867h1462q195 0 252 9t62 26.5t50.5 26t237.5 8.5q64 0 99.5 -44t35.5 -116q0 -25 -10.5 -58.5t-32.5 -85t-35 -89.5q-55 -147 -69 -295q-14 -145 -33 -206t-94 -61q-62 0 -84 38t-47 134q-64 236 -153 354.5t-185.5 152.5t-222.5 34h-103h-155v-1028
q135 -129 402 -226.5t486 -97.5q40 0 168 9q147 0 205 -50t58 -217v-798q0 -110 -14.5 -167t-69.5 -88.5t-175 -31.5h-2035v172h340v2523h-340v172zM1135 172h503q102 0 141.5 52t39.5 222v463q0 92 -27.5 134t-149.5 108q-215 118 -311.5 183t-195.5 177v-1339z" />
    <glyph glyph-name="Aacute" unicode="&#x411;" horiz-adv-x="2613" 
d="M160 2867h1462q195 0 252 9t62 26.5t50.5 26t237.5 8.5q64 0 99.5 -44t35.5 -116q0 -25 -10.5 -58.5t-32.5 -85t-35 -89.5q-55 -147 -69 -295q-14 -145 -33 -206t-94 -61q-62 0 -84 38t-47 134q-64 236 -153 354.5t-185.5 152.5t-222.5 34h-103h-155v-1028
q135 -129 402 -226.5t486 -97.5q40 0 168 9q147 0 205 -50t58 -217v-798q0 -110 -14.5 -167t-69.5 -88.5t-175 -31.5h-2035v172h340v2523h-340v172zM1135 172h503q102 0 141.5 52t39.5 222v463q0 92 -27.5 134t-149.5 108q-215 118 -311.5 183t-195.5 177v-1339z" />
    <glyph glyph-name="Atilde" unicode="&#xc3;" horiz-adv-x="2470" 
d="M160 2867h1540q205 0 442 33q50 7 94 16t66 9q135 0 135 -160q0 -38 -34.5 -123.5t-43.5 -110.5q-55 -147 -69 -282q-14 -140 -33 -203.5t-94 -63.5q-62 0 -84 38t-47 134q-63 234 -153 353.5t-186 153.5t-223 34h-102h-233v-2523h340v-172h-1315v172h340v2523h-340v172z
" />
    <glyph glyph-name="Atilde" unicode="&#x413;" horiz-adv-x="2470" 
d="M160 2867h1540q205 0 442 33q50 7 94 16t66 9q135 0 135 -160q0 -38 -34.5 -123.5t-43.5 -110.5q-55 -147 -69 -282q-14 -140 -33 -203.5t-94 -63.5q-62 0 -84 38t-47 134q-63 234 -153 353.5t-186 153.5t-223 34h-102h-233v-2523h340v-172h-1315v172h340v2523h-340v172z
" />
    <glyph glyph-name="Adieresis" unicode="&#xc4;" horiz-adv-x="2834" 
d="M2138 2867v-172h-229q21 -212 87.5 -623.5t160.5 -863.5t183.5 -742t153.5 -290q22 0 61 24.5t128 24.5q58 0 88.5 -43t30.5 -96q0 -38 -54 -172q-53 -136 -86 -303q-35 -206 -56.5 -273t-98.5 -67q-69 0 -93 50.5t-34 129.5q-54 361 -233 455t-464 94h-417
q-300 0 -449.5 -38.5t-219.5 -132.5t-118 -284q-40 -151 -66 -212.5t-98 -61.5q-65 0 -85 52t-33 140q-36 301 -123 492q-41 99 -41 151q0 63 50 91t110 28q32 0 78 -8t69 -8q87 0 108.5 69t43.5 234q32 256 116.5 511t191.5 476t224 418q106 179 165.5 316.5t59.5 277.5
q0 184 -241 184h-222v172h1352zM1065 172h713q-31 113 -47 176t-35 131q-170 623 -299 1319q-14 89 -41 225q-137 -174 -253.5 -396t-202.5 -450.5t-132.5 -425.5t-46.5 -313q0 -114 33.5 -170.5t105 -76t205.5 -19.5z" />
    <glyph glyph-name="Adieresis" unicode="&#x414;" horiz-adv-x="2834" 
d="M2138 2867v-172h-229q21 -212 87.5 -623.5t160.5 -863.5t183.5 -742t153.5 -290q22 0 61 24.5t128 24.5q58 0 88.5 -43t30.5 -96q0 -38 -54 -172q-53 -136 -86 -303q-35 -206 -56.5 -273t-98.5 -67q-69 0 -93 50.5t-34 129.5q-54 361 -233 455t-464 94h-417
q-300 0 -449.5 -38.5t-219.5 -132.5t-118 -284q-40 -151 -66 -212.5t-98 -61.5q-65 0 -85 52t-33 140q-36 301 -123 492q-41 99 -41 151q0 63 50 91t110 28q32 0 78 -8t69 -8q87 0 108.5 69t43.5 234q32 256 116.5 511t191.5 476t224 418q106 179 165.5 316.5t59.5 277.5
q0 184 -241 184h-222v172h1352zM1065 172h713q-31 113 -47 176t-35 131q-170 623 -299 1319q-14 89 -41 225q-137 -174 -253.5 -396t-202.5 -450.5t-132.5 -425.5t-46.5 -313q0 -114 33.5 -170.5t105 -76t205.5 -19.5z" />
    <glyph glyph-name="AE" unicode="&#xc6;" horiz-adv-x="4076" 
d="M1495 2867h1085v-172h-225v-1073h29q189 374 262 532q132 271 210.5 407t217.5 250t330 114q196 0 356 -74q-8 -41 -37 -111q-42 -99 -51.5 -140t-17.5 -187q-2 -27 -4 -61.5t-5 -61.5h-81q-69 24 -132 53q-108 49 -217 49q-103 0 -196.5 -71.5t-205.5 -252.5t-265 -512
q258 -38 517.5 -163t454.5 -424t195 -797h250v-172h-1163v172h192q0 457 -92 735.5t-235.5 402t-311.5 140.5v-1278h209v-172h-1053v172h209v1278q-170 -17 -313 -140.5t-234.5 -403t-91.5 -734.5h193v-172h-1163v172h249q0 715 365 1017.5t803 366.5q-153 331 -266 512.5
t-205.5 252.5t-196.5 71q-109 0 -217 -49q-58 -27 -131 -53h-82q-2 27 -4 61.5t-4 61.5q-8 146 -19 191t-51 136q-29 74 -37 111q160 74 357 74q191 0 330 -114t217.5 -250t210.5 -407q62 -136 262 -532h28v1073h-225v172z" />
    <glyph glyph-name="AE" unicode="&#x416;" horiz-adv-x="4076" 
d="M1495 2867h1085v-172h-225v-1073h29q189 374 262 532q132 271 210.5 407t217.5 250t330 114q196 0 356 -74q-8 -41 -37 -111q-42 -99 -51.5 -140t-17.5 -187q-2 -27 -4 -61.5t-5 -61.5h-81q-69 24 -132 53q-108 49 -217 49q-103 0 -196.5 -71.5t-205.5 -252.5t-265 -512
q258 -38 517.5 -163t454.5 -424t195 -797h250v-172h-1163v172h192q0 457 -92 735.5t-235.5 402t-311.5 140.5v-1278h209v-172h-1053v172h209v1278q-170 -17 -313 -140.5t-234.5 -403t-91.5 -734.5h193v-172h-1163v172h249q0 715 365 1017.5t803 366.5q-153 331 -266 512.5
t-205.5 252.5t-196.5 71q-109 0 -217 -49q-58 -27 -131 -53h-82q-2 27 -4 61.5t-4 61.5q-8 146 -19 191t-51 136q-29 74 -37 111q160 74 357 74q191 0 330 -114t217.5 -250t210.5 -407q62 -136 262 -532h28v1073h-225v172z" />
    <glyph glyph-name="Ccedilla" unicode="&#xc7;" horiz-adv-x="2601" 
d="M889 1311l-8 237q49 -4 131 -4q251 0 383.5 54.5t179 162t51.5 295.5v135q-4 248 -72.5 405t-283.5 157q-163 0 -288.5 -100.5t-125.5 -346.5q0 -44 8 -94t8 -66q0 -34 -13 -40.5t-98 -6.5t-217 -9t-323 -38h-49q-8 12 -8 82q0 313 193 490t448 239t489 62
q282 0 524.5 -90.5t385.5 -260.5t143 -395q0 -232 -119 -373.5t-247.5 -198.5t-321.5 -116q-12 -4 -20 -6.5t-17 -5.5v-74q74 -8 229 -53q243 -73 416.5 -218.5t173.5 -469.5q0 -235 -112 -415t-299.5 -278t-403.5 -98q-114 0 -229 25q-184 36 -370.5 91.5t-240.5 55.5
q-163 0 -163 -254q0 -37 8 -84t8 -59q0 -58 -41 -58q-35 0 -94 9q-49 8 -152 8q-62 0 -111 -29t-69 -29q-119 0 -119 283q0 232 127.5 372t294.5 140q72 0 150.5 -21.5t209.5 -69t189 -65.5q254 -77 369 -77q192 0 253 151t74 402v229q-20 210 -147.5 314t-327.5 104h-356z
" />
    <glyph glyph-name="Ccedilla" unicode="&#x417;" horiz-adv-x="2601" 
d="M889 1311l-8 237q49 -4 131 -4q251 0 383.5 54.5t179 162t51.5 295.5v135q-4 248 -72.5 405t-283.5 157q-163 0 -288.5 -100.5t-125.5 -346.5q0 -44 8 -94t8 -66q0 -34 -13 -40.5t-98 -6.5t-217 -9t-323 -38h-49q-8 12 -8 82q0 313 193 490t448 239t489 62
q282 0 524.5 -90.5t385.5 -260.5t143 -395q0 -232 -119 -373.5t-247.5 -198.5t-321.5 -116q-12 -4 -20 -6.5t-17 -5.5v-74q74 -8 229 -53q243 -73 416.5 -218.5t173.5 -469.5q0 -235 -112 -415t-299.5 -278t-403.5 -98q-114 0 -229 25q-184 36 -370.5 91.5t-240.5 55.5
q-163 0 -163 -254q0 -37 8 -84t8 -59q0 -58 -41 -58q-35 0 -94 9q-49 8 -152 8q-62 0 -111 -29t-69 -29q-119 0 -119 283q0 232 127.5 372t294.5 140q72 0 150.5 -21.5t209.5 -69t189 -65.5q254 -77 369 -77q192 0 253 151t74 402v229q-20 210 -147.5 314t-327.5 104h-356z
" />
    <glyph glyph-name="Egrave" unicode="&#xc8;" 
d="M2040 1987l-905 -1106v-709h282v-172h-1257v172h340v2523h-340v172h1257v-172h-282v-1544l905 1110v434h-283v172h1258v-172h-340v-2523h340v-172h-1258v172h283v1815z" />
    <glyph glyph-name="Egrave" unicode="&#x418;" 
d="M2040 1987l-905 -1106v-709h282v-172h-1257v172h340v2523h-340v172h1257v-172h-282v-1544l905 1110v434h-283v172h1258v-172h-340v-2523h340v-172h-1258v172h283v1815z" />
    <glyph glyph-name="Edieresis" unicode="&#xcb;" horiz-adv-x="2720" 
d="M1458 172h266q-105 318 -186.5 648.5t-133.5 587t-97 501.5q-39 217 -70 340q-110 -128 -233 -369q-316 -588 -316 -987q0 -190 13.5 -276.5t35 -110t54.5 -23.5h16h8q48 0 73 -80t25 -346q0 -59 -57 -86q-39 -16 -90 -16q-49 0 -139 16q-37 4 -111 4q-86 0 -131 -4
q-116 0 -166.5 28t-58.5 116v143q8 150 40.5 298t112 343.5t232.5 493.5q112 217 189 366.5t81 157.5q124 226 207.5 398t83.5 278q0 67 -35 84.5t-104 17.5h-283v172h1352v-172h-250q67 -501 206.5 -1117.5t293.5 -1122.5q42 -134 77 -283h299v-172h-1204v172z" />
    <glyph glyph-name="Edieresis" unicode="&#x41b;" horiz-adv-x="2720" 
d="M1458 172h266q-105 318 -186.5 648.5t-133.5 587t-97 501.5q-39 217 -70 340q-110 -128 -233 -369q-316 -588 -316 -987q0 -190 13.5 -276.5t35 -110t54.5 -23.5h16h8q48 0 73 -80t25 -346q0 -59 -57 -86q-39 -16 -90 -16q-49 0 -139 16q-37 4 -111 4q-86 0 -131 -4
q-116 0 -166.5 28t-58.5 116v143q8 150 40.5 298t112 343.5t232.5 493.5q112 217 189 366.5t81 157.5q124 226 207.5 398t83.5 278q0 67 -35 84.5t-104 17.5h-283v172h1352v-172h-250q67 -501 206.5 -1117.5t293.5 -1122.5q42 -134 77 -283h299v-172h-1204v172z" />
    <glyph glyph-name="Idieresis" unicode="&#xcf;" 
d="M1135 2695v-2523h282v-172h-1257v172h340v2523h-340v172h2855v-172h-340v-2523h340v-172h-1258v172h283v2523h-905z" />
    <glyph glyph-name="Idieresis" unicode="&#x41f;" 
d="M1135 2695v-2523h282v-172h-1257v172h340v2523h-340v172h2855v-172h-340v-2523h340v-172h-1258v172h283v2523h-905z" />
    <glyph glyph-name="Ocircumflex" unicode="&#xd4;" horiz-adv-x="3838" 
d="M2556 0h-1274v172h340v365q-82 -22 -160 -45q-127 -38 -200 -52t-205 -14q-221 0 -427 91.5t-334 260t-128 385.5q0 348 252 596t629 482q179 112 270 176.5t303 236.5v41h-344v172h1282v-172h-344v-41q215 -174 298 -233t275 -180q377 -234 629 -482t252 -596
q0 -217 -128 -385.5t-334 -260t-427 -91.5q-130 0 -201.5 13.5t-203.5 52.5q-87 26 -160 45v-365h340v-172zM2216 2454v-1774q93 -21 192 -21q283 0 432.5 214t149.5 483q0 205 -96 383.5t-251 333t-427 381.5zM1622 2454q-201 -168 -328.5 -286t-229 -246t-159 -268.5
t-57.5 -297.5q0 -169 63.5 -329t195.5 -264t323 -104q99 0 192 21v1774z" />
    <glyph glyph-name="Ocircumflex" unicode="&#x424;" horiz-adv-x="3838" 
d="M2556 0h-1274v172h340v365q-82 -22 -160 -45q-127 -38 -200 -52t-205 -14q-221 0 -427 91.5t-334 260t-128 385.5q0 348 252 596t629 482q179 112 270 176.5t303 236.5v41h-344v172h1282v-172h-344v-41q215 -174 298 -233t275 -180q377 -234 629 -482t252 -596
q0 -217 -128 -385.5t-334 -260t-427 -91.5q-130 0 -201.5 13.5t-203.5 52.5q-87 26 -160 45v-365h340v-172zM2216 2454v-1774q93 -21 192 -21q283 0 432.5 214t149.5 483q0 205 -96 383.5t-251 333t-427 381.5zM1622 2454q-201 -168 -328.5 -286t-229 -246t-159 -268.5
t-57.5 -297.5q0 -169 63.5 -329t195.5 -264t323 -104q99 0 192 21v1774z" />
    <glyph glyph-name="Odieresis" unicode="&#xd6;" horiz-adv-x="3379" 
d="M2998 2867v-172h-340v-2523h140q100 0 227.5 18.5t165.5 18.5q62 0 125 -49.5t63 -171.5q0 -95 -69 -291q-108 -298 -127 -483q-9 -81 -33 -135t-94 -54q-54 0 -81 42t-50.5 135t-77.5 306q-43 169 -91 269t-155 161.5t-299 61.5h-2142v172h340v2523h-340v172h1257v-172
h-282v-2523h888v2523h-282v172h1257z" />
    <glyph glyph-name="Odieresis" unicode="&#x426;" horiz-adv-x="3379" 
d="M2998 2867v-172h-340v-2523h140q100 0 227.5 18.5t165.5 18.5q62 0 125 -49.5t63 -171.5q0 -95 -69 -291q-108 -298 -127 -483q-9 -81 -33 -135t-94 -54q-54 0 -81 42t-50.5 135t-77.5 306q-43 169 -91 269t-155 161.5t-299 61.5h-2142v172h340v2523h-340v172h1257v-172
h-282v-2523h888v2523h-282v172h1257z" />
    <glyph glyph-name="multiply" unicode="&#xd7;" 
d="M2040 172v1094q-366 4 -653 48.5t-502 180.5q-259 167 -362 473t-117 727h-246v172h1229v-172h-275q-4 -65 -4 -188q0 -516 186.5 -796.5t608.5 -280.5q45 0 135 8v1257h-254v172h1229v-172h-340v-2523h340v-172h-1258v172h283z" />
    <glyph glyph-name="multiply" unicode="&#x427;" 
d="M2040 172v1094q-366 4 -653 48.5t-502 180.5q-259 167 -362 473t-117 727h-246v172h1229v-172h-275q-4 -65 -4 -188q0 -516 186.5 -796.5t608.5 -280.5q45 0 135 8v1257h-254v172h1229v-172h-340v-2523h340v-172h-1258v172h283z" />
    <glyph glyph-name="Oslash" unicode="&#xd8;" horiz-adv-x="4534" 
d="M1122 172h828v2523h-283v172h1200v-172h-282v-2523h827v2523h-283v172h1258v-172h-340v-2523h340v-172h-4240v172h340v2523h-340v172h1258v-172h-283v-2523z" />
    <glyph glyph-name="Oslash" unicode="&#x428;" horiz-adv-x="4534" 
d="M1122 172h828v2523h-283v172h1200v-172h-282v-2523h827v2523h-283v172h1258v-172h-340v-2523h340v-172h-4240v172h340v2523h-340v172h1258v-172h-283v-2523z" />
    <glyph glyph-name="Ugrave" unicode="&#xd9;" horiz-adv-x="4764" 
d="M1135 172h827v2523h-283v172h1200v-172h-282v-2523h827v2523h-282v172h1257v-172h-340v-2523h139q71 0 193 18.5t164 18.5q62 0 125 -49.5t63 -171.5q0 -95 -69 -291q-108 -298 -127 -483q-14 -90 -35.5 -139.5t-91.5 -49.5q-54 0 -82.5 49t-77.5 238q-77 284 -124 403.5
t-164.5 202t-338.5 82.5h-3473v172h340v2523h-340v172h1257v-172h-282v-2523z" />
    <glyph glyph-name="Ugrave" unicode="&#x429;" horiz-adv-x="4764" 
d="M1135 172h827v2523h-283v172h1200v-172h-282v-2523h827v2523h-282v172h1257v-172h-340v-2523h139q71 0 193 18.5t164 18.5q62 0 125 -49.5t63 -171.5q0 -95 -69 -291q-108 -298 -127 -483q-14 -90 -35.5 -139.5t-91.5 -49.5q-54 0 -82.5 49t-77.5 238q-77 284 -124 403.5
t-164.5 202t-338.5 82.5h-3473v172h340v2523h-340v172h1257v-172h-282v-2523z" />
    <glyph glyph-name="Uacute" unicode="&#xda;" horiz-adv-x="3191" 
d="M1655 172h368q137 0 222.5 39t85.5 190v488q0 36 -2 46t-2 52q-3 104 -34 142.5t-179 82.5q-263 82 -459 246v-1286zM1020 2695q-259 0 -371 -152.5t-178 -392.5q-24 -91 -46 -129.5t-85 -38.5q-75 0 -94 61t-33 206q-13 146 -34.5 188.5t-53 55.5t-45.5 61t-14 203
q0 70 37 116.5t98 46.5q12 0 118 -24q143 -29 226 -29h1450v-172h-340v-1012q167 -145 421.5 -234t471.5 -89q52 0 168 8q160 0 205 -66t45 -200v-815q0 -130 -31 -193t-80 -78.5t-135 -15.5h-2040v172h340v2523z" />
    <glyph glyph-name="Uacute" unicode="&#x42a;" horiz-adv-x="3191" 
d="M1655 172h368q137 0 222.5 39t85.5 190v488q0 36 -2 46t-2 52q-3 104 -34 142.5t-179 82.5q-263 82 -459 246v-1286zM1020 2695q-259 0 -371 -152.5t-178 -392.5q-24 -91 -46 -129.5t-85 -38.5q-75 0 -94 61t-33 206q-13 146 -34.5 188.5t-53 55.5t-45.5 61t-14 203
q0 70 37 116.5t98 46.5q12 0 118 -24q143 -29 226 -29h1450v-172h-340v-1012q167 -145 421.5 -234t471.5 -89q52 0 168 8q160 0 205 -66t45 -200v-815q0 -130 -31 -193t-80 -78.5t-135 -15.5h-2040v172h340v2523z" />
    <glyph glyph-name="Udieresis" unicode="&#xdc;" horiz-adv-x="2605" 
d="M1475 2867v-172h-340v-1012q112 -104 282 -181t337.5 -118t268.5 -41q40 0 168 9q141 0 197.5 -50.5t56.5 -216.5v-798q0 -132 -27 -192.5t-78 -77.5t-145 -17h-2035v172h340v2523h-340v172h1315zM1135 172h368q136 0 221.5 39t85.5 190v488q0 36 -2 46t-2 52
q-3 104 -34 142.5t-179 82.5q-263 83 -458 246v-1286z" />
    <glyph glyph-name="Udieresis" unicode="&#x42c;" horiz-adv-x="2605" 
d="M1475 2867v-172h-340v-1012q112 -104 282 -181t337.5 -118t268.5 -41q40 0 168 9q141 0 197.5 -50.5t56.5 -216.5v-798q0 -132 -27 -192.5t-78 -77.5t-145 -17h-2035v172h340v2523h-340v172h1315zM1135 172h368q136 0 221.5 39t85.5 190v488q0 36 -2 46t-2 52
q-3 104 -34 142.5t-179 82.5q-263 83 -458 246v-1286z" />
    <glyph glyph-name="Yacute" unicode="&#xdd;" horiz-adv-x="2990" 
d="M57 2109v172h197q99 251 295.5 395t416 196.5t423.5 52.5q329 0 646.5 -110t550 -443t232.5 -942q0 -453 -117.5 -760t-312 -480.5t-423.5 -245t-474 -71.5q-70 0 -180 25q-97 24 -262 86q-175 61 -222 61q-159 0 -159 -254q0 -81 12 -143v-41q-10 -21 -29 -21
q-40 0 -102.5 10.5t-155.5 10.5q-66 0 -111.5 -29t-64.5 -29q-53 0 -88 79t-35 204q0 150 61.5 267.5t160.5 181t204 63.5q57 0 116.5 -20t164 -66.5t162.5 -69.5q214 -82 311 -82q138 0 280 53t265.5 174.5t200.5 334t77 512.5v94q-136 -81 -198 -112.5t-134 -31.5
q-29 0 -83 -4t-80 -4q-55 0 -103 13q-61 16 -166 60.5t-180.5 67.5t-169.5 23q-186 0 -426 -147l-94 123q172 236 314 347t362 111q221 0 426 -118q293 -172 389 -172q72 0 143 65q0 25 2 73t2 70q0 633 -197.5 874t-473.5 241q-229 0 -344 -143.5t-140 -328.5h127v-172
h-1016z" />
    <glyph glyph-name="Yacute" unicode="&#x42d;" horiz-adv-x="2990" 
d="M57 2109v172h197q99 251 295.5 395t416 196.5t423.5 52.5q329 0 646.5 -110t550 -443t232.5 -942q0 -453 -117.5 -760t-312 -480.5t-423.5 -245t-474 -71.5q-70 0 -180 25q-97 24 -262 86q-175 61 -222 61q-159 0 -159 -254q0 -81 12 -143v-41q-10 -21 -29 -21
q-40 0 -102.5 10.5t-155.5 10.5q-66 0 -111.5 -29t-64.5 -29q-53 0 -88 79t-35 204q0 150 61.5 267.5t160.5 181t204 63.5q57 0 116.5 -20t164 -66.5t162.5 -69.5q214 -82 311 -82q138 0 280 53t265.5 174.5t200.5 334t77 512.5v94q-136 -81 -198 -112.5t-134 -31.5
q-29 0 -83 -4t-80 -4q-55 0 -103 13q-61 16 -166 60.5t-180.5 67.5t-169.5 23q-186 0 -426 -147l-94 123q172 236 314 347t362 111q221 0 426 -118q293 -172 389 -172q72 0 143 65q0 25 2 73t2 70q0 633 -197.5 874t-473.5 241q-229 0 -344 -143.5t-140 -328.5h127v-172
h-1016z" />
    <glyph glyph-name="Thorn" unicode="&#xde;" horiz-adv-x="4088" 
d="M2540 2437q-149 -20 -262 -112.5t-173.5 -225t-60.5 -264.5q0 -153 123.5 -370.5t490.5 -571.5q181 -176 251 -271.5t93 -211.5q182 80 330.5 231.5t173.5 341.5v139q-16 102 -91.5 222t-160.5 219.5t-293 328.5q-73 82 -170.5 190t-137 157t-66.5 96t-47 102zM2449 2732
q48 53 177.5 149.5t183.5 96.5q26 0 50 -16.5t59 -55t63 -67.5q136 -140 389 -361q264 -230 406.5 -459t142.5 -565q0 -286 -104 -501t-234.5 -352.5t-517.5 -510.5q-116 -116 -171.5 -158.5t-103.5 -42.5q-44 0 -123 58t-327 270q-167 143 -317 316.5t-260.5 414.5
t-110.5 518h-521v-1294h340v-172h-1314v172h340v2523h-340v172h1314v-172h-340v-1057h549q26 162 102.5 317t185.5 295.5t232.5 261t249.5 220.5z" />
    <glyph glyph-name="Thorn" unicode="&#x42e;" horiz-adv-x="4088" 
d="M2540 2437q-149 -20 -262 -112.5t-173.5 -225t-60.5 -264.5q0 -153 123.5 -370.5t490.5 -571.5q181 -176 251 -271.5t93 -211.5q182 80 330.5 231.5t173.5 341.5v139q-16 102 -91.5 222t-160.5 219.5t-293 328.5q-73 82 -170.5 190t-137 157t-66.5 96t-47 102zM2449 2732
q48 53 177.5 149.5t183.5 96.5q26 0 50 -16.5t59 -55t63 -67.5q136 -140 389 -361q264 -230 406.5 -459t142.5 -565q0 -286 -104 -501t-234.5 -352.5t-517.5 -510.5q-116 -116 -171.5 -158.5t-103.5 -42.5q-44 0 -123 58t-327 270q-167 143 -317 316.5t-260.5 414.5
t-110.5 518h-521v-1294h340v-172h-1314v172h340v2523h-340v172h1314v-172h-340v-1057h549q26 162 102.5 317t185.5 295.5t232.5 261t249.5 220.5z" />
    <glyph glyph-name="germandbls" unicode="&#xdf;" horiz-adv-x="2949" 
d="M2789 2867v-172h-340v-2523h340v-172h-1175v172h201v1253q-223 0 -414 -109t-312.5 -370t-121.5 -688v-86h159v-172h-1056v172h188q13 333 124 579t290.5 401.5t402.5 234.5t461 88v61q-631 83 -926 356t-295 607q0 172 74.5 251.5t197 98t359.5 18.5h1843zM1815 1729
v966h-467q-312 0 -312 -250q0 -175 99 -339.5t277 -268.5t403 -108z" />
    <glyph glyph-name="germandbls" unicode="&#x42f;" horiz-adv-x="2949" 
d="M2789 2867v-172h-340v-2523h340v-172h-1175v172h201v1253q-223 0 -414 -109t-312.5 -370t-121.5 -688v-86h159v-172h-1056v172h188q13 333 124 579t290.5 401.5t402.5 234.5t461 88v61q-631 83 -926 356t-295 607q0 172 74.5 251.5t197 98t359.5 18.5h1843zM1815 1729
v966h-467q-312 0 -312 -250q0 -175 99 -339.5t277 -268.5t403 -108z" />
    <glyph glyph-name="aacute" unicode="&#xe1;" horiz-adv-x="2154" 
d="M1032 1765h-258q-45 -360 -45 -712q275 -11 502 -62t395 -184q165 -128 244.5 -310.5t79.5 -340.5q0 -105 -54 -130.5t-180 -25.5h-1368q-58 0 -83.5 25t-32.5 84.5t-7 189.5q0 122 6 381t12.5 471.5t10.5 310.5q11 257 15.5 314t29 93t90.5 36h901q111 0 278 8t218 8
q196 0 196 -94q0 -65 -94 -230q-55 -99 -168 -380l-188 8q8 47 16 176v131q-19 157 -133 195t-383 38zM725 139h586h69q9 45 9 131q0 598 -660 598q-8 -98 -8 -295v-233z" />
    <glyph glyph-name="aacute" unicode="&#x431;" horiz-adv-x="2154" 
d="M1032 1765h-258q-45 -360 -45 -712q275 -11 502 -62t395 -184q165 -128 244.5 -310.5t79.5 -340.5q0 -105 -54 -130.5t-180 -25.5h-1368q-58 0 -83.5 25t-32.5 84.5t-7 189.5q0 122 6 381t12.5 471.5t10.5 310.5q11 257 15.5 314t29 93t90.5 36h901q111 0 278 8t218 8
q196 0 196 -94q0 -65 -94 -230q-55 -99 -168 -380l-188 8q8 47 16 176v131q-19 157 -133 195t-383 38zM725 139h586h69q9 45 9 131q0 598 -660 598q-8 -98 -8 -295v-233z" />
    <glyph glyph-name="acircumflex" unicode="&#xe2;" horiz-adv-x="2159" 
d="M397 1905h983q210 0 299.5 -42t89.5 -192q0 -228 -192 -359.5t-541 -238.5v-24q345 -83 643.5 -267.5t298.5 -507.5q0 -122 -47.5 -182t-122 -76t-198.5 -16h-1254q-53 0 -80.5 28t-41 127.5t-13.5 295.5q0 155 4 254q13 526 20 720.5t22.5 304.5t43 142.5t86.5 32.5z
M729 1151q155 0 270 71.5t174.5 177.5t59.5 202t-66 131.5t-196 35.5q-57 0 -213 -8q-29 -283 -29 -610zM733 147q2 0 101 -4t157 -4q151 0 228.5 13t119 64.5t41.5 164.5q0 119 -76 262.5t-224.5 245.5t-350.5 102q0 -2 -4 -134t-4 -206q0 -147 12 -504z" />
    <glyph glyph-name="acircumflex" unicode="&#x432;" horiz-adv-x="2159" 
d="M397 1905h983q210 0 299.5 -42t89.5 -192q0 -228 -192 -359.5t-541 -238.5v-24q345 -83 643.5 -267.5t298.5 -507.5q0 -122 -47.5 -182t-122 -76t-198.5 -16h-1254q-53 0 -80.5 28t-41 127.5t-13.5 295.5q0 155 4 254q13 526 20 720.5t22.5 304.5t43 142.5t86.5 32.5z
M729 1151q155 0 270 71.5t174.5 177.5t59.5 202t-66 131.5t-196 35.5q-57 0 -213 -8q-29 -283 -29 -610zM733 147q2 0 101 -4t157 -4q151 0 228.5 13t119 64.5t41.5 164.5q0 119 -76 262.5t-224.5 245.5t-350.5 102q0 -2 -4 -134t-4 -206q0 -147 12 -504z" />
    <glyph glyph-name="atilde" unicode="&#xe3;" horiz-adv-x="1769" 
d="M1008 1765h-246q-49 -316 -49 -659q0 -265 13.5 -439.5t34.5 -334t21 -213.5q0 -65 -26.5 -92t-137.5 -27h-245q-60 0 -88 31.5t-43 135.5t-20 315.5t-5 607.5q0 382 14 552t45 218.5t97 48.5q114 0 172 -4q86 -9 291 -9q289 0 741 21q91 0 141.5 -14t50.5 -72
q0 -59 -69 -180q-45 -89 -78 -160q-40 -84 -70 -176q-24 -80 -41 -123l-172 16q25 150 25 209q0 166 -65.5 257t-290.5 91z" />
    <glyph glyph-name="atilde" unicode="&#x433;" horiz-adv-x="1769" 
d="M1008 1765h-246q-49 -316 -49 -659q0 -265 13.5 -439.5t34.5 -334t21 -213.5q0 -65 -26.5 -92t-137.5 -27h-245q-60 0 -88 31.5t-43 135.5t-20 315.5t-5 607.5q0 382 14 552t45 218.5t97 48.5q114 0 172 -4q86 -9 291 -9q289 0 741 21q91 0 141.5 -14t50.5 -72
q0 -59 -69 -180q-45 -89 -78 -160q-40 -84 -70 -176q-24 -80 -41 -123l-172 16q25 150 25 209q0 166 -65.5 257t-290.5 91z" />
    <glyph glyph-name="adieresis" unicode="&#xe4;" horiz-adv-x="2265" 
d="M1257 -4h-311q-188 0 -303 -79.5t-115 -235.5q0 -66 34 -192.5t77 -229.5l-209 -29q-147 351 -315 577q-115 163 -115 254q0 27 28 56.5t87 34.5h78q103 0 151.5 23t81.5 71q76 109 180 393.5t181 575t77 407.5q0 103 -37 168q-28 52 -28 90q0 33 94 33q20 0 120 -4
t126 -4q77 0 165 6t134 6q42 0 60.5 -14.5t21.5 -79.5q10 -305 180 -852q94 -298 158.5 -470t107 -246t71.5 -91t72 -17q13 5 37 5q52 0 85.5 -28t33.5 -63q0 -84 -106 -237q-183 -241 -328 -594l-209 29q111 274 111 422q0 194 -155.5 254.5t-320.5 60.5zM561 135h930
q-71 122 -139 311q-202 542 -250 914q-3 17 -11.5 75t-17.5 105h-61q-52 -308 -221 -827q-144 -422 -230 -578z" />
    <glyph glyph-name="adieresis" unicode="&#x434;" horiz-adv-x="2265" 
d="M1257 -4h-311q-188 0 -303 -79.5t-115 -235.5q0 -66 34 -192.5t77 -229.5l-209 -29q-147 351 -315 577q-115 163 -115 254q0 27 28 56.5t87 34.5h78q103 0 151.5 23t81.5 71q76 109 180 393.5t181 575t77 407.5q0 103 -37 168q-28 52 -28 90q0 33 94 33q20 0 120 -4
t126 -4q77 0 165 6t134 6q42 0 60.5 -14.5t21.5 -79.5q10 -305 180 -852q94 -298 158.5 -470t107 -246t71.5 -91t72 -17q13 5 37 5q52 0 85.5 -28t33.5 -63q0 -84 -106 -237q-183 -241 -328 -594l-209 29q111 274 111 422q0 194 -155.5 254.5t-320.5 60.5zM561 135h930
q-71 122 -139 311q-202 542 -250 914q-3 17 -11.5 75t-17.5 105h-61q-52 -308 -221 -827q-144 -422 -230 -578z" />
    <glyph glyph-name="ae" unicode="&#xe6;" horiz-adv-x="2949" 
d="M1720 844q-4 -62 -4 -172q0 -213 45 -553v-41q0 -39 -31.5 -58.5t-127.5 -19.5h-230q-54 0 -78 11t-37 55t-19 137.5t-9 300.5q-2 59 -4 172t-4 168q-329 -65 -537 -664q-49 -141 -61.5 -162.5t-61.5 -21.5q-61 0 -90 4h-86q-17 0 -50 -2t-48 -2q-74 -8 -119 -8
q-51 0 -74.5 12.5t-23.5 60.5q0 57 65 193q121 254 329.5 462.5t600.5 254.5q-136 285 -282 386t-263 101q-61 0 -127 -53q-35 -37 -78 -37q-49 0 -49 90q-4 125 -21.5 196.5t-43 138.5t-25.5 87q0 27 31.5 48.5t87.5 21.5q111 0 267 -110.5t331 -329.5t332 -519
q0 160 4 291v180v156q3 187 31 237t100 50h291q98 0 98 -62q0 -6 -15 -105.5t-22 -295.5v-164v-127v-160q35 54 86 148q196 339 439 575t413 236q56 0 87.5 -21t31.5 -49q0 -20 -25.5 -87t-43 -138.5t-21.5 -196.5q0 -90 -49 -90q-37 0 -74 37q-66 53 -127 53
q-303 0 -545 -487q415 -51 692 -344q114 -122 208.5 -308t94.5 -258q0 -73 -102 -73q-41 0 -115 8q-15 0 -50 2t-52 2q-56 0 -99 -2t-77 -2q-43 0 -55.5 17.5t-51.5 121.5q-134 386 -270 535t-287 174z" />
    <glyph glyph-name="ae" unicode="&#x436;" horiz-adv-x="2949" 
d="M1720 844q-4 -62 -4 -172q0 -213 45 -553v-41q0 -39 -31.5 -58.5t-127.5 -19.5h-230q-54 0 -78 11t-37 55t-19 137.5t-9 300.5q-2 59 -4 172t-4 168q-329 -65 -537 -664q-49 -141 -61.5 -162.5t-61.5 -21.5q-61 0 -90 4h-86q-17 0 -50 -2t-48 -2q-74 -8 -119 -8
q-51 0 -74.5 12.5t-23.5 60.5q0 57 65 193q121 254 329.5 462.5t600.5 254.5q-136 285 -282 386t-263 101q-61 0 -127 -53q-35 -37 -78 -37q-49 0 -49 90q-4 125 -21.5 196.5t-43 138.5t-25.5 87q0 27 31.5 48.5t87.5 21.5q111 0 267 -110.5t331 -329.5t332 -519
q0 160 4 291v180v156q3 187 31 237t100 50h291q98 0 98 -62q0 -6 -15 -105.5t-22 -295.5v-164v-127v-160q35 54 86 148q196 339 439 575t413 236q56 0 87.5 -21t31.5 -49q0 -20 -25.5 -87t-43 -138.5t-21.5 -196.5q0 -90 -49 -90q-37 0 -74 37q-66 53 -127 53
q-303 0 -545 -487q415 -51 692 -344q114 -122 208.5 -308t94.5 -258q0 -73 -102 -73q-41 0 -115 8q-15 0 -50 2t-52 2q-56 0 -99 -2t-77 -2q-43 0 -55.5 17.5t-51.5 121.5q-134 386 -270 535t-287 174z" />
    <glyph glyph-name="ccedilla" unicode="&#xe7;" horiz-adv-x="2154" 
d="M815 811v172q274 3 405.5 106t131.5 357q0 164 -72.5 264t-210.5 100q-156 0 -237.5 -109.5t-81.5 -234.5q0 -10 2 -28t2 -29q8 -32 8 -57q0 -61 -164 -110.5t-324 -49.5q-8 0 -8 70q0 231 125 386t327.5 228.5t440.5 73.5q188 0 356 -53t272.5 -164t104.5 -279
q0 -270 -178.5 -386.5t-460.5 -149.5v-25q38 -8 60.5 -12.5t38.5 -8.5q630 -88 630 -528q0 -247 -151 -396t-426 -149q-140 0 -352 74q-193 67 -235 80.5t-89 13.5q-158 0 -362 -66.5t-338 -142.5l-86 103q179 196 305.5 292.5t288.5 96.5q59 0 102 -15.5t78 -40t78 -55.5
q133 -94 315 -94q117 0 206 97t89 300q0 168 -121.5 268.5t-284.5 100.5h-184z" />
    <glyph glyph-name="ccedilla" unicode="&#x437;" horiz-adv-x="2154" 
d="M815 811v172q274 3 405.5 106t131.5 357q0 164 -72.5 264t-210.5 100q-156 0 -237.5 -109.5t-81.5 -234.5q0 -10 2 -28t2 -29q8 -32 8 -57q0 -61 -164 -110.5t-324 -49.5q-8 0 -8 70q0 231 125 386t327.5 228.5t440.5 73.5q188 0 356 -53t272.5 -164t104.5 -279
q0 -270 -178.5 -386.5t-460.5 -149.5v-25q38 -8 60.5 -12.5t38.5 -8.5q630 -88 630 -528q0 -247 -151 -396t-426 -149q-140 0 -352 74q-193 67 -235 80.5t-89 13.5q-158 0 -362 -66.5t-338 -142.5l-86 103q179 196 305.5 292.5t288.5 96.5q59 0 102 -15.5t78 -40t78 -55.5
q133 -94 315 -94q117 0 206 97t89 300q0 168 -121.5 268.5t-284.5 100.5h-184z" />
    <glyph glyph-name="egrave" unicode="&#xe8;" horiz-adv-x="2163" 
d="M705 901l696 619q14 227 20.5 283t30 79t88.5 23h356q54 0 54 -66q0 -23 -21 -168q-49 -285 -49 -565q0 -499 66 -987q0 -65 -26.5 -92t-137.5 -27h-242q-55 0 -90.5 43t-56.5 185.5t-21 422.5q0 342 21 701l-688 -619q4 -140 13.5 -238t27.5 -213t24 -163
q0 -65 -26.5 -92t-137.5 -27h-241q-57 0 -85 31t-34 129q-7 166 -17 258q-20 296 -20 672q0 271 10 448t28.5 252t42.5 95t66 20h365q53 0 53 -66q0 -18 -20 -168q-21 -137 -35 -357t-14 -413z" />
    <glyph glyph-name="egrave" unicode="&#x438;" horiz-adv-x="2163" 
d="M705 901l696 619q14 227 20.5 283t30 79t88.5 23h356q54 0 54 -66q0 -23 -21 -168q-49 -285 -49 -565q0 -499 66 -987q0 -65 -26.5 -92t-137.5 -27h-242q-55 0 -90.5 43t-56.5 185.5t-21 422.5q0 342 21 701l-688 -619q4 -140 13.5 -238t27.5 -213t24 -163
q0 -65 -26.5 -92t-137.5 -27h-241q-57 0 -85 31t-34 129q-7 166 -17 258q-20 296 -20 672q0 271 10 448t28.5 252t42.5 95t66 20h365q53 0 53 -66q0 -18 -20 -168q-21 -137 -35 -357t-14 -413z" />
    <glyph glyph-name="ecircumflex" unicode="&#xea;" horiz-adv-x="1929" 
d="M1343 -16q-40 0 -56.5 33.5t-33.5 142.5q-24 173 -97 321.5t-187.5 255.5t-255.5 152q0 -326 41 -815q0 -74 -189 -74h-192q-62 0 -90.5 28t-43 129.5t-18.5 313t-4 619.5q0 371 14.5 548.5t46 226t95.5 48.5q19 0 53 -4t53 -4q18 0 100 6t150 6q49 -12 49 -66
q0 -39 -24 -192q-41 -279 -41 -627h32q512 918 918 918q71 0 123.5 -20t52.5 -46q0 -36 -31.5 -86.5t-55 -118t-32.5 -217.5q-4 -45 -4 -86l-106 -4q-55 127 -189 127q-102 0 -237 -113t-230 -272q-50 -76 -86 -123q288 -81 484 -212.5t304 -274t151.5 -264.5t43.5 -199
q0 -53 -151 -53q-29 2 -78 7t-70 5q-19 0 -101 -8t-108 -8z" />
    <glyph glyph-name="ecircumflex" unicode="&#x43a;" horiz-adv-x="1929" 
d="M1343 -16q-40 0 -56.5 33.5t-33.5 142.5q-24 173 -97 321.5t-187.5 255.5t-255.5 152q0 -326 41 -815q0 -74 -189 -74h-192q-62 0 -90.5 28t-43 129.5t-18.5 313t-4 619.5q0 371 14.5 548.5t46 226t95.5 48.5q19 0 53 -4t53 -4q18 0 100 6t150 6q49 -12 49 -66
q0 -39 -24 -192q-41 -279 -41 -627h32q512 918 918 918q71 0 123.5 -20t52.5 -46q0 -36 -31.5 -86.5t-55 -118t-32.5 -217.5q-4 -45 -4 -86l-106 -4q-55 127 -189 127q-102 0 -237 -113t-230 -272q-50 -76 -86 -123q288 -81 484 -212.5t304 -274t151.5 -264.5t43.5 -199
q0 -53 -151 -53q-29 2 -78 7t-70 5q-19 0 -101 -8t-108 -8z" />
    <glyph glyph-name="edieresis" unicode="&#xeb;" horiz-adv-x="1929" 
d="M881 1585q-25 -87 -119 -299q-141 -314 -185.5 -467.5t-44.5 -306.5q0 -156 70 -307q24 -48 55 -92.5t31 -67.5q0 -49 -78 -49q-33 0 -106 2t-111 2q-32 0 -97 -4t-95 -4q-82 0 -106.5 24.5t-24.5 114.5q0 234 111.5 460.5t334.5 571.5q61 94 121.5 187.5t104.5 185.5
t44 160q0 49 -24 123v49q16 37 82 37h368q81 0 104 -20.5t23 -86.5q0 -229 177 -778q117 -368 189.5 -555t117.5 -285.5t45 -122.5q0 -36 -24.5 -46.5t-90.5 -10.5q-61 4 -168 4q-106 0 -164 -4q-50 0 -81 21.5t-64.5 93.5t-73.5 203t-125 444q-20 78 -31 117.5t-22 87.5
q-49 171 -86 340q-19 101 -29 143q-21 87 -28 135z" />
    <glyph glyph-name="edieresis" unicode="&#x43b;" horiz-adv-x="1929" 
d="M881 1585q-25 -87 -119 -299q-141 -314 -185.5 -467.5t-44.5 -306.5q0 -156 70 -307q24 -48 55 -92.5t31 -67.5q0 -49 -78 -49q-33 0 -106 2t-111 2q-32 0 -97 -4t-95 -4q-82 0 -106.5 24.5t-24.5 114.5q0 234 111.5 460.5t334.5 571.5q61 94 121.5 187.5t104.5 185.5
t44 160q0 49 -24 123v49q16 37 82 37h368q81 0 104 -20.5t23 -86.5q0 -229 177 -778q117 -368 189.5 -555t117.5 -285.5t45 -122.5q0 -36 -24.5 -46.5t-90.5 -10.5q-61 4 -168 4q-106 0 -164 -4q-50 0 -81 21.5t-64.5 93.5t-73.5 203t-125 444q-20 78 -31 117.5t-22 87.5
q-49 171 -86 340q-19 101 -29 143q-21 87 -28 135z" />
    <glyph glyph-name="igrave" unicode="&#xec;" horiz-adv-x="2830" 
d="M778 1905h320q80 0 100 -33.5t35 -171.5q38 -360 250 -1172q52 335 209 668q110 241 110 311q0 150 -16.5 259t-16.5 114q0 25 95 25h336q78 0 96 -15.5t22 -54.5q29 -330 65 -561t117.5 -496.5t231.5 -584.5q37 -81 37 -136q0 -39 -20.5 -48t-69.5 -9h-279
q-99 0 -199 198.5t-173.5 456.5t-102.5 426q-14 93 -33 168q-116 -257 -193.5 -546t-92.5 -515v-90q0 -98 -33 -98h-316q-67 0 -103 34t-77 159q-71 232 -137 503t-149 709q-169 -208 -269 -461.5t-100 -476.5q0 -64 11.5 -121.5t27 -103.5t35.5 -99q41 -97 41 -114
q0 -29 -45 -29h-357q-65 0 -65 184q0 352 356 922q144 230 199 357.5t55 277.5v110q20 54 98 54z" />
    <glyph glyph-name="igrave" unicode="&#x43c;" horiz-adv-x="2830" 
d="M778 1905h320q80 0 100 -33.5t35 -171.5q38 -360 250 -1172q52 335 209 668q110 241 110 311q0 150 -16.5 259t-16.5 114q0 25 95 25h336q78 0 96 -15.5t22 -54.5q29 -330 65 -561t117.5 -496.5t231.5 -584.5q37 -81 37 -136q0 -39 -20.5 -48t-69.5 -9h-279
q-99 0 -199 198.5t-173.5 456.5t-102.5 426q-14 93 -33 168q-116 -257 -193.5 -546t-92.5 -515v-90q0 -98 -33 -98h-316q-67 0 -103 34t-77 159q-71 232 -137 503t-149 709q-169 -208 -269 -461.5t-100 -476.5q0 -64 11.5 -121.5t27 -103.5t35.5 -99q41 -97 41 -114
q0 -29 -45 -29h-357q-65 0 -65 184q0 352 356 922q144 230 199 357.5t55 277.5v110q20 54 98 54z" />
    <glyph glyph-name="iacute" unicode="&#xed;" horiz-adv-x="2138" 
d="M1364 1049l-639 110v-254q0 -268 6.5 -364t18.5 -208.5t12 -213.5q0 -71 -33 -95t-184 -24h-193q-53 0 -80 36t-41 147t-18 317t-4 590q0 390 13 561.5t40.5 214.5t89.5 43q21 0 63 -2t60 -2q62 0 184 8h46q53 -8 53 -66q-10 -136 -12 -238t-13 -282l631 -115v181
q0 236 14 343.5t45.5 140t96.5 32.5q20 0 57 -2t65 -2q127 0 189 8h45q53 -9 53 -66q0 -26 -14 -89t-27 -148q-28 -213 -28 -504q0 -275 13 -445t32.5 -324.5t19.5 -217.5q0 -72 -34 -95.5t-179 -23.5h-192q-58 0 -87.5 46t-42 153t-16.5 258.5t-10 591.5z" />
    <glyph glyph-name="iacute" unicode="&#x43d;" horiz-adv-x="2138" 
d="M1364 1049l-639 110v-254q0 -268 6.5 -364t18.5 -208.5t12 -213.5q0 -71 -33 -95t-184 -24h-193q-53 0 -80 36t-41 147t-18 317t-4 590q0 390 13 561.5t40.5 214.5t89.5 43q21 0 63 -2t60 -2q62 0 184 8h46q53 -8 53 -66q-10 -136 -12 -238t-13 -282l631 -115v181
q0 236 14 343.5t45.5 140t96.5 32.5q20 0 57 -2t65 -2q127 0 189 8h45q53 -9 53 -66q0 -26 -14 -89t-27 -148q-28 -213 -28 -504q0 -275 13 -445t32.5 -324.5t19.5 -217.5q0 -72 -34 -95.5t-179 -23.5h-192q-58 0 -87.5 46t-42 153t-16.5 258.5t-10 591.5z" />
    <glyph glyph-name="idieresis" unicode="&#xef;" horiz-adv-x="2150" 
d="M1401 1765h-619q-61 -347 -61 -659q0 -471 65 -987q0 -65 -26.5 -92t-136.5 -27h-238q-60 0 -88.5 27.5t-44.5 125.5t-21.5 307.5t-5.5 629.5q0 376 16 545.5t48.5 219.5t95.5 50h1303q49 0 77 4q21 4 66 4q94 0 94 -70q0 -41 -24 -188q-41 -273 -41 -549
q0 -216 10 -431.5t51 -555.5q0 -65 -26.5 -92t-137.5 -27h-237q-61 0 -89 28t-42.5 127t-19.5 313t-5 622q0 386 37 675z" />
    <glyph glyph-name="idieresis" unicode="&#x43f;" horiz-adv-x="2150" 
d="M1401 1765h-619q-61 -347 -61 -659q0 -471 65 -987q0 -65 -26.5 -92t-136.5 -27h-238q-60 0 -88.5 27.5t-44.5 125.5t-21.5 307.5t-5.5 629.5q0 376 16 545.5t48.5 219.5t95.5 50h1303q49 0 77 4q21 4 66 4q94 0 94 -70q0 -41 -24 -188q-41 -273 -41 -549
q0 -216 10 -431.5t51 -555.5q0 -65 -26.5 -92t-137.5 -27h-237q-61 0 -89 28t-42.5 127t-19.5 313t-5 622q0 386 37 675z" />
    <glyph glyph-name="ograve" unicode="&#xf2;" horiz-adv-x="2589" 
d="M2253 1135l-213 36q53 140 53 234q0 231 -145.5 297.5t-337.5 66.5h-74q0 -105 -2 -221t-2 -164q-8 -180 -8 -278q0 -206 8.5 -561.5t19.5 -442.5q0 -64 -26.5 -91t-136.5 -27h-242q-61 0 -84.5 32.5t-29 117.5t-5.5 317q0 74 2 142t2 112v176q0 229 8 467q0 17 5 133
t8 288h-74q-483 0 -483 -364q0 -57 53 -234l-213 -36q-84 259 -238 487q-69 106 -69 184q0 60 36.5 104t81.5 44q35 0 238 -29q168 -20 528 -20h762q361 0 529 20q201 29 237 29q46 0 82.5 -44t36.5 -104q0 -80 -70 -184q-90 -134 -138 -231t-99 -256z" />
    <glyph glyph-name="ograve" unicode="&#x442;" horiz-adv-x="2589" 
d="M2253 1135l-213 36q53 140 53 234q0 231 -145.5 297.5t-337.5 66.5h-74q0 -105 -2 -221t-2 -164q-8 -180 -8 -278q0 -206 8.5 -561.5t19.5 -442.5q0 -64 -26.5 -91t-136.5 -27h-242q-61 0 -84.5 32.5t-29 117.5t-5.5 317q0 74 2 142t2 112v176q0 229 8 467q0 17 5 133
t8 288h-74q-483 0 -483 -364q0 -57 53 -234l-213 -36q-84 259 -238 487q-69 106 -69 184q0 60 36.5 104t81.5 44q35 0 238 -29q168 -20 528 -20h762q361 0 529 20q201 29 237 29q46 0 82.5 -44t36.5 -104q0 -80 -70 -184q-90 -134 -138 -231t-99 -256z" />
    <glyph glyph-name="ocircumflex" unicode="&#xf4;" horiz-adv-x="3035" 
d="M1348 -1053v1147q-195 -139 -480 -139q-289 0 -498.5 181.5t-209.5 481.5q0 148 45.5 269t136 230t220 218t347.5 271q195 145 284.5 245.5t109.5 174t20 190.5l-16 319q-3 48 -6 84t-6 63.5t-4 45t-1 33.5q0 57 143.5 98t245.5 41q42 0 54 -34.5t12 -129.5l-29 -520
q0 -148 47.5 -250t125 -172t237.5 -188q257 -191 406 -323t246 -297.5t97 -367.5q0 -139 -75 -294.5t-235 -262t-398 -106.5q-285 0 -479 139v-1147h-340zM1343 238l-28 1486q-74 -73 -160 -147q-191 -165 -275.5 -250t-146 -211t-61.5 -293q0 -208 72.5 -349t187.5 -207
t244 -66q87 0 167 37zM1720 1724l-28 -1486q80 -37 168 -37q120 0 236 66.5t191.5 207.5t75.5 348q0 161 -52 278t-127 195.5t-197 178.5q-71 58 -164 151q-44 48 -103 98z" />
    <glyph glyph-name="ocircumflex" unicode="&#x444;" horiz-adv-x="3035" 
d="M1348 -1053v1147q-195 -139 -480 -139q-289 0 -498.5 181.5t-209.5 481.5q0 148 45.5 269t136 230t220 218t347.5 271q195 145 284.5 245.5t109.5 174t20 190.5l-16 319q-3 48 -6 84t-6 63.5t-4 45t-1 33.5q0 57 143.5 98t245.5 41q42 0 54 -34.5t12 -129.5l-29 -520
q0 -148 47.5 -250t125 -172t237.5 -188q257 -191 406 -323t246 -297.5t97 -367.5q0 -139 -75 -294.5t-235 -262t-398 -106.5q-285 0 -479 139v-1147h-340zM1343 238l-28 1486q-74 -73 -160 -147q-191 -165 -275.5 -250t-146 -211t-61.5 -293q0 -208 72.5 -349t187.5 -207
t244 -66q87 0 167 37zM1720 1724l-28 -1486q80 -37 168 -37q120 0 236 66.5t191.5 207.5t75.5 348q0 161 -52 278t-127 195.5t-197 178.5q-71 58 -164 151q-44 48 -103 98z" />
    <glyph glyph-name="odieresis" unicode="&#xf6;" horiz-adv-x="2331" 
d="M758 139h622q-2 88 -6 219.5t-6 227.5q-1 67 -4 161.5t-5.5 192.5t-2.5 150q0 366 17 544t48 226.5t90 48.5q30 0 86 -2t82 -2q46 0 144 8h45q53 -9 53 -66q0 -24 -15 -88t-26 -153q-29 -215 -29 -500v-406q0 -260 20.5 -369.5t90.5 -129.5h74q27 6 58 15.5t62 15.5t60 6
q57 0 86 -32t29 -67q0 -59 -78 -270q-80 -224 -205 -631h-225q45 185 45 299q0 166 -48.5 261.5t-214 148.5t-507.5 53q-49 0 -157 -2t-163 -2q-208 -5 -295.5 -13t-126.5 -8q-56 0 -79 23.5t-35 122.5t-14.5 294t-2.5 675q0 280 12.5 454.5t32.5 249.5t45 95t66 20
q29 0 79 -2t89 -2q53 0 143 8h41q53 -8 53 -66q0 -41 -24 -188q-41 -267 -41 -553q0 -397 37 -967z" />
    <glyph glyph-name="odieresis" unicode="&#x446;" horiz-adv-x="2331" 
d="M758 139h622q-2 88 -6 219.5t-6 227.5q-1 67 -4 161.5t-5.5 192.5t-2.5 150q0 366 17 544t48 226.5t90 48.5q30 0 86 -2t82 -2q46 0 144 8h45q53 -9 53 -66q0 -24 -15 -88t-26 -153q-29 -215 -29 -500v-406q0 -260 20.5 -369.5t90.5 -129.5h74q27 6 58 15.5t62 15.5t60 6
q57 0 86 -32t29 -67q0 -59 -78 -270q-80 -224 -205 -631h-225q45 185 45 299q0 166 -48.5 261.5t-214 148.5t-507.5 53q-49 0 -157 -2t-163 -2q-208 -5 -295.5 -13t-126.5 -8q-56 0 -79 23.5t-35 122.5t-14.5 294t-2.5 675q0 280 12.5 454.5t32.5 249.5t45 95t66 20
q29 0 79 -2t89 -2q53 0 143 8h41q53 -8 53 -66q0 -41 -24 -188q-41 -267 -41 -553q0 -397 37 -967z" />
    <glyph glyph-name="divide" unicode="&#xf7;" horiz-adv-x="2040" 
d="M1249 950h-45q-131 0 -254 -90q-100 -74 -233 -74q-117 0 -236.5 160t-213.5 384t-152 431q-13 36 -13 74q0 29 13 41q28 29 114 29h340q63 0 92.5 -26.5t43.5 -129.5q54 -364 168 -507t225 -152h49q65 0 98 36q11 372 27.5 533t48 205.5t100.5 44.5q23 0 63 -2t60 -2
q115 0 172 8h45q54 -9 54 -70q0 -104 -22 -168.5t-35 -165t-13 -403.5q0 -262 11 -391t32.5 -304t21.5 -292q0 -70 -28.5 -94.5t-151.5 -24.5h-221q-64 0 -91 25t-37.5 108t-15.5 264.5t-16 552.5z" />
    <glyph glyph-name="divide" unicode="&#x447;" horiz-adv-x="2040" 
d="M1249 950h-45q-131 0 -254 -90q-100 -74 -233 -74q-117 0 -236.5 160t-213.5 384t-152 431q-13 36 -13 74q0 29 13 41q28 29 114 29h340q63 0 92.5 -26.5t43.5 -129.5q54 -364 168 -507t225 -152h49q65 0 98 36q11 372 27.5 533t48 205.5t100.5 44.5q23 0 63 -2t60 -2
q115 0 172 8h45q54 -9 54 -70q0 -104 -22 -168.5t-35 -165t-13 -403.5q0 -262 11 -391t32.5 -304t21.5 -292q0 -70 -28.5 -94.5t-151.5 -24.5h-221q-64 0 -91 25t-37.5 108t-15.5 264.5t-16 552.5z" />
    <glyph glyph-name="oslash" unicode="&#xf8;" horiz-adv-x="3289" 
d="M1896 139h639q-4 48 -14.5 188.5t-18.5 332t-8 434.5q0 370 14.5 545t45.5 222.5t96 47.5q20 0 61 -2t62 -2q127 0 188 8h45q54 -9 54 -66q0 -28 -14.5 -89.5t-26.5 -151.5q-29 -183 -29 -500q0 -260 12 -396.5t33 -305.5t21 -285q0 -72 -35 -95.5t-178 -23.5h-2458
q-57 0 -84.5 27.5t-44 130.5t-22 308.5t-5.5 627.5q0 370 14.5 545t45.5 222.5t96 47.5q23 0 63 -2t60 -2q127 0 188 8h45q54 -9 54 -66q0 -28 -14.5 -89.5t-26.5 -151.5q-29 -183 -29 -500q0 -397 37 -967h639q-37 294 -37 955q0 377 20 556.5t51 219t89 39.5q22 0 54 -2
t69 -2q66 0 188 8h41q53 -8 53 -66q0 -39 -24 -192q-45 -279 -45 -549q0 -239 20 -574q4 -81 8.5 -202t7.5 -191z" />
    <glyph glyph-name="oslash" unicode="&#x448;" horiz-adv-x="3289" 
d="M1896 139h639q-4 48 -14.5 188.5t-18.5 332t-8 434.5q0 370 14.5 545t45.5 222.5t96 47.5q20 0 61 -2t62 -2q127 0 188 8h45q54 -9 54 -66q0 -28 -14.5 -89.5t-26.5 -151.5q-29 -183 -29 -500q0 -260 12 -396.5t33 -305.5t21 -285q0 -72 -35 -95.5t-178 -23.5h-2458
q-57 0 -84.5 27.5t-44 130.5t-22 308.5t-5.5 627.5q0 370 14.5 545t45.5 222.5t96 47.5q23 0 63 -2t60 -2q127 0 188 8h45q54 -9 54 -66q0 -28 -14.5 -89.5t-26.5 -151.5q-29 -183 -29 -500q0 -397 37 -967h639q-37 294 -37 955q0 377 20 556.5t51 219t89 39.5q22 0 54 -2
t69 -2q66 0 188 8h41q53 -8 53 -66q0 -39 -24 -192q-45 -279 -45 -549q0 -239 20 -574q4 -81 8.5 -202t7.5 -191z" />
    <glyph glyph-name="ugrave" unicode="&#xf9;" horiz-adv-x="3514" 
d="M1892 139h639q-4 48 -14.5 188.5t-18.5 332t-8 434.5q0 370 14.5 545t45.5 222.5t96 47.5q23 0 63 -2t60 -2q127 0 188 8h45q54 -9 54 -66q0 -26 -14 -87.5t-27 -149.5q-29 -217 -29 -492q0 -358 5.5 -527t30 -267t79.5 -115h69q22 4 82.5 20.5t102.5 16.5q52 0 83 -32
t31 -67q0 -62 -78 -274q-84 -232 -204 -627h-226q45 185 45 308q0 279 -137 362.5t-284 83.5h-2204q-57 0 -84.5 27.5t-44 130.5t-22 308.5t-5.5 627.5q0 370 14.5 545t45.5 222.5t96 47.5q20 0 61 -2t62 -2q127 0 188 8h45q54 -9 54 -66q0 -28 -14.5 -90t-26.5 -147
q-29 -239 -29 -500q0 -382 37 -971h639q-37 294 -37 955q0 377 20 556.5t51 219t89 39.5q23 0 55 -2t67 -2q65 0 189 8h41q53 -8 53 -66q0 -37 -24 -196q-46 -273 -46 -541q0 -223 21 -573q4 -85 8.5 -204t7.5 -194z" />
    <glyph glyph-name="ugrave" unicode="&#x449;" horiz-adv-x="3514" 
d="M1892 139h639q-4 48 -14.5 188.5t-18.5 332t-8 434.5q0 370 14.5 545t45.5 222.5t96 47.5q23 0 63 -2t60 -2q127 0 188 8h45q54 -9 54 -66q0 -26 -14 -87.5t-27 -149.5q-29 -217 -29 -492q0 -358 5.5 -527t30 -267t79.5 -115h69q22 4 82.5 20.5t102.5 16.5q52 0 83 -32
t31 -67q0 -62 -78 -274q-84 -232 -204 -627h-226q45 185 45 308q0 279 -137 362.5t-284 83.5h-2204q-57 0 -84.5 27.5t-44 130.5t-22 308.5t-5.5 627.5q0 370 14.5 545t45.5 222.5t96 47.5q20 0 61 -2t62 -2q127 0 188 8h45q54 -9 54 -66q0 -28 -14.5 -90t-26.5 -147
q-29 -239 -29 -500q0 -382 37 -971h639q-37 294 -37 955q0 377 20 556.5t51 219t89 39.5q23 0 55 -2t67 -2q65 0 189 8h41q53 -8 53 -66q0 -37 -24 -196q-46 -273 -46 -541q0 -223 21 -573q4 -85 8.5 -204t7.5 -194z" />
    <glyph glyph-name="uacute" unicode="&#xfa;" horiz-adv-x="2773" 
d="M1995 139q4 41 4 135q0 110 -37.5 231.5t-159.5 228.5t-348 134q-8 -65 -8 -217q0 -323 12 -512h537zM2200 -4l-1110 4q-140 0 -140 160v540q0 674 45 1065q-296 0 -387.5 -100.5t-91.5 -259.5q0 -81 49 -234l-213 -36q-47 150 -97 251.5t-140 235.5q-70 104 -70 184
q0 61 36.5 106.5t82.5 45.5q35 0 110 -13.5t132 -19.5q157 -20 450 -20h381q104 0 171 2t62 2q54 0 54 -66q0 -28 -22.5 -126t-35.5 -275q-12 -144 -12 -393q495 -11 795 -242q199 -154 261 -334t62 -313q0 -106 -53 -137t-180 -31q-18 0 -67 2t-72 2z" />
    <glyph glyph-name="uacute" unicode="&#x44a;" horiz-adv-x="2773" 
d="M1995 139q4 41 4 135q0 110 -37.5 231.5t-159.5 228.5t-348 134q-8 -65 -8 -217q0 -323 12 -512h537zM2200 -4l-1110 4q-140 0 -140 160v540q0 674 45 1065q-296 0 -387.5 -100.5t-91.5 -259.5q0 -81 49 -234l-213 -36q-47 150 -97 251.5t-140 235.5q-70 104 -70 184
q0 61 36.5 106.5t82.5 45.5q35 0 110 -13.5t132 -19.5q157 -20 450 -20h381q104 0 171 2t62 2q54 0 54 -66q0 -28 -22.5 -126t-35.5 -275q-12 -144 -12 -393q495 -11 795 -242q199 -154 261 -334t62 -313q0 -106 -53 -137t-180 -31q-18 0 -67 2t-72 2z" />
    <glyph glyph-name="udieresis" unicode="&#xfc;" horiz-adv-x="2118" 
d="M1425 0h-1056q-144 0 -144 160v545q0 437 5.5 660t22 342.5t48 160.5t92.5 41q19 0 58 -2t65 -2q127 0 189 8h45q53 -9 53 -66q0 -30 -21.5 -128.5t-36.5 -272.5q-12 -143 -12 -393q562 -32 836 -246q323 -257 323 -647q0 -105 -56 -136.5t-177 -31.5h-70q-20 4 -69 4
q-17 0 -48 2t-47 2zM733 139h467l70 4q4 41 4 131q0 110 -37.5 231.5t-159.5 228.5t-348 134q-8 -65 -8 -217q0 -323 12 -512z" />
    <glyph glyph-name="udieresis" unicode="&#x44c;" horiz-adv-x="2118" 
d="M1425 0h-1056q-144 0 -144 160v545q0 437 5.5 660t22 342.5t48 160.5t92.5 41q19 0 58 -2t65 -2q127 0 189 8h45q53 -9 53 -66q0 -30 -21.5 -128.5t-36.5 -272.5q-12 -143 -12 -393q562 -32 836 -246q323 -257 323 -647q0 -105 -56 -136.5t-177 -31.5h-70q-20 4 -69 4
q-17 0 -48 2t-47 2zM733 139h467l70 4q4 41 4 131q0 110 -37.5 231.5t-159.5 228.5t-348 134q-8 -65 -8 -217q0 -323 12 -512z" />
    <glyph glyph-name="yacute" unicode="&#xfd;" horiz-adv-x="2023" 
d="M86 242l78 86q131 -96 282 -150.5t263 -54.5q294 0 411 216t158 599q-232 -221 -504 -221q-77 0 -151 24q-62 21 -154.5 72t-136.5 51q-84 0 -160 -61l-86 102q286 287 451 287q69 0 125.5 -29.5t168.5 -97.5q102 -61 218 -61q133 0 225 110q0 334 -171 488.5t-370 154.5
q-233 0 -545 -201l-77 82q203 171 371.5 235t385.5 64q253 0 440 -82.5t308 -219t178 -296t57 -319.5q0 -132 -36.5 -305.5t-139.5 -350t-309 -299t-522 -122.5q-451 0 -758 299z" />
    <glyph glyph-name="yacute" unicode="&#x44d;" horiz-adv-x="2023" 
d="M86 242l78 86q131 -96 282 -150.5t263 -54.5q294 0 411 216t158 599q-232 -221 -504 -221q-77 0 -151 24q-62 21 -154.5 72t-136.5 51q-84 0 -160 -61l-86 102q286 287 451 287q69 0 125.5 -29.5t168.5 -97.5q102 -61 218 -61q133 0 225 110q0 334 -171 488.5t-370 154.5
q-233 0 -545 -201l-77 82q203 171 371.5 235t385.5 64q253 0 440 -82.5t308 -219t178 -296t57 -319.5q0 -132 -36.5 -305.5t-139.5 -350t-309 -299t-522 -122.5q-451 0 -758 299z" />
    <glyph glyph-name="thorn" unicode="&#xfe;" horiz-adv-x="2802" 
d="M705 1913q53 -12 53 -70q0 -70 -16.5 -172.5t-26.5 -219.5t-10 -374h446q43 268 181 490.5t294.5 351.5t241.5 129q71 0 197.5 -61t256.5 -181.5t219 -308t89 -428.5q0 -189 -73 -400t-188 -395t-243.5 -298.5t-233.5 -114.5q-127 0 -309 146t-315 387t-133 515h-430
q0 -222 28.5 -455t28.5 -335q0 -71 -33 -95t-184 -24h-193q-51 0 -78 36t-41.5 145t-19 311t-4.5 598q0 369 11 539t39.5 225t92.5 55q20 0 61 -2t62 -2q17 0 93 4t137 4zM1446 1135q17 -165 112 -343t270 -300.5t413 -122.5q73 140 73 299q0 178 -81 382t-248 356t-412 183
q-38 -43 -82.5 -168t-44.5 -286z" />
    <glyph glyph-name="thorn" unicode="&#x44e;" horiz-adv-x="2802" 
d="M705 1913q53 -12 53 -70q0 -70 -16.5 -172.5t-26.5 -219.5t-10 -374h446q43 268 181 490.5t294.5 351.5t241.5 129q71 0 197.5 -61t256.5 -181.5t219 -308t89 -428.5q0 -189 -73 -400t-188 -395t-243.5 -298.5t-233.5 -114.5q-127 0 -309 146t-315 387t-133 515h-430
q0 -222 28.5 -455t28.5 -335q0 -71 -33 -95t-184 -24h-193q-51 0 -78 36t-41.5 145t-19 311t-4.5 598q0 369 11 539t39.5 225t92.5 55q20 0 61 -2t62 -2q17 0 93 4t137 4zM1446 1135q17 -165 112 -343t270 -300.5t413 -122.5q73 140 73 299q0 178 -81 382t-248 356t-412 183
q-38 -43 -82.5 -168t-44.5 -286z" />
    <glyph glyph-name="ydieresis" unicode="&#xff;" horiz-adv-x="2171" 
d="M741 1905h1028q48 0 84 2t43 2q50 0 50 -66q0 -67 -17 -250q-28 -458 -28 -843q0 -93 14 -301t31 -330v-41q0 -39 -34.5 -58.5t-142.5 -19.5h-213q-74 0 -100.5 38.5t-31.5 120t-15 435.5q-1 55 -2.5 97.5t-3.5 79.5t-3.5 68t-2.5 62q-561 -123 -561 -708
q0 -116 -35.5 -154.5t-198.5 -38.5h-164q-153 0 -193 22.5t-40 83.5q0 98 58.5 234.5t173.5 271.5t282 232.5t375 122.5v20q-353 71 -564 210t-211 409q0 192 98.5 245.5t323.5 53.5zM1200 1765q-142 0 -208 -21t-82.5 -62t-16.5 -130q0 -208 148.5 -347.5t363.5 -139.5
q0 382 33 700h-238z" />
    <glyph glyph-name="ydieresis" unicode="&#x44f;" horiz-adv-x="2171" 
d="M741 1905h1028q48 0 84 2t43 2q50 0 50 -66q0 -67 -17 -250q-28 -458 -28 -843q0 -93 14 -301t31 -330v-41q0 -39 -34.5 -58.5t-142.5 -19.5h-213q-74 0 -100.5 38.5t-31.5 120t-15 435.5q-1 55 -2.5 97.5t-3.5 79.5t-3.5 68t-2.5 62q-561 -123 -561 -708
q0 -116 -35.5 -154.5t-198.5 -38.5h-164q-153 0 -193 22.5t-40 83.5q0 98 58.5 234.5t173.5 271.5t282 232.5t375 122.5v20q-353 71 -564 210t-211 409q0 192 98.5 245.5t323.5 53.5zM1200 1765q-142 0 -208 -21t-82.5 -62t-16.5 -130q0 -208 148.5 -347.5t363.5 -139.5
q0 382 33 700h-238z" />
    <glyph glyph-name="quotedbl" unicode="&#x22;" horiz-adv-x="1835" 
d="M283 1700l-78 86q254 223 254 393q0 123 -17 180q-113 0 -144.5 21.5t-31.5 81.5q0 90 4 151q10 177 26 213.5t69 36.5q22 0 69 -2t70 -2q11 0 38 2t40 2q45 4 90 4h41q53 -8 53 -61q0 -19 -12 -258q-15 -575 -471 -848zM1102 1700l-78 86q254 223 254 393q0 123 -17 180
q-113 0 -144.5 21.5t-31.5 81.5q0 90 4 151q10 177 26 213.5t69 36.5q22 0 69 -2t70 -2q11 0 38 2t40 2q45 4 90 4h41q53 -8 53 -61q0 -19 -12 -258q-15 -575 -471 -848z" />
    <glyph glyph-name="ellipsis" unicode="&#x2026;" horiz-adv-x="2376" 
d="M1130 2695h-315v172h1274v-172h-324l754 -2523h283v-172h-1229v172h311l-307 1061q-42 -204 -134.5 -433.5t-221.5 -424t-287.5 -313.5t-327.5 -119q-190 0 -324.5 122.5t-134.5 368.5q0 576 693 1573q233 334 303 565q0 37 -13 123zM590 852q6 -120 78.5 -197t154.5 -77
q155 0 292 183t228 430.5t115 430.5l-184 651q-230 -318 -393 -618q-49 -86 -94 -164t-92 -183.5t-76 -219.5t-29 -236z" />
    <glyph glyph-name="dagger" unicode="&#x2020;" horiz-adv-x="2417" 
d="M1130 2695h-315v172h1274v-172h-324l754 -2523h283v-172h-1229v172h311l-307 1061q-42 -204 -134.5 -433.5t-221.5 -424t-287.5 -313.5t-327.5 -119q-190 0 -324.5 122.5t-134.5 368.5q0 576 693 1573q233 334 303 565q0 37 -13 123zM590 852q6 -120 78.5 -197t154.5 -77
q155 0 292 183t228 430.5t115 430.5l-184 651q-230 -318 -393 -618q-49 -86 -94 -164t-92 -183.5t-76 -219.5t-29 -236z" />
    <glyph glyph-name="daggerdbl" unicode="&#x2021;" horiz-adv-x="2011" 
d="M720 2695h-315v172h1274v-172h-324l754 -2523h283v-172h-1229v172h311l-307 1061q-42 -204 -134.5 -433.5t-221.5 -424t-287.5 -313.5t-327.5 -119q-190 0 -324.5 122.5t-134.5 368.5q0 576 693 1573q233 334 303 565q0 37 -13 123zM180 852q6 -120 78.5 -197t154.5 -77
q155 0 292 183t228 430.5t115 430.5l-184 651q-230 -318 -393 -618q-49 -86 -94 -164t-92 -183.5t-76 -219.5t-29 -236z" />
    <glyph glyph-name="circumflex" unicode="&#x2c6;" horiz-adv-x="2257" 
d="M843 2695h-315v172h1274v-172h-324l754 -2523h283v-172h-1229v172h311l-307 1061q-42 -204 -134.5 -433.5t-221.5 -424t-287.5 -313.5t-327.5 -119q-190 0 -324.5 122.5t-134.5 368.5q0 576 693 1573q233 334 303 565q0 37 -13 123zM303 852q6 -120 78.5 -197t154.5 -77
q155 0 292 183t228 430.5t115 430.5l-184 651q-230 -318 -393 -618q-49 -86 -94 -164t-92 -183.5t-76 -219.5t-29 -236z" />
    <glyph glyph-name="Scaron" unicode="&#x160;" horiz-adv-x="2130" 
d="M160 2867h1540q205 0 442 33q50 7 94 16t66 9q135 0 135 -160q0 -38 -34.5 -123.5t-43.5 -110.5q-55 -147 -69 -282q-14 -140 -33 -203.5t-94 -63.5q-62 0 -84 38t-47 134q-63 234 -153 353.5t-186 153.5t-223 34h-102h-233v-2523h340v-172h-1315v172h340v2523h-340v172z
" />
    <glyph glyph-name="guilsinglleft" unicode="&#x2039;" horiz-adv-x="1679" 
d="M160 2867h1540q205 0 442 33q50 7 94 16t66 9q135 0 135 -160q0 -38 -34.5 -123.5t-43.5 -110.5q-55 -147 -69 -282q-14 -140 -33 -203.5t-94 -63.5q-62 0 -84 38t-47 134q-63 234 -153 353.5t-186 153.5t-223 34h-102h-233v-2523h340v-172h-1315v172h340v2523h-340v172z
" />
    <glyph glyph-name="OE" unicode="&#x152;" horiz-adv-x="2785" 
d="M1270 172v2523h-176h-95q-116 0 -184.5 -34.5t-131 -163t-130.5 -400.5q-33 -124 -52.5 -164.5t-82.5 -40.5q-72 0 -93.5 51t-25.5 138q-6 169 -74 356q-16 47 -69.5 167.5t-53.5 164.5q0 60 46 108t135 48q28 0 112 -19t179.5 -31t256.5 -12q33 0 78 2t70 2h1216
q27 0 72 -2t76 -2q161 0 257.5 12t180 31t111.5 19q89 0 134.5 -47.5t45.5 -108.5q0 -47 -51 -160t-72 -172q-71 -191 -78 -356q0 -189 -114 -189q-49 0 -74.5 32.5t-37.5 76t-60 231.5q-58 212 -125 310.5t-151.5 125.5t-227.5 27h-176v-2523h340v-172h-1315v172h340z" />
    <glyph glyph-name="emdash" unicode="&#x2013;" horiz-adv-x="2765" 
d="M860 172v2523h-176h-95q-116 0 -184.5 -34.5t-131 -163t-130.5 -400.5q-33 -124 -52.5 -164.5t-82.5 -40.5q-72 0 -93.5 51t-25.5 138q-6 169 -74 356q-16 47 -69.5 167.5t-53.5 164.5q0 60 46 108t135 48q28 0 112 -19t179.5 -31t256.5 -12q33 0 78 2t70 2h1216
q27 0 72 -2t76 -2q161 0 257.5 12t180 31t111.5 19q89 0 134.5 -47.5t45.5 -108.5q0 -47 -51 -160t-72 -172q-71 -191 -78 -356q0 -189 -114 -189q-49 0 -74.5 32.5t-37.5 76t-60 231.5q-58 212 -125 310.5t-151.5 125.5t-227.5 27h-176v-2523h340v-172h-1315v172h340z" />
    <glyph glyph-name="tilde" unicode="&#x2dc;" horiz-adv-x="2355" 
d="M860 172v2523h-176h-95q-116 0 -184.5 -34.5t-131 -163t-130.5 -400.5q-33 -124 -52.5 -164.5t-82.5 -40.5q-72 0 -93.5 51t-25.5 138q-6 169 -74 356q-16 47 -69.5 167.5t-53.5 164.5q0 60 46 108t135 48q28 0 112 -19t179.5 -31t256.5 -12q33 0 78 2t70 2h1216
q27 0 72 -2t76 -2q161 0 257.5 12t180 31t111.5 19q89 0 134.5 -47.5t45.5 -108.5q0 -47 -51 -160t-72 -172q-71 -191 -78 -356q0 -189 -114 -189q-49 0 -74.5 32.5t-37.5 76t-60 231.5q-58 212 -125 310.5t-151.5 125.5t-227.5 27h-176v-2523h340v-172h-1315v172h340z" />
    <glyph glyph-name="scaron" unicode="&#x161;" horiz-adv-x="2540" 
d="M1270 172v2523h-176h-95q-116 0 -184.5 -34.5t-131 -163t-130.5 -400.5q-33 -124 -52.5 -164.5t-82.5 -40.5q-72 0 -93.5 51t-25.5 138q-6 169 -74 356q-16 47 -69.5 167.5t-53.5 164.5q0 60 46 108t135 48q28 0 112 -19t179.5 -31t256.5 -12q33 0 78 2t70 2h1216
q27 0 72 -2t76 -2q161 0 257.5 12t180 31t111.5 19q89 0 134.5 -47.5t45.5 -108.5q0 -47 -51 -160t-72 -172q-71 -191 -78 -356q0 -189 -114 -189q-49 0 -74.5 32.5t-37.5 76t-60 231.5q-58 212 -125 310.5t-151.5 125.5t-227.5 27h-176v-2523h340v-172h-1315v172h340z" />
    <glyph glyph-name="guilsinglright" unicode="&#x203a;" horiz-adv-x="3113" 
d="M2073 172h225v-172h-1090v172h230v1311q-305 73 -533 225.5t-368 397.5t-177 589h-249v172h1163v-172h-193q0 -403 110.5 -640.5t263 -329t298.5 -91.5q188 0 345 120t248 331t91 471q0 65 -8 139h-188v172h1163v-172h-250q-110 -986 -1081 -1212v-1311z" />
    <glyph glyph-name="nonbreakingspace" unicode="&#xa0;" horiz-adv-x="1438" 
 />
    <glyph glyph-name="exclamdown" unicode="&#xa1;" horiz-adv-x="2982" 
d="M1541 172h225v-172h-1090v172h230v1311q-305 73 -533 225.5t-368 397.5t-177 589h-249v172h1163v-172h-193q0 -403 110.5 -640.5t263 -329t298.5 -91.5q188 0 345 120t248 331t91 471q0 65 -8 139h-188v172h1163v-172h-250q-110 -986 -1081 -1212v-1311z" />
    <glyph glyph-name="exclamdown" unicode="&#x40e;" horiz-adv-x="2982" 
d="M1541 172h225v-172h-1090v172h230v1311q-305 73 -533 225.5t-368 397.5t-177 589h-249v172h1163v-172h-193q0 -403 110.5 -640.5t263 -329t298.5 -91.5q188 0 345 120t248 331t91 471q0 65 -8 139h-188v172h1163v-172h-250q-110 -986 -1081 -1212v-1311z" />
    <glyph glyph-name="cent" unicode="&#xa2;" horiz-adv-x="2367" 
d="M1500 172h225v-172h-1090v172h230v1311q-305 73 -533 225.5t-368 397.5t-177 589h-249v172h1163v-172h-193q0 -403 110.5 -640.5t263 -329t298.5 -91.5q188 0 345 120t248 331t91 471q0 65 -8 139h-188v172h1163v-172h-250q-110 -986 -1081 -1212v-1311z" />
    <glyph glyph-name="cent" unicode="&#x45e;" horiz-adv-x="2367" 
d="M1500 172h225v-172h-1090v172h230v1311q-305 73 -533 225.5t-368 397.5t-177 589h-249v172h1163v-172h-193q0 -403 110.5 -640.5t263 -329t298.5 -91.5q188 0 345 120t248 331t91 471q0 65 -8 139h-188v172h1163v-172h-250q-110 -986 -1081 -1212v-1311z" />
    <glyph glyph-name="brokenbar" unicode="&#xa6;" horiz-adv-x="2621" 
d="M2073 172h225v-172h-1090v172h230v1311q-305 73 -533 225.5t-368 397.5t-177 589h-249v172h1163v-172h-193q0 -403 110.5 -640.5t263 -329t298.5 -91.5q188 0 345 120t248 331t91 471q0 65 -8 139h-188v172h1163v-172h-250q-110 -986 -1081 -1212v-1311z" />
    <glyph glyph-name="dieresis" unicode="&#xa8;" horiz-adv-x="2961" 
d="M1802 3457q0 147 19 186t75 39q54 -4 140 -4q131 0 192 4h49q54 -8 54 -61q-4 -62 -4 -168q0 -119 4 -184q0 -58 -54 -70h-49q-130 8 -192 8q-21 0 -66 -2t-74 -2q-43 0 -60.5 11.5t-25.5 62.5t-8 180zM754 3457q0 147 19 186t75 39q53 -4 139 -4q131 0 193 4h49
q53 -8 53 -61q-4 -62 -4 -168q0 -119 4 -184q0 -58 -53 -70h-49q-132 8 -193 8q-22 0 -67 -2t-72 -2q-43 0 -60.5 12t-25.5 62.5t-8 179.5zM1483 1434h151q-36 119 -112 182t-146 63q-127 0 -255 -48.5t-208 -139.5q44 -277 103 -467q65 -217 92 -341.5t27 -322.5
q0 -111 -41 -217q57 -28 151 -28q355 0 533.5 186t228.5 428h-205v168h1073v-168l-151 -4q-121 -216 -310 -396t-418.5 -283t-467.5 -103q-164 0 -354 18.5t-318 58.5q8 74 8 107q0 147 -63.5 270t-186.5 271q-189 231 -283 381t-126.5 272t-32.5 285q0 477 213.5 774
t532.5 421t655 124q205 0 424.5 -53t415 -196t294.5 -395h197v-172h-1016v172h127q-31 182 -160 327t-380 145q-205 0 -336 -131.5t-190.5 -338t-59.5 -428.5q0 -106 12 -204q296 258 684 258q156 0 308 -55.5t268 -162.5t170 -257h168v-172h-1016v172z" />
    <glyph glyph-name="dieresis" unicode="&#x401;" horiz-adv-x="2961" 
d="M1802 3457q0 147 19 186t75 39q54 -4 140 -4q131 0 192 4h49q54 -8 54 -61q-4 -62 -4 -168q0 -119 4 -184q0 -58 -54 -70h-49q-130 8 -192 8q-21 0 -66 -2t-74 -2q-43 0 -60.5 11.5t-25.5 62.5t-8 180zM754 3457q0 147 19 186t75 39q53 -4 139 -4q131 0 193 4h49
q53 -8 53 -61q-4 -62 -4 -168q0 -119 4 -184q0 -58 -53 -70h-49q-132 8 -193 8q-22 0 -67 -2t-72 -2q-43 0 -60.5 12t-25.5 62.5t-8 179.5zM1483 1434h151q-36 119 -112 182t-146 63q-127 0 -255 -48.5t-208 -139.5q44 -277 103 -467q65 -217 92 -341.5t27 -322.5
q0 -111 -41 -217q57 -28 151 -28q355 0 533.5 186t228.5 428h-205v168h1073v-168l-151 -4q-121 -216 -310 -396t-418.5 -283t-467.5 -103q-164 0 -354 18.5t-318 58.5q8 74 8 107q0 147 -63.5 270t-186.5 271q-189 231 -283 381t-126.5 272t-32.5 285q0 477 213.5 774
t532.5 421t655 124q205 0 424.5 -53t415 -196t294.5 -395h197v-172h-1016v172h127q-31 182 -160 327t-380 145q-205 0 -336 -131.5t-190.5 -338t-59.5 -428.5q0 -106 12 -204q296 258 684 258q156 0 308 -55.5t268 -162.5t170 -257h168v-172h-1016v172z" />
    <glyph glyph-name="cedilla" unicode="&#xb8;" horiz-adv-x="2040" 
d="M545 2662h139q99 0 162 2t59 2q53 0 53 -61q0 -35 -4 -98t-4 -99q0 -56 4 -105t4 -83q0 -56 -53 -66h-45q-103 9 -176 9q-22 0 -62 -2t-77 -2q-56 0 -75 31t-19 169q0 49 -2.5 96.5t-2.5 67.5q0 56 17 103q11 26 24 31t58 5zM1298 2662h140q97 0 158 2t59 2q53 0 53 -61
q0 -35 -4 -98t-4 -99q0 -56 4 -105t4 -83q0 -56 -53 -66h-45q-104 9 -172 9q-22 0 -63 -2t-77 -2q-56 0 -75 30.5t-19 169.5q0 36 -2 90t-2 74q0 60 17 103q11 26 23.5 31t57.5 5zM1892 1720l107 -127q-221 -143 -381 -143q-171 0 -356 213q-70 79 -111.5 115.5t-101.5 36.5
q-189 0 -248 -240t-68 -600q98 76 269 154.5t276 78.5q79 0 147 -24q79 -29 161.5 -80t121.5 -51q84 0 156 65l82 -110q-101 -116 -226 -209q-66 -49 -105.5 -69.5t-107.5 -20.5q-89 0 -192 69q-104 71 -166 99t-137 28q-140 0 -275 -119q0 -318 153.5 -527.5t416.5 -209.5
q232 0 528 213l78 -86q-292 -315 -737 -315q-213 0 -438 81.5t-393 299t-185 589.5v140q12 208 107 437t290 391.5t479 162.5q288 0 615 -205q96 -69 151 -69q53 0 90 32z" />
    <glyph glyph-name="cedilla" unicode="&#x451;" horiz-adv-x="2040" 
d="M545 2662h139q99 0 162 2t59 2q53 0 53 -61q0 -35 -4 -98t-4 -99q0 -56 4 -105t4 -83q0 -56 -53 -66h-45q-103 9 -176 9q-22 0 -62 -2t-77 -2q-56 0 -75 31t-19 169q0 49 -2.5 96.5t-2.5 67.5q0 56 17 103q11 26 24 31t58 5zM1298 2662h140q97 0 158 2t59 2q53 0 53 -61
q0 -35 -4 -98t-4 -99q0 -56 4 -105t4 -83q0 -56 -53 -66h-45q-104 9 -172 9q-22 0 -63 -2t-77 -2q-56 0 -75 30.5t-19 169.5q0 36 -2 90t-2 74q0 60 17 103q11 26 23.5 31t57.5 5zM1892 1720l107 -127q-221 -143 -381 -143q-171 0 -356 213q-70 79 -111.5 115.5t-101.5 36.5
q-189 0 -248 -240t-68 -600q98 76 269 154.5t276 78.5q79 0 147 -24q79 -29 161.5 -80t121.5 -51q84 0 156 65l82 -110q-101 -116 -226 -209q-66 -49 -105.5 -69.5t-107.5 -20.5q-89 0 -192 69q-104 71 -166 99t-137 28q-140 0 -275 -119q0 -318 153.5 -527.5t416.5 -209.5
q232 0 528 213l78 -86q-292 -315 -737 -315q-213 0 -438 81.5t-393 299t-185 589.5v140q12 208 107 437t290 391.5t479 162.5q288 0 615 -205q96 -69 151 -69q53 0 90 32z" />
    <glyph glyph-name="onesuperior" unicode="&#xb9;" horiz-adv-x="3903" 
d="M2040 0l-905 2413v-2241h282v-172h-1257v172h340v2523h-340v172h975l905 -2429v2257h-283v172h1258v-172h-340v-2523h340v-172h-975zM2912 1827q0 193 82 360t189.5 268t170.5 101q67 0 176 -67t194 -199.5t85 -319.5q0 -148 -75 -319t-180 -288.5t-187 -117.5t-191 90.5
t-186.5 227t-77.5 264.5zM3166 2281q-78 -97 -78 -196q0 -100 51.5 -227t159.5 -218.5t268 -91.5q41 77 41 181q0 128 -54 251.5t-156 205.5t-232 95zM2973 983h803v-246h-803v246z" />
    <glyph glyph-name="onesuperior" unicode="&#x2116;" horiz-adv-x="3903" 
d="M2040 0l-905 2413v-2241h282v-172h-1257v172h340v2523h-340v172h975l905 -2429v2257h-283v172h1258v-172h-340v-2523h340v-172h-975zM2912 1827q0 193 82 360t189.5 268t170.5 101q67 0 176 -67t194 -199.5t85 -319.5q0 -148 -75 -319t-180 -288.5t-187 -117.5t-191 90.5
t-186.5 227t-77.5 264.5zM3166 2281q-78 -97 -78 -196q0 -100 51.5 -227t159.5 -218.5t268 -91.5q41 77 41 181q0 128 -54 251.5t-156 205.5t-232 95zM2973 983h803v-246h-803v246z" />
    <glyph glyph-name="Agrave" unicode="&#xc0;" horiz-adv-x="2830" 
d="M1130 2695h-315v172h1274v-172h-324l754 -2523h283v-172h-1229v172h311l-307 1061q-42 -204 -134.5 -433.5t-221.5 -424t-287.5 -313.5t-327.5 -119q-190 0 -324.5 122.5t-134.5 368.5q0 576 693 1573q233 334 303 565q0 37 -13 123zM590 852q6 -120 78.5 -197t154.5 -77
q155 0 292 183t228 430.5t115 430.5l-184 651q-230 -318 -393 -618q-49 -86 -94 -164t-92 -183.5t-76 -219.5t-29 -236z" />
    <glyph glyph-name="Agrave" unicode="&#x410;" horiz-adv-x="2830" 
d="M1130 2695h-315v172h1274v-172h-324l754 -2523h283v-172h-1229v172h311l-307 1061q-42 -204 -134.5 -433.5t-221.5 -424t-287.5 -313.5t-327.5 -119q-190 0 -324.5 122.5t-134.5 368.5q0 576 693 1573q233 334 303 565q0 37 -13 123zM590 852q6 -120 78.5 -197t154.5 -77
q155 0 292 183t228 430.5t115 430.5l-184 651q-230 -318 -393 -618q-49 -86 -94 -164t-92 -183.5t-76 -219.5t-29 -236z" />
    <glyph glyph-name="Acircumflex" unicode="&#xc2;" horiz-adv-x="2662" 
d="M455 172v1298q0 488 90.5 802t331.5 483.5t679 169.5q200 0 359 -53t269.5 -146.5t167 -212.5t56.5 -248q0 -304 -191.5 -443t-447.5 -139q-176 0 -372 132l-180 -226q144 -116 279 -185.5t277.5 -101.5t307.5 -32h37q128 0 190.5 -29.5t81 -89t18.5 -168.5v-651
q0 -22 -2 -46t-2 -65q-2 -84 -17 -127t-81 -68.5t-217 -25.5h-1974v172h340zM1090 172h503q102 0 141.5 52t39.5 222v463q0 92 -28 134t-149 108q-215 118 -311.5 183t-195.5 177v-1339zM1090 1655l237 323q126 -69 189 -69q87 0 172.5 96.5t85.5 325.5q0 217 -92 319.5
t-232 102.5q-217 0 -288 -224t-77 -596q0 -54 2.5 -135t2.5 -143z" />
    <glyph glyph-name="Acircumflex" unicode="&#x412;" horiz-adv-x="2662" 
d="M455 172v1298q0 488 90.5 802t331.5 483.5t679 169.5q200 0 359 -53t269.5 -146.5t167 -212.5t56.5 -248q0 -304 -191.5 -443t-447.5 -139q-176 0 -372 132l-180 -226q144 -116 279 -185.5t277.5 -101.5t307.5 -32h37q128 0 190.5 -29.5t81 -89t18.5 -168.5v-651
q0 -22 -2 -46t-2 -65q-2 -84 -17 -127t-81 -68.5t-217 -25.5h-1974v172h340zM1090 172h503q102 0 141.5 52t39.5 222v463q0 92 -28 134t-149 108q-215 118 -311.5 183t-195.5 177v-1339zM1090 1655l237 323q126 -69 189 -69q87 0 172.5 96.5t85.5 325.5q0 217 -92 319.5
t-232 102.5q-217 0 -288 -224t-77 -596q0 -54 2.5 -135t2.5 -143z" />
    <glyph glyph-name="Aring" unicode="&#xc5;" horiz-adv-x="2961" 
d="M1483 1434h151q-36 119 -112 182t-146 63q-127 0 -255 -48.5t-208 -139.5q44 -277 103 -467q65 -217 92 -341.5t27 -322.5q0 -111 -41 -217q57 -28 151 -28q355 0 533.5 186t228.5 428h-205v168h1073v-168l-151 -4q-121 -216 -310 -396t-418.5 -283t-467.5 -103
q-164 0 -354 18.5t-318 58.5q8 74 8 107q0 147 -63.5 270t-186.5 271q-189 231 -283 381t-126.5 272t-32.5 285q0 477 213.5 774t532.5 421t655 124q205 0 424.5 -53t415 -196t294.5 -395h197v-172h-1016v172h127q-31 182 -160 327t-380 145q-205 0 -336 -131.5t-190.5 -338
t-59.5 -428.5q0 -106 12 -204q296 258 684 258q156 0 308 -55.5t268 -162.5t170 -257h168v-172h-1016v172z" />
    <glyph glyph-name="Aring" unicode="&#x415;" horiz-adv-x="2961" 
d="M1483 1434h151q-36 119 -112 182t-146 63q-127 0 -255 -48.5t-208 -139.5q44 -277 103 -467q65 -217 92 -341.5t27 -322.5q0 -111 -41 -217q57 -28 151 -28q355 0 533.5 186t228.5 428h-205v168h1073v-168l-151 -4q-121 -216 -310 -396t-418.5 -283t-467.5 -103
q-164 0 -354 18.5t-318 58.5q8 74 8 107q0 147 -63.5 270t-186.5 271q-189 231 -283 381t-126.5 272t-32.5 285q0 477 213.5 774t532.5 421t655 124q205 0 424.5 -53t415 -196t294.5 -395h197v-172h-1016v172h127q-31 182 -160 327t-380 145q-205 0 -336 -131.5t-190.5 -338
t-59.5 -428.5q0 -106 12 -204q296 258 684 258q156 0 308 -55.5t268 -162.5t170 -257h168v-172h-1016v172z" />
    <glyph glyph-name="Eacute" unicode="&#xc9;" 
d="M2073 3654l180 -66q-97 -254 -281 -428t-383 -174q-151 0 -273 92t-199 243.5t-105 328.5l159 45q130 -336 390 -336q193 0 321 89t191 206zM2040 1987l-905 -1106v-709h282v-172h-1257v172h340v2523h-340v172h1257v-172h-282v-1544l905 1110v434h-283v172h1258v-172
h-340v-2523h340v-172h-1258v172h283v1815z" />
    <glyph glyph-name="Eacute" unicode="&#x419;" 
d="M2073 3654l180 -66q-97 -254 -281 -428t-383 -174q-151 0 -273 92t-199 243.5t-105 328.5l159 45q130 -336 390 -336q193 0 321 89t191 206zM2040 1987l-905 -1106v-709h282v-172h-1257v172h340v2523h-340v172h1257v-172h-282v-1544l905 1110v434h-283v172h1258v-172
h-340v-2523h340v-172h-1258v172h283v1815z" />
    <glyph glyph-name="Ecircumflex" unicode="&#xca;" horiz-adv-x="2945" 
d="M1135 1602h151l57 114q41 80 66 148q32 66 47.5 96.5t38.5 79.5q71 144 155.5 312t177 295t211.5 202.5t271 75.5q192 0 361 -74q-76 -199 -85 -230.5t-18 -134.5q-12 -103 -12 -196h-82q-73 26 -131 53q-100 49 -221 49q-120 0 -212.5 -82t-185 -242.5t-270.5 -511.5
q329 -75 572.5 -210t403 -419t167.5 -755h246v-172h-1114v172h159q8 156 8 221q0 229 -36.5 402t-123.5 307t-236.5 224t-364.5 132v-1286h254v-172h-1229v172h340v2523h-340v172h1257v-172h-282v-1093z" />
    <glyph glyph-name="Ecircumflex" unicode="&#x41a;" horiz-adv-x="2945" 
d="M1135 1602h151l57 114q41 80 66 148q32 66 47.5 96.5t38.5 79.5q71 144 155.5 312t177 295t211.5 202.5t271 75.5q192 0 361 -74q-76 -199 -85 -230.5t-18 -134.5q-12 -103 -12 -196h-82q-73 26 -131 53q-100 49 -221 49q-120 0 -212.5 -82t-185 -242.5t-270.5 -511.5
q329 -75 572.5 -210t403 -419t167.5 -755h246v-172h-1114v172h159q8 156 8 221q0 229 -36.5 402t-123.5 307t-236.5 224t-364.5 132v-1286h254v-172h-1229v172h340v2523h-340v172h1257v-172h-282v-1093z" />
    <glyph glyph-name="Igrave" unicode="&#xcc;" horiz-adv-x="4420" 
d="M1778 172l-447 2081q-156 -241 -259 -454.5t-155.5 -424.5t-52.5 -432q0 -132 27.5 -376t30.5 -304v-205q-7 -64 -58 -86q-37 -16 -90 -16q-49 0 -147 16q-37 4 -107 4q-86 0 -131 -4q-66 -8 -86 -8q-75 0 -109 59t-34 236q0 301 81 542t204 430t358 503q230 311 330 492
t100 368q0 36 -8 102h-303v172h1171v-172h-229l520 -2404l455 2404h-181v172h1102v-172h-266l549 -2523h282v-172h-1097v172h180l-463 2155l-401 -2155h217v-172h-1196v172h213z" />
    <glyph glyph-name="Igrave" unicode="&#x41c;" horiz-adv-x="4420" 
d="M1778 172l-447 2081q-156 -241 -259 -454.5t-155.5 -424.5t-52.5 -432q0 -132 27.5 -376t30.5 -304v-205q-7 -64 -58 -86q-37 -16 -90 -16q-49 0 -147 16q-37 4 -107 4q-86 0 -131 -4q-66 -8 -86 -8q-75 0 -109 59t-34 236q0 301 81 542t204 430t358 503q230 311 330 492
t100 368q0 36 -8 102h-303v172h1171v-172h-229l520 -2404l455 2404h-181v172h1102v-172h-266l549 -2523h282v-172h-1097v172h180l-463 2155l-401 -2155h217v-172h-1196v172h213z" />
    <glyph glyph-name="Iacute" unicode="&#xcd;" horiz-adv-x="2986" 
d="M1855 2695h-233v172h1204v-172h-336v-2523h340v-172h-1200v172h225v971q0 36 -2 46t-2 52q-3 127 -49 161.5t-164 67.5q-122 37 -262 105.5t-241 144.5v-1548h229v-172h-1204v172h340v2523h-340v172h1204v-172h-229v-729q178 -170 343 -251t377 -93v1073z" />
    <glyph glyph-name="Iacute" unicode="&#x41d;" horiz-adv-x="2986" 
d="M1855 2695h-233v172h1204v-172h-336v-2523h340v-172h-1200v172h225v971q0 36 -2 46t-2 52q-3 127 -49 161.5t-164 67.5q-122 37 -262 105.5t-241 144.5v-1548h229v-172h-1204v172h340v2523h-340v172h1204v-172h-229v-729q178 -170 343 -251t377 -93v1073z" />
    <glyph glyph-name="Icircumflex" unicode="&#xce;" horiz-adv-x="2609" 
d="M1061 2437q-145 -20 -258.5 -113t-175.5 -225.5t-62 -263.5q0 -97 40 -201.5t118 -220.5t187 -238t274 -286q200 -197 260.5 -280t71.5 -191q178 68 332 228.5t180 336.5v139q0 105 -73.5 221t-195 248t-276.5 301q-110 122 -186.5 206.5t-120.5 139.5t-69.5 99.5
t-45.5 99.5zM971 2732q91 86 198 166t162 80q39 0 65 -25.5t107 -113.5q136 -140 389 -361q264 -230 406.5 -459t142.5 -565q0 -286 -104.5 -502t-232 -350.5t-519.5 -511.5q-116 -116 -171.5 -158.5t-102.5 -42.5q-43 0 -118.5 54.5t-299.5 244.5q-219 190 -305 269.5
t-190.5 219t-167 315.5t-62.5 397q0 234 81 437t202.5 363.5t281 314t238.5 228.5z" />
    <glyph glyph-name="Icircumflex" unicode="&#x41e;" horiz-adv-x="2609" 
d="M1061 2437q-145 -20 -258.5 -113t-175.5 -225.5t-62 -263.5q0 -97 40 -201.5t118 -220.5t187 -238t274 -286q200 -197 260.5 -280t71.5 -191q178 68 332 228.5t180 336.5v139q0 105 -73.5 221t-195 248t-276.5 301q-110 122 -186.5 206.5t-120.5 139.5t-69.5 99.5
t-45.5 99.5zM971 2732q91 86 198 166t162 80q39 0 65 -25.5t107 -113.5q136 -140 389 -361q264 -230 406.5 -459t142.5 -565q0 -286 -104.5 -502t-232 -350.5t-519.5 -511.5q-116 -116 -171.5 -158.5t-102.5 -42.5q-43 0 -118.5 54.5t-299.5 244.5q-219 190 -305 269.5
t-190.5 219t-167 315.5t-62.5 397q0 234 81 437t202.5 363.5t281 314t238.5 228.5z" />
    <glyph glyph-name="Eth" unicode="&#xd0;" horiz-adv-x="2716" 
d="M1135 1094v-922h340v-172h-1315v172h340v1499q0 320 12 623q121 294 389.5 462.5t597.5 168.5q325 0 559 -108t355.5 -296t121.5 -416q0 -222 -90 -404t-248.5 -286t-353.5 -104q-100 0 -159 22.5t-177 83.5q-63 32 -90 45zM1135 1339l262 332q38 -30 83.5 -49.5
t67.5 -19.5q97 0 182 107.5t85 404.5q0 296 -72.5 467.5t-272.5 171.5q-150 0 -223.5 -107t-92.5 -263t-19 -392v-99v-553z" />
    <glyph glyph-name="Eth" unicode="&#x420;" horiz-adv-x="2716" 
d="M1135 1094v-922h340v-172h-1315v172h340v1499q0 320 12 623q121 294 389.5 462.5t597.5 168.5q325 0 559 -108t355.5 -296t121.5 -416q0 -222 -90 -404t-248.5 -286t-353.5 -104q-100 0 -159 22.5t-177 83.5q-63 32 -90 45zM1135 1339l262 332q38 -30 83.5 -49.5
t67.5 -19.5q97 0 182 107.5t85 404.5q0 296 -72.5 467.5t-272.5 171.5q-150 0 -223.5 -107t-92.5 -263t-19 -392v-99v-553z" />
    <glyph glyph-name="Ntilde" unicode="&#xd1;" horiz-adv-x="2839" 
d="M2724 1851h-1073v172h176q0 411 -128.5 570.5t-314.5 159.5q-126 0 -237 -79.5t-182.5 -275.5t-71.5 -526q0 -243 35 -463t112 -545q90 -357 90 -594q0 -27 -5 -59t-13.5 -64t-13.5 -49q-5 -20 -9.5 -33.5t-7.5 -23.5q39 -25 99 -25q148 0 301 145.5t251.5 380
t98.5 482.5q0 66 -4 98h-176v172h1073v-172h-168q-12 -256 -138 -477.5t-331 -388t-447.5 -256.5t-472.5 -90q-174 0 -299 49v57q0 107 -15 186t-81.5 203.5t-210.5 315.5q-169 216 -255 380.5t-110 285.5t-24 268q0 385 169.5 674t457 442.5t626.5 153.5q574 0 825 -284.5
t306 -617.5h168v-172z" />
    <glyph glyph-name="Ntilde" unicode="&#x421;" horiz-adv-x="2839" 
d="M2724 1851h-1073v172h176q0 411 -128.5 570.5t-314.5 159.5q-126 0 -237 -79.5t-182.5 -275.5t-71.5 -526q0 -243 35 -463t112 -545q90 -357 90 -594q0 -27 -5 -59t-13.5 -64t-13.5 -49q-5 -20 -9.5 -33.5t-7.5 -23.5q39 -25 99 -25q148 0 301 145.5t251.5 380
t98.5 482.5q0 66 -4 98h-176v172h1073v-172h-168q-12 -256 -138 -477.5t-331 -388t-447.5 -256.5t-472.5 -90q-174 0 -299 49v57q0 107 -15 186t-81.5 203.5t-210.5 315.5q-169 216 -255 380.5t-110 285.5t-24 268q0 385 169.5 674t457 442.5t626.5 153.5q574 0 825 -284.5
t306 -617.5h168v-172z" />
    <glyph glyph-name="Ograve" unicode="&#xd2;" 
d="M1270 172v2523h-176h-95q-116 0 -184.5 -34.5t-131 -163t-130.5 -400.5q-33 -124 -52.5 -164.5t-82.5 -40.5q-72 0 -93.5 51t-25.5 138q-6 169 -74 356q-16 47 -69.5 167.5t-53.5 164.5q0 60 46 108t135 48q28 0 112 -19t179.5 -31t256.5 -12q33 0 78 2t70 2h1216
q27 0 72 -2t76 -2q161 0 257.5 12t180 31t111.5 19q89 0 134.5 -47.5t45.5 -108.5q0 -47 -51 -160t-72 -172q-71 -191 -78 -356q0 -189 -114 -189q-49 0 -74.5 32.5t-37.5 76t-60 231.5q-58 212 -125 310.5t-151.5 125.5t-227.5 27h-176v-2523h340v-172h-1315v172h340z" />
    <glyph glyph-name="Ograve" unicode="&#x422;" 
d="M1270 172v2523h-176h-95q-116 0 -184.5 -34.5t-131 -163t-130.5 -400.5q-33 -124 -52.5 -164.5t-82.5 -40.5q-72 0 -93.5 51t-25.5 138q-6 169 -74 356q-16 47 -69.5 167.5t-53.5 164.5q0 60 46 108t135 48q28 0 112 -19t179.5 -31t256.5 -12q33 0 78 2t70 2h1216
q27 0 72 -2t76 -2q161 0 257.5 12t180 31t111.5 19q89 0 134.5 -47.5t45.5 -108.5q0 -47 -51 -160t-72 -172q-71 -191 -78 -356q0 -189 -114 -189q-49 0 -74.5 32.5t-37.5 76t-60 231.5q-58 212 -125 310.5t-151.5 125.5t-227.5 27h-176v-2523h340v-172h-1315v172h340z" />
    <glyph glyph-name="Oacute" unicode="&#xd3;" horiz-adv-x="3514" 
d="M2073 172h225v-172h-1090v172h230v1311q-305 73 -533 225.5t-368 397.5t-177 589h-249v172h1163v-172h-193q0 -403 110.5 -640.5t263 -329t298.5 -91.5q188 0 345 120t248 331t91 471q0 65 -8 139h-188v172h1163v-172h-250q-110 -986 -1081 -1212v-1311z" />
    <glyph glyph-name="Oacute" unicode="&#x423;" horiz-adv-x="3514" 
d="M2073 172h225v-172h-1090v172h230v1311q-305 73 -533 225.5t-368 397.5t-177 589h-249v172h1163v-172h-193q0 -403 110.5 -640.5t263 -329t298.5 -91.5q188 0 345 120t248 331t91 471q0 65 -8 139h-188v172h1163v-172h-250q-110 -986 -1081 -1212v-1311z" />
    <glyph glyph-name="Otilde" unicode="&#xd5;" horiz-adv-x="2949" 
d="M1040 2695l430 -696q27 72 99 221q40 80 69 156q91 200 170.5 313t207 174.5t335.5 61.5q109 0 255.5 -41.5t146.5 -85.5q0 -30 -33 -86q-12 -27 -37 -78l-33 -66q-49 -126 -49 -180v-33q0 -57 -12 -102h-119q-118 86 -182 112.5t-150 26.5q-153 0 -225 -76.5
t-176 -279.5q-12 -26 -25 -51t-29 -56q-54 -104 -73 -151l934 -1606h348v-172h-1462v172h389l-635 1081l-238 -454q-61 -115 -122.5 -289t-61.5 -244q0 -98 184 -98q70 0 107 4v-172h-996v172q185 0 303.5 78.5t197 209.5t192.5 380q39 90 57 123l246 507l-717 1225h-270
v172h1277v-172h-303z" />
    <glyph glyph-name="Otilde" unicode="&#x425;" horiz-adv-x="2949" 
d="M1040 2695l430 -696q27 72 99 221q40 80 69 156q91 200 170.5 313t207 174.5t335.5 61.5q109 0 255.5 -41.5t146.5 -85.5q0 -30 -33 -86q-12 -27 -37 -78l-33 -66q-49 -126 -49 -180v-33q0 -57 -12 -102h-119q-118 86 -182 112.5t-150 26.5q-153 0 -225 -76.5
t-176 -279.5q-12 -26 -25 -51t-29 -56q-54 -104 -73 -151l934 -1606h348v-172h-1462v172h389l-635 1081l-238 -454q-61 -115 -122.5 -289t-61.5 -244q0 -98 184 -98q70 0 107 4v-172h-996v172q185 0 303.5 78.5t197 209.5t192.5 380q39 90 57 123l246 507l-717 1225h-270
v172h1277v-172h-303z" />
    <glyph glyph-name="Ucircumflex" unicode="&#xdb;" horiz-adv-x="4100" 
d="M1475 2867v-172h-340v-1012q112 -104 282 -181t337.5 -118t268.5 -41q40 0 168 9q141 0 197.5 -50.5t56.5 -216.5v-798q0 -132 -27 -192.5t-78 -77.5t-145 -17h-2035v172h340v2523h-340v172h1315zM1135 172h368q136 0 221.5 39t85.5 190v488q0 36 -2 46t-2 52
q-3 104 -34 142.5t-179 82.5q-263 83 -458 246v-1286zM2932 172v2523h-339v172h1314v-172h-340v-2523h340v-172h-1314v172h339z" />
    <glyph glyph-name="Ucircumflex" unicode="&#x42b;" horiz-adv-x="4100" 
d="M1475 2867v-172h-340v-1012q112 -104 282 -181t337.5 -118t268.5 -41q40 0 168 9q141 0 197.5 -50.5t56.5 -216.5v-798q0 -132 -27 -192.5t-78 -77.5t-145 -17h-2035v172h340v2523h-340v172h1315zM1135 172h368q136 0 221.5 39t85.5 190v488q0 36 -2 46t-2 52
q-3 104 -34 142.5t-179 82.5q-263 83 -458 246v-1286zM2932 172v2523h-339v172h1314v-172h-340v-2523h340v-172h-1314v172h339z" />
    <glyph glyph-name="agrave" unicode="&#xe0;" horiz-adv-x="2040" 
d="M1110 1102q-29 152 -115 397q-237 -257 -323 -451.5t-86 -297.5q0 -105 59.5 -192t181.5 -87q108 0 188 54.5t120.5 133t40.5 144.5q0 36 -26 131.5t-40 167.5zM1405 66q-66 286 -156 552q-202 -663 -647 -663q-161 0 -259 86.5t-138.5 208t-40.5 237.5q0 108 53 229.5
t137.5 242.5t141.5 187.5t180 205.5q55 64 125.5 136.5t95.5 105.5t25 65q0 50 -29 139q-12 41 -12 82q0 25 82 25h417q41 0 50 -25q2 -21 3.5 -46.5t7 -59.5t17.5 -86q100 -404 180.5 -675t159 -501t115.5 -337.5t37 -137.5q0 -37 -82 -37h-418q-31 0 -45 66z" />
    <glyph glyph-name="agrave" unicode="&#x430;" horiz-adv-x="2040" 
d="M1110 1102q-29 152 -115 397q-237 -257 -323 -451.5t-86 -297.5q0 -105 59.5 -192t181.5 -87q108 0 188 54.5t120.5 133t40.5 144.5q0 36 -26 131.5t-40 167.5zM1405 66q-66 286 -156 552q-202 -663 -647 -663q-161 0 -259 86.5t-138.5 208t-40.5 237.5q0 108 53 229.5
t137.5 242.5t141.5 187.5t180 205.5q55 64 125.5 136.5t95.5 105.5t25 65q0 50 -29 139q-12 41 -12 82q0 25 82 25h417q41 0 50 -25q2 -21 3.5 -46.5t7 -59.5t17.5 -86q100 -404 180.5 -675t159 -501t115.5 -337.5t37 -137.5q0 -37 -82 -37h-418q-31 0 -45 66z" />
    <glyph glyph-name="aring" unicode="&#xe5;" horiz-adv-x="2040" 
d="M1892 1720l107 -127q-221 -143 -381 -143q-171 0 -356 213q-70 79 -111.5 115.5t-101.5 36.5q-189 0 -248 -240t-68 -600q98 76 269 154.5t276 78.5q79 0 147 -24q79 -29 161.5 -80t121.5 -51q84 0 156 65l82 -110q-101 -116 -226 -209q-66 -49 -105.5 -69.5
t-107.5 -20.5q-89 0 -192 69q-104 71 -166 99t-137 28q-140 0 -275 -119q0 -318 153.5 -527.5t416.5 -209.5q232 0 528 213l78 -86q-292 -315 -737 -315q-213 0 -438 81.5t-393 299t-185 589.5v140q12 208 107 437t290 391.5t479 162.5q288 0 615 -205q96 -69 151 -69
q53 0 90 32z" />
    <glyph glyph-name="aring" unicode="&#x435;" horiz-adv-x="2040" 
d="M1892 1720l107 -127q-221 -143 -381 -143q-171 0 -356 213q-70 79 -111.5 115.5t-101.5 36.5q-189 0 -248 -240t-68 -600q98 76 269 154.5t276 78.5q79 0 147 -24q79 -29 161.5 -80t121.5 -51q84 0 156 65l82 -110q-101 -116 -226 -209q-66 -49 -105.5 -69.5
t-107.5 -20.5q-89 0 -192 69q-104 71 -166 99t-137 28q-140 0 -275 -119q0 -318 153.5 -527.5t416.5 -209.5q232 0 528 213l78 -86q-292 -315 -737 -315q-213 0 -438 81.5t-393 299t-185 589.5v140q12 208 107 437t290 391.5t479 162.5q288 0 615 -205q96 -69 151 -69
q53 0 90 32z" />
    <glyph glyph-name="eacute" unicode="&#xe9;" horiz-adv-x="2163" 
d="M1544 2621l90 -57q-125 -280 -264 -388t-248 -108q-90 0 -188.5 144.5t-151.5 380.5l-24 110l110 29q105 -295 308 -295q240 0 331 131zM705 901l696 619q14 227 20.5 283t30 79t88.5 23h356q54 0 54 -66q0 -23 -21 -168q-49 -285 -49 -565q0 -499 66 -987
q0 -65 -26.5 -92t-137.5 -27h-242q-55 0 -90.5 43t-56.5 185.5t-21 422.5q0 342 21 701l-688 -619q4 -140 13.5 -238t27.5 -213t24 -163q0 -65 -26.5 -92t-137.5 -27h-241q-57 0 -85 31t-34 129q-7 166 -17 258q-20 296 -20 672q0 271 10 448t28.5 252t42.5 95t66 20h365
q53 0 53 -66q0 -18 -20 -168q-21 -137 -35 -357t-14 -413z" />
    <glyph glyph-name="eacute" unicode="&#x439;" horiz-adv-x="2163" 
d="M1544 2621l90 -57q-125 -280 -264 -388t-248 -108q-90 0 -188.5 144.5t-151.5 380.5l-24 110l110 29q105 -295 308 -295q240 0 331 131zM705 901l696 619q14 227 20.5 283t30 79t88.5 23h356q54 0 54 -66q0 -23 -21 -168q-49 -285 -49 -565q0 -499 66 -987
q0 -65 -26.5 -92t-137.5 -27h-242q-55 0 -90.5 43t-56.5 185.5t-21 422.5q0 342 21 701l-688 -619q4 -140 13.5 -238t27.5 -213t24 -163q0 -65 -26.5 -92t-137.5 -27h-241q-57 0 -85 31t-34 129q-7 166 -17 258q-20 296 -20 672q0 271 10 448t28.5 252t42.5 95t66 20h365
q53 0 53 -66q0 -18 -20 -168q-21 -137 -35 -357t-14 -413z" />
    <glyph glyph-name="icircumflex" unicode="&#xee;" horiz-adv-x="1815" 
d="M160 831q0 319 134 599.5t314 449t285 168.5q77 0 205 -61t256 -181.5t214.5 -307.5t86.5 -429q0 -184 -73 -394.5t-191 -398t-247.5 -301.5t-230.5 -114q-134 0 -315 152t-309.5 379.5t-128.5 438.5zM578 1589q-127 -160 -127 -327t85.5 -377t266.5 -363t446 -153
q70 132 70 299q0 221 -91.5 424t-260 338.5t-389.5 158.5z" />
    <glyph glyph-name="icircumflex" unicode="&#x43e;" horiz-adv-x="1815" 
d="M160 831q0 319 134 599.5t314 449t285 168.5q77 0 205 -61t256 -181.5t214.5 -307.5t86.5 -429q0 -184 -73 -394.5t-191 -398t-247.5 -301.5t-230.5 -114q-134 0 -315 152t-309.5 379.5t-128.5 438.5zM578 1589q-127 -160 -127 -327t85.5 -377t266.5 -363t446 -153
q70 132 70 299q0 221 -91.5 424t-260 338.5t-389.5 158.5z" />
    <glyph glyph-name="eth" unicode="&#xf0;" horiz-adv-x="1929" 
d="M602 295q3 -19 16 -139q37 -282 37 -656q0 -309 -68 -429t-190 -120q-82 0 -94 41v25q4 78 4 336q0 278 -20 545q-15 165 -37 387t-29.5 333t-7.5 246q0 337 141.5 606.5t329.5 421.5t299 152q96 0 222.5 -103t243 -282.5t192 -411.5t75.5 -481q0 -238 -74.5 -427
t-205.5 -294.5t-293 -105.5q-152 0 -306 105t-235 251zM717 1659q-95 -144 -133.5 -286.5t-38.5 -348.5q0 -241 85 -433.5t206.5 -297.5t220.5 -105q74 0 141 69t80 247v151q-11 154 -87.5 365t-200 388.5t-273.5 250.5z" />
    <glyph glyph-name="eth" unicode="&#x440;" horiz-adv-x="1929" 
d="M602 295q3 -19 16 -139q37 -282 37 -656q0 -309 -68 -429t-190 -120q-82 0 -94 41v25q4 78 4 336q0 278 -20 545q-15 165 -37 387t-29.5 333t-7.5 246q0 337 141.5 606.5t329.5 421.5t299 152q96 0 222.5 -103t243 -282.5t192 -411.5t75.5 -481q0 -238 -74.5 -427
t-205.5 -294.5t-293 -105.5q-152 0 -306 105t-235 251zM717 1659q-95 -144 -133.5 -286.5t-38.5 -348.5q0 -241 85 -433.5t206.5 -297.5t220.5 -105q74 0 141 69t80 247v151q-11 154 -87.5 365t-200 388.5t-273.5 250.5z" />
    <glyph glyph-name="ntilde" unicode="&#xf1;" horiz-adv-x="1704" 
d="M1397 672l135 -107q-138 -290 -334 -497t-321 -207q-94 0 -215 106.5t-234.5 283.5t-184.5 373t-71 363q0 232 118 479.5t279 414.5t267 167q33 0 143 -41.5t228.5 -100t203 -123.5t84.5 -116q0 -39 -115 -160q-74 -77 -97.5 -112t-46 -74t-36.5 -39q-20 0 -86 90
q-81 107 -186.5 187t-296.5 120q-70 -143 -70 -356q0 -188 84.5 -389.5t225 -358t292.5 -215.5q95 96 176 226q7 11 22 35t36 51z" />
    <glyph glyph-name="ntilde" unicode="&#x441;" horiz-adv-x="1704" 
d="M1397 672l135 -107q-138 -290 -334 -497t-321 -207q-94 0 -215 106.5t-234.5 283.5t-184.5 373t-71 363q0 232 118 479.5t279 414.5t267 167q33 0 143 -41.5t228.5 -100t203 -123.5t84.5 -116q0 -39 -115 -160q-74 -77 -97.5 -112t-46 -74t-36.5 -39q-20 0 -86 90
q-81 107 -186.5 187t-296.5 120q-70 -143 -70 -356q0 -188 84.5 -389.5t225 -358t292.5 -215.5q95 96 176 226q7 11 22 35t36 51z" />
    <glyph glyph-name="oacute" unicode="&#xf3;" horiz-adv-x="2073" 
d="M659 1741q25 -121 99 -508q23 -115 61 -353t66.5 -445.5t32.5 -295.5h163q53 591 160 1020q46 193 107 355t193.5 299t338.5 137q193 0 193 -82q0 -26 -10 -53.5t-34 -73t-30 -58.5q-25 -65 -25 -184q0 -106 -8 -164l-94 -4q-32 107 -156 107q-103 0 -200.5 -110
t-167.5 -432t-70 -904q0 -374 13.5 -489t41 -238.5t27.5 -284.5q0 -94 -352 -94q-49 0 -61.5 23t-12.5 71q0 186 12 326.5t30 259t36 229.5q23 147 28 205h-237q-152 0 -243 -6t-97 -6q-27 0 -34 17t-7 69q-8 206 -50.5 508.5t-108 600t-140.5 500.5q-45 127 -45 181
q0 30 29.5 37.5t117.5 7.5q58 -4 181 -4h102q85 0 110.5 -27.5t40.5 -136.5z" />
    <glyph glyph-name="oacute" unicode="&#x443;" horiz-adv-x="2073" 
d="M659 1741q25 -121 99 -508q23 -115 61 -353t66.5 -445.5t32.5 -295.5h163q53 591 160 1020q46 193 107 355t193.5 299t338.5 137q193 0 193 -82q0 -26 -10 -53.5t-34 -73t-30 -58.5q-25 -65 -25 -184q0 -106 -8 -164l-94 -4q-32 107 -156 107q-103 0 -200.5 -110
t-167.5 -432t-70 -904q0 -374 13.5 -489t41 -238.5t27.5 -284.5q0 -94 -352 -94q-49 0 -61.5 23t-12.5 71q0 186 12 326.5t30 259t36 229.5q23 147 28 205h-237q-152 0 -243 -6t-97 -6q-27 0 -34 17t-7 69q-8 206 -50.5 508.5t-108 600t-140.5 500.5q-45 127 -45 181
q0 30 29.5 37.5t117.5 7.5q58 -4 181 -4h102q85 0 110.5 -27.5t40.5 -136.5z" />
    <glyph glyph-name="otilde" unicode="&#xf5;" horiz-adv-x="1925" 
d="M168 1905h266q24 0 57 6t46 6q28 0 53 -25q17 -19 82 -184q135 -344 237 -573q45 -103 74 -168q115 400 207 610t186 291.5t221 81.5q88 0 185.5 -45.5t97.5 -85.5q0 -60 -27 -89.5t-44 -67.5t-27 -187q0 -99 4 -168l-78 -50q-105 115 -213 115q-83 0 -144.5 -59
t-122 -196t-138.5 -372q74 -187 155 -364q116 -263 200.5 -440t127.5 -269q166 -338 254 -479q53 -79 53 -139q0 -58 -53 -58h-381q-64 0 -96.5 50.5t-75.5 154.5q-31 89 -144 320q-23 54 -80 177t-108 241q-83 188 -123 282q-126 -438 -222.5 -693t-166.5 -368
t-116.5 -138.5t-104.5 -25.5q-152 0 -152 95q0 40 90 176q145 197 315 574.5t238 650.5q-62 147 -122 278q-66 130 -115 250q-40 85 -86.5 184t-48.5 103q-42 88 -111 237q-39 85 -75 154t-44 86.5t-8 38.5q0 57 16 69.5t62 12.5z" />
    <glyph glyph-name="otilde" unicode="&#x445;" horiz-adv-x="1925" 
d="M168 1905h266q24 0 57 6t46 6q28 0 53 -25q17 -19 82 -184q135 -344 237 -573q45 -103 74 -168q115 400 207 610t186 291.5t221 81.5q88 0 185.5 -45.5t97.5 -85.5q0 -60 -27 -89.5t-44 -67.5t-27 -187q0 -99 4 -168l-78 -50q-105 115 -213 115q-83 0 -144.5 -59
t-122 -196t-138.5 -372q74 -187 155 -364q116 -263 200.5 -440t127.5 -269q166 -338 254 -479q53 -79 53 -139q0 -58 -53 -58h-381q-64 0 -96.5 50.5t-75.5 154.5q-31 89 -144 320q-23 54 -80 177t-108 241q-83 188 -123 282q-126 -438 -222.5 -693t-166.5 -368
t-116.5 -138.5t-104.5 -25.5q-152 0 -152 95q0 40 90 176q145 197 315 574.5t238 650.5q-62 147 -122 278q-66 130 -115 250q-40 85 -86.5 184t-48.5 103q-42 88 -111 237q-39 85 -75 154t-44 86.5t-8 38.5q0 57 16 69.5t62 12.5z" />
    <glyph glyph-name="ucircumflex" unicode="&#xfb;" horiz-adv-x="2843" 
d="M1425 0h-1056q-144 0 -144 160v545q0 437 5.5 660t22 342.5t48 160.5t92.5 41q19 0 58 -2t65 -2q127 0 189 8h45q53 -9 53 -66q0 -30 -21.5 -128.5t-36.5 -272.5q-12 -143 -12 -393q562 -32 836 -246q323 -257 323 -647q0 -105 -56 -136.5t-177 -31.5h-70q-20 4 -69 4
q-17 0 -48 2t-47 2zM733 139h467l70 4q4 41 4 131q0 110 -37.5 231.5t-159.5 228.5t-348 134q-8 -65 -8 -217q0 -323 12 -512zM2052 1094q0 370 15 545t46.5 222.5t98.5 47.5q20 0 53 -2t66 -2q66 0 188 8h45q54 -8 54 -66q0 -41 -21 -168.5t-35 -261t-14 -307.5
q0 -554 66 -991q0 -73 -38.5 -96t-170.5 -23h-193q-56 0 -81.5 18t-38.5 78t-19 207q-21 481 -21 791z" />
    <glyph glyph-name="ucircumflex" unicode="&#x44b;" horiz-adv-x="2843" 
d="M1425 0h-1056q-144 0 -144 160v545q0 437 5.5 660t22 342.5t48 160.5t92.5 41q19 0 58 -2t65 -2q127 0 189 8h45q53 -9 53 -66q0 -30 -21.5 -128.5t-36.5 -272.5q-12 -143 -12 -393q562 -32 836 -246q323 -257 323 -647q0 -105 -56 -136.5t-177 -31.5h-70q-20 4 -69 4
q-17 0 -48 2t-47 2zM733 139h467l70 4q4 41 4 131q0 110 -37.5 231.5t-159.5 228.5t-348 134q-8 -65 -8 -217q0 -323 12 -512zM2052 1094q0 370 15 545t46.5 222.5t98.5 47.5q20 0 53 -2t66 -2q66 0 188 8h45q54 -8 54 -66q0 -41 -21 -168.5t-35 -261t-14 -307.5
q0 -554 66 -991q0 -73 -38.5 -96t-170.5 -23h-193q-56 0 -81.5 18t-38.5 78t-19 207q-21 481 -21 791z" />
  </font>
</defs>
</svg>
