<svg xmlns="http://www.w3.org/2000/svg" width="288" height="320" preserveAspectRatio="xMidYMid" viewBox="0 0 36 40" fill="#16b4c3"><path fill-rule="evenodd" d="M21.666 14.214v7.872s1.987-1.156 1.989-1.158c1.155-.665 1.43-.986 1.43-2.029v-4.672c0-2.179-3.404-2.183-3.419-.013zm11.778-6.156l-1.031-.592v1.336c0 .25-.316.453-1.221.453-.906 0-1.221-.203-1.221-.453V7.268c0-.926-.532-1.51-1.451-2.037L20.554.658c-1.58-.907-3.527-.907-5.107 0l-12.891 7.4C.976 8.965.003 10.641.003 12.455v14.8c0 1.814.973 3.491 2.553 4.398l12.891 7.399c1.58.907 3.527.907 5.107 0l7.966-4.573c.919-.527 1.451-1.11 1.451-2.036V12.02c0-.25.315-.453 1.221-.453.905 0 1.221.203 1.221.453v20.225l1.031-.592c1.581-.907 2.554-2.584 2.554-4.398v-14.8c0-1.814-.973-3.49-2.554-4.397zm-21.548 18.31c0 3.485-8.304 3.485-8.304 0L3.589 12.02c0-.25.316-.453 1.221-.453.906 0 1.221.203 1.221.453l.003 14.348c0 2.182 3.42 2.182 3.42 0V12.02c0-.25.315-.453 1.221-.453.905 0 1.221.203 1.221.453v14.348zm4.885 2.206c0 .25-.316.453-1.221.453-.906 0-1.221-.203-1.221-.453h-.001V5.032c0-.25.316-.725 1.222-1.257.905-.531 1.221-.396 1.221-.145v24.944zm10.747-10.103c0 1.49.009 1.637-1.743 2.673-.318.188-3.412 1.969-3.697 2.132-.33.189-.422.364-.422.601v2.853c0 2.183 3.42 2.183 3.42 0v-1.797c0-.25.315-.724 1.221-1.256.905-.532 1.221-.396 1.221-.146v3.199c0 3.486-8.305 3.486-8.305 0V14.227c0-3.486 8.305-3.486 8.305 0v4.244z" class="cls-ulej"></path></svg>